G04 #@! TF.GenerationSoftware,KiCad,Pcbnew,9.0.5*
G04 #@! TF.CreationDate,2025-10-12T17:23:04+02:00*
G04 #@! TF.ProjectId,b1,62312e6b-6963-4616-945f-706362585858,rev?*
G04 #@! TF.SameCoordinates,Original*
G04 #@! TF.FileFunction,Soldermask,Bot*
G04 #@! TF.FilePolarity,Negative*
%FSLAX46Y46*%
G04 Gerber Fmt 4.6, Leading zero omitted, Abs format (unit mm)*
G04 Created by KiCad (PCBNEW 9.0.5) date 2025-10-12 17:23:04*
%MOMM*%
%LPD*%
G01*
G04 APERTURE LIST*
G04 Aperture macros list*
%AMRoundRect*
0 Rectangle with rounded corners*
0 $1 Rounding radius*
0 $2 $3 $4 $5 $6 $7 $8 $9 X,Y pos of 4 corners*
0 Add a 4 corners polygon primitive as box body*
4,1,4,$2,$3,$4,$5,$6,$7,$8,$9,$2,$3,0*
0 Add four circle primitives for the rounded corners*
1,1,$1+$1,$2,$3*
1,1,$1+$1,$4,$5*
1,1,$1+$1,$6,$7*
1,1,$1+$1,$8,$9*
0 Add four rect primitives between the rounded corners*
20,1,$1+$1,$2,$3,$4,$5,0*
20,1,$1+$1,$4,$5,$6,$7,0*
20,1,$1+$1,$6,$7,$8,$9,0*
20,1,$1+$1,$8,$9,$2,$3,0*%
G04 Aperture macros list end*
%ADD10C,1.900000*%
%ADD11C,3.050000*%
%ADD12C,5.050000*%
%ADD13RoundRect,0.250000X1.025000X1.000000X-1.025000X1.000000X-1.025000X-1.000000X1.025000X-1.000000X0*%
%ADD14C,3.200000*%
%ADD15O,4.000000X2.300000*%
%ADD16C,1.800000*%
%ADD17RoundRect,0.155000X0.620000X1.095000X-0.620000X1.095000X-0.620000X-1.095000X0.620000X-1.095000X0*%
%ADD18RoundRect,0.250000X-0.300000X0.300000X-0.300000X-0.300000X0.300000X-0.300000X0.300000X0.300000X0*%
%ADD19RoundRect,0.250000X-0.475000X0.250000X-0.475000X-0.250000X0.475000X-0.250000X0.475000X0.250000X0*%
%ADD20R,1.700000X1.000000*%
%ADD21RoundRect,0.250000X-0.600000X-0.250000X0.600000X-0.250000X0.600000X0.250000X-0.600000X0.250000X0*%
%ADD22R,1.700000X1.700000*%
%ADD23O,1.700000X1.700000*%
%ADD24RoundRect,0.250000X0.475000X-0.250000X0.475000X0.250000X-0.475000X0.250000X-0.475000X-0.250000X0*%
%ADD25RoundRect,0.250000X0.600000X0.250000X-0.600000X0.250000X-0.600000X-0.250000X0.600000X-0.250000X0*%
%ADD26RoundRect,0.250000X0.450000X-0.262500X0.450000X0.262500X-0.450000X0.262500X-0.450000X-0.262500X0*%
G04 #@! TA.AperFunction,Profile*
%ADD27C,0.100000*%
G04 #@! TD*
G04 #@! TA.AperFunction,Profile*
%ADD28C,0.120000*%
G04 #@! TD*
G04 APERTURE END LIST*
D10*
X72500000Y-69000000D03*
D11*
X67000000Y-74900000D03*
D12*
X67000000Y-69000000D03*
D11*
X62000000Y-72800000D03*
D10*
X61500000Y-69000000D03*
D13*
X70500000Y-75000000D03*
X58500000Y-72800000D03*
D14*
X39500000Y-41500000D03*
D10*
X72500000Y-107000000D03*
D11*
X67000000Y-112900000D03*
D12*
X67000000Y-107000000D03*
D11*
X62000000Y-110800000D03*
D10*
X61500000Y-107000000D03*
D13*
X70500000Y-113000000D03*
X58500000Y-110800000D03*
D14*
X39500000Y-134500000D03*
D10*
X110500000Y-69000000D03*
D11*
X105000000Y-74900000D03*
D12*
X105000000Y-69000000D03*
D11*
X100000000Y-72800000D03*
D10*
X99500000Y-69000000D03*
D13*
X108500000Y-75000000D03*
X96500000Y-72800000D03*
D10*
X91500000Y-126000000D03*
D11*
X86000000Y-131900000D03*
D12*
X86000000Y-126000000D03*
D11*
X81000000Y-129800000D03*
D10*
X80500000Y-126000000D03*
D13*
X89500000Y-132000000D03*
X77500000Y-129800000D03*
D10*
X129500000Y-88000000D03*
D11*
X124000000Y-93900000D03*
D12*
X124000000Y-88000000D03*
D11*
X119000000Y-91800000D03*
D10*
X118500000Y-88000000D03*
D13*
X127500000Y-94000000D03*
X115500000Y-91800000D03*
D14*
X132500000Y-41500000D03*
D10*
X91500000Y-107000000D03*
D11*
X86000000Y-112900000D03*
D12*
X86000000Y-107000000D03*
D11*
X81000000Y-110800000D03*
D10*
X80500000Y-107000000D03*
D13*
X89500000Y-113000000D03*
X77500000Y-110800000D03*
D10*
X129500000Y-126000000D03*
D11*
X124000000Y-131900000D03*
D12*
X124000000Y-126000000D03*
D11*
X119000000Y-129800000D03*
D10*
X118500000Y-126000000D03*
D13*
X127500000Y-132000000D03*
X115500000Y-129800000D03*
D10*
X110500000Y-126000000D03*
D11*
X105000000Y-131900000D03*
D12*
X105000000Y-126000000D03*
D11*
X100000000Y-129800000D03*
D10*
X99500000Y-126000000D03*
D13*
X108500000Y-132000000D03*
X96500000Y-129800000D03*
D10*
X91500000Y-69000000D03*
D11*
X86000000Y-74900000D03*
D12*
X86000000Y-69000000D03*
D11*
X81000000Y-72800000D03*
D10*
X80500000Y-69000000D03*
D13*
X89500000Y-75000000D03*
X77500000Y-72800000D03*
D14*
X132500000Y-134500000D03*
D10*
X72500000Y-126000000D03*
D11*
X67000000Y-131900000D03*
D12*
X67000000Y-126000000D03*
D11*
X62000000Y-129800000D03*
D10*
X61500000Y-126000000D03*
D13*
X70500000Y-132000000D03*
X58500000Y-129800000D03*
D10*
X129500000Y-69000000D03*
D11*
X124000000Y-74900000D03*
D12*
X124000000Y-69000000D03*
D11*
X119000000Y-72800000D03*
D10*
X118500000Y-69000000D03*
D13*
X127500000Y-75000000D03*
X115500000Y-72800000D03*
D10*
X110500000Y-107000000D03*
D11*
X105000000Y-112900000D03*
D12*
X105000000Y-107000000D03*
D11*
X100000000Y-110800000D03*
D10*
X99500000Y-107000000D03*
D13*
X108500000Y-113000000D03*
X96500000Y-110800000D03*
D10*
X72500000Y-50000000D03*
D11*
X67000000Y-55900000D03*
D12*
X67000000Y-50000000D03*
D11*
X62000000Y-53800000D03*
D10*
X61500000Y-50000000D03*
D13*
X70500000Y-56000000D03*
X58500000Y-53800000D03*
D15*
X123750000Y-44500000D03*
X123750000Y-55500000D03*
D16*
X131250000Y-52540000D03*
X131250000Y-47460000D03*
X131250000Y-50000000D03*
X116750000Y-52540000D03*
X116750000Y-47460000D03*
D10*
X72500000Y-88000000D03*
D11*
X67000000Y-93900000D03*
D12*
X67000000Y-88000000D03*
D11*
X62000000Y-91800000D03*
D10*
X61500000Y-88000000D03*
D13*
X70500000Y-94000000D03*
X58500000Y-91800000D03*
D10*
X91500000Y-50000000D03*
D11*
X86000000Y-55900000D03*
D12*
X86000000Y-50000000D03*
D11*
X81000000Y-53800000D03*
D10*
X80500000Y-50000000D03*
D13*
X89500000Y-56000000D03*
X77500000Y-53800000D03*
D10*
X129500000Y-107000000D03*
D11*
X124000000Y-112900000D03*
D12*
X124000000Y-107000000D03*
D11*
X119000000Y-110800000D03*
D10*
X118500000Y-107000000D03*
D13*
X127500000Y-113000000D03*
X115500000Y-110800000D03*
D10*
X53500000Y-107000000D03*
D11*
X48000000Y-112900000D03*
D12*
X48000000Y-107000000D03*
D11*
X43000000Y-110800000D03*
D10*
X42500000Y-107000000D03*
D13*
X51500000Y-113000000D03*
D17*
X40000000Y-110800000D03*
D10*
X53500000Y-50000000D03*
D11*
X48000000Y-55900000D03*
D12*
X48000000Y-50000000D03*
D11*
X43000000Y-53800000D03*
D10*
X42500000Y-50000000D03*
D13*
X51500000Y-56000000D03*
X39500000Y-53800000D03*
D10*
X110500000Y-88000000D03*
D11*
X105000000Y-93900000D03*
D12*
X105000000Y-88000000D03*
D11*
X100000000Y-91800000D03*
D10*
X99500000Y-88000000D03*
D13*
X108500000Y-94000000D03*
X96500000Y-91800000D03*
D10*
X53500000Y-126000000D03*
D11*
X48000000Y-131900000D03*
D12*
X48000000Y-126000000D03*
D11*
X43000000Y-129800000D03*
D10*
X42500000Y-126000000D03*
D13*
X51500000Y-132000000D03*
X39500000Y-129800000D03*
D10*
X53500000Y-69000000D03*
D11*
X48000000Y-74900000D03*
D12*
X48000000Y-69000000D03*
D11*
X43000000Y-72800000D03*
D10*
X42500000Y-69000000D03*
D13*
X51500000Y-75000000D03*
X39500000Y-72800000D03*
D10*
X53500000Y-88000000D03*
D11*
X48000000Y-93900000D03*
D12*
X48000000Y-88000000D03*
D11*
X43000000Y-91800000D03*
D10*
X42500000Y-88000000D03*
D13*
X51500000Y-94000000D03*
X39500000Y-91800000D03*
D10*
X91500000Y-88000000D03*
D11*
X86000000Y-93900000D03*
D12*
X86000000Y-88000000D03*
D11*
X81000000Y-91800000D03*
D10*
X80500000Y-88000000D03*
D13*
X89500000Y-94000000D03*
X77500000Y-91800000D03*
D10*
X110500000Y-50000000D03*
D11*
X105000000Y-55900000D03*
D12*
X105000000Y-50000000D03*
D11*
X100000000Y-53800000D03*
D10*
X99500000Y-50000000D03*
D13*
X108500000Y-56000000D03*
X96500000Y-53800000D03*
D18*
X58500000Y-105500000D03*
X58500000Y-108300000D03*
D19*
X61750000Y-64050000D03*
X61750000Y-65950000D03*
D18*
X117000000Y-42400000D03*
X117000000Y-45200000D03*
D20*
X107750000Y-84450000D03*
X107750000Y-83050000D03*
D21*
X102250000Y-83050000D03*
D20*
X102250000Y-84450000D03*
X126750000Y-122450000D03*
X126750000Y-121050000D03*
D21*
X121250000Y-121050000D03*
D20*
X121250000Y-122450000D03*
D18*
X77500000Y-48500000D03*
X77500000Y-51300000D03*
X96500000Y-105500000D03*
X96500000Y-108300000D03*
D19*
X99750000Y-101850000D03*
X99750000Y-103750000D03*
D20*
X88750000Y-122450000D03*
X88750000Y-121050000D03*
D21*
X83250000Y-121050000D03*
D20*
X83250000Y-122450000D03*
D22*
X38000000Y-66460000D03*
D23*
X38000000Y-69000000D03*
X38000000Y-71540000D03*
D18*
X96500000Y-124500000D03*
X96500000Y-127300000D03*
X39500000Y-48500000D03*
X39500000Y-51300000D03*
D19*
X118750000Y-63850000D03*
X118750000Y-65750000D03*
D18*
X39500000Y-86500000D03*
X39500000Y-89300000D03*
X115500000Y-124500000D03*
X115500000Y-127300000D03*
D24*
X53500000Y-46700000D03*
X53500000Y-44800000D03*
D18*
X77500000Y-105500000D03*
X77500000Y-108300000D03*
D22*
X102420000Y-136000000D03*
D23*
X104960000Y-136000000D03*
X107500000Y-136000000D03*
D24*
X110250000Y-46700000D03*
X110250000Y-44800000D03*
X91250000Y-122700000D03*
X91250000Y-120800000D03*
D22*
X64460000Y-136000000D03*
D23*
X67000000Y-136000000D03*
X69540000Y-136000000D03*
D19*
X99750000Y-63850000D03*
X99750000Y-65750000D03*
D18*
X115500000Y-86500000D03*
X115500000Y-89300000D03*
X58500000Y-67500000D03*
X58500000Y-70300000D03*
D20*
X121250000Y-102050000D03*
X121250000Y-103450000D03*
D25*
X126750000Y-103450000D03*
D20*
X126750000Y-102050000D03*
D19*
X42750000Y-101800000D03*
X42750000Y-103700000D03*
D24*
X72500000Y-46650000D03*
X72500000Y-44750000D03*
D20*
X50750000Y-122450000D03*
X50750000Y-121050000D03*
D21*
X45250000Y-121050000D03*
D20*
X45250000Y-122450000D03*
X107750000Y-122450000D03*
X107750000Y-121050000D03*
D21*
X102250000Y-121050000D03*
D20*
X102250000Y-122450000D03*
D19*
X118750000Y-101850000D03*
X118750000Y-103750000D03*
D18*
X96500000Y-86400000D03*
X96500000Y-89200000D03*
D20*
X102250000Y-64050000D03*
X102250000Y-65450000D03*
D25*
X107750000Y-65450000D03*
D20*
X107750000Y-64050000D03*
D19*
X133750000Y-47250000D03*
X133750000Y-49150000D03*
D18*
X55000000Y-71100000D03*
X55000000Y-73900000D03*
D20*
X45250000Y-102100000D03*
X45250000Y-103500000D03*
D25*
X50750000Y-103500000D03*
D20*
X50750000Y-102100000D03*
X69750000Y-84450000D03*
X69750000Y-83050000D03*
D21*
X64250000Y-83050000D03*
D20*
X64250000Y-84450000D03*
D19*
X42750000Y-63800000D03*
X42750000Y-65700000D03*
X80750000Y-101850000D03*
X80750000Y-103750000D03*
D24*
X110250000Y-84700000D03*
X110250000Y-82800000D03*
D22*
X134000000Y-66475000D03*
D23*
X134000000Y-69015000D03*
X134000000Y-71555000D03*
D20*
X69750000Y-46450000D03*
X69750000Y-45050000D03*
D21*
X64250000Y-45050000D03*
D20*
X64250000Y-46450000D03*
D18*
X58500000Y-48500000D03*
X58500000Y-51300000D03*
D22*
X64475000Y-40025000D03*
D23*
X67015000Y-40025000D03*
X69555000Y-40025000D03*
D24*
X128750000Y-50950000D03*
X128750000Y-49050000D03*
D20*
X64250000Y-102050000D03*
X64250000Y-103450000D03*
D25*
X69750000Y-103450000D03*
D20*
X69750000Y-102050000D03*
D18*
X55000000Y-109100000D03*
X55000000Y-111900000D03*
D20*
X107750000Y-46450000D03*
X107750000Y-45050000D03*
D21*
X102250000Y-45050000D03*
D20*
X102250000Y-46450000D03*
X83250000Y-102050000D03*
X83250000Y-103450000D03*
D25*
X88750000Y-103450000D03*
D20*
X88750000Y-102050000D03*
D24*
X129250000Y-84700000D03*
X129250000Y-82800000D03*
D18*
X39500000Y-124500000D03*
X39500000Y-127300000D03*
X96500000Y-67500000D03*
X96500000Y-70300000D03*
D20*
X102250000Y-102050000D03*
X102250000Y-103450000D03*
D25*
X107750000Y-103450000D03*
D20*
X107750000Y-102050000D03*
D22*
X37975000Y-104475000D03*
D23*
X37975000Y-107015000D03*
X37975000Y-109555000D03*
D20*
X50750000Y-46450000D03*
X50750000Y-45050000D03*
D21*
X45250000Y-45050000D03*
D20*
X45250000Y-46450000D03*
X121250000Y-64050000D03*
X121250000Y-65450000D03*
D25*
X126750000Y-65450000D03*
D20*
X126750000Y-64050000D03*
X88750000Y-84450000D03*
X88750000Y-83050000D03*
D21*
X83250000Y-83050000D03*
D20*
X83250000Y-84450000D03*
D19*
X61750000Y-101850000D03*
X61750000Y-103750000D03*
D24*
X133750000Y-52900000D03*
X133750000Y-51000000D03*
D18*
X77500000Y-67500000D03*
X77500000Y-70300000D03*
X58400000Y-124500000D03*
X58400000Y-127300000D03*
D24*
X72250000Y-122700000D03*
X72250000Y-120800000D03*
X91250000Y-46700000D03*
X91250000Y-44800000D03*
D20*
X64250000Y-64050000D03*
X64250000Y-65450000D03*
D25*
X69750000Y-65450000D03*
D20*
X69750000Y-64050000D03*
X45250000Y-64050000D03*
X45250000Y-65450000D03*
D25*
X50750000Y-65450000D03*
D20*
X50750000Y-64050000D03*
D18*
X115500000Y-105400000D03*
X115500000Y-108200000D03*
D24*
X110250000Y-122700000D03*
X110250000Y-120800000D03*
D19*
X80750000Y-63850000D03*
X80750000Y-65750000D03*
D26*
X42500000Y-46712500D03*
X42500000Y-44887500D03*
D20*
X88750000Y-46450000D03*
X88750000Y-45050000D03*
D21*
X83250000Y-45050000D03*
D20*
X83250000Y-46450000D03*
X126750000Y-84450000D03*
X126750000Y-83050000D03*
D21*
X121250000Y-83050000D03*
D20*
X121250000Y-84450000D03*
D18*
X115500000Y-67500000D03*
X115500000Y-70300000D03*
X96500000Y-48500000D03*
X96500000Y-51300000D03*
D20*
X83250000Y-64050000D03*
X83250000Y-65450000D03*
D25*
X88750000Y-65450000D03*
D20*
X88750000Y-64050000D03*
D24*
X91250000Y-84700000D03*
X91250000Y-82800000D03*
D20*
X126500000Y-50700000D03*
X126500000Y-49300000D03*
D21*
X121000000Y-49300000D03*
D20*
X121000000Y-50700000D03*
D18*
X77500000Y-124500000D03*
X77500000Y-127300000D03*
D22*
X102460000Y-40000000D03*
D23*
X105000000Y-40000000D03*
X107540000Y-40000000D03*
D24*
X53250000Y-84700000D03*
X53250000Y-82800000D03*
D20*
X69750000Y-122450000D03*
X69750000Y-121050000D03*
D21*
X64250000Y-121050000D03*
D20*
X64250000Y-122450000D03*
D24*
X72250000Y-84700000D03*
X72250000Y-82800000D03*
D20*
X50750000Y-84450000D03*
X50750000Y-83050000D03*
D21*
X45250000Y-83050000D03*
D20*
X45250000Y-84450000D03*
D18*
X77500000Y-86500000D03*
X77500000Y-89300000D03*
D24*
X129250000Y-122650000D03*
X129250000Y-120750000D03*
D18*
X58500000Y-86500000D03*
X58500000Y-89300000D03*
D24*
X53250000Y-122700000D03*
X53250000Y-120800000D03*
D27*
X36000000Y-138000000D02*
X36000000Y-38000000D01*
X136000000Y-138000000D02*
X36000000Y-138000000D01*
X36000000Y-38000000D02*
X136000000Y-38000000D01*
X36000000Y-138000000D02*
X36000000Y-38000000D01*
X136000000Y-138000000D02*
X36000000Y-138000000D01*
X36000000Y-38000000D02*
X136000000Y-38000000D01*
X136000000Y-38000000D02*
X136000000Y-138000000D01*
X136000000Y-38000000D02*
X136000000Y-138000000D01*
D28*
X103200000Y-85300000D02*
X103200000Y-82200000D01*
X104600000Y-82400000D02*
X104600000Y-82200000D01*
X104600000Y-82400000D02*
X105400000Y-82400000D01*
X104600000Y-85100000D02*
X104600000Y-85300000D01*
X105400000Y-82400000D02*
X105400000Y-82200000D01*
X105400000Y-85100000D02*
X104600000Y-85100000D01*
X105400000Y-85300000D02*
X105400000Y-85100000D01*
X106800000Y-82200000D02*
X106800000Y-85300000D01*
X103200000Y-82200000D02*
G75*
G02*
X104600000Y-82200000I700000J-25056D01*
G01*
X104600000Y-85300000D02*
G75*
G02*
X103200000Y-85300000I-700000J25056D01*
G01*
X105400000Y-82200000D02*
G75*
G02*
X106800000Y-82200000I700000J-25056D01*
G01*
X106800000Y-85300000D02*
G75*
G02*
X105400000Y-85300000I-700000J25056D01*
G01*
X122200000Y-123300000D02*
X122200000Y-120200000D01*
X123600000Y-120400000D02*
X123600000Y-120200000D01*
X123600000Y-120400000D02*
X124400000Y-120400000D01*
X123600000Y-123100000D02*
X123600000Y-123300000D01*
X124400000Y-120400000D02*
X124400000Y-120200000D01*
X124400000Y-123100000D02*
X123600000Y-123100000D01*
X124400000Y-123300000D02*
X124400000Y-123100000D01*
X125800000Y-120200000D02*
X125800000Y-123300000D01*
X122200000Y-120200000D02*
G75*
G02*
X123600000Y-120200000I700000J-25056D01*
G01*
X123600000Y-123300000D02*
G75*
G02*
X122200000Y-123300000I-700000J25056D01*
G01*
X124400000Y-120200000D02*
G75*
G02*
X125800000Y-120200000I700000J-25056D01*
G01*
X125800000Y-123300000D02*
G75*
G02*
X124400000Y-123300000I-700000J25056D01*
G01*
X84200000Y-123300000D02*
X84200000Y-120200000D01*
X85600000Y-120400000D02*
X85600000Y-120200000D01*
X85600000Y-120400000D02*
X86400000Y-120400000D01*
X85600000Y-123100000D02*
X85600000Y-123300000D01*
X86400000Y-120400000D02*
X86400000Y-120200000D01*
X86400000Y-123100000D02*
X85600000Y-123100000D01*
X86400000Y-123300000D02*
X86400000Y-123100000D01*
X87800000Y-120200000D02*
X87800000Y-123300000D01*
X84200000Y-120200000D02*
G75*
G02*
X85600000Y-120200000I700000J-25056D01*
G01*
X85600000Y-123300000D02*
G75*
G02*
X84200000Y-123300000I-700000J25056D01*
G01*
X86400000Y-120200000D02*
G75*
G02*
X87800000Y-120200000I700000J-25056D01*
G01*
X87800000Y-123300000D02*
G75*
G02*
X86400000Y-123300000I-700000J25056D01*
G01*
X122200000Y-104300000D02*
X122200000Y-101200000D01*
X123600000Y-101200000D02*
X123600000Y-101400000D01*
X123600000Y-101400000D02*
X124400000Y-101400000D01*
X123600000Y-104100000D02*
X123600000Y-104300000D01*
X124400000Y-101400000D02*
X124400000Y-101200000D01*
X124400000Y-104100000D02*
X123600000Y-104100000D01*
X124400000Y-104100000D02*
X124400000Y-104300000D01*
X125800000Y-101200000D02*
X125800000Y-104300000D01*
X122200000Y-101200000D02*
G75*
G02*
X123600000Y-101200000I700000J-25056D01*
G01*
X123600000Y-104300000D02*
G75*
G02*
X122200000Y-104300000I-700000J25056D01*
G01*
X124400000Y-101200000D02*
G75*
G02*
X125800000Y-101200000I700000J-25056D01*
G01*
X125800000Y-104300000D02*
G75*
G02*
X124400000Y-104300000I-700000J25056D01*
G01*
X46200000Y-123300000D02*
X46200000Y-120200000D01*
X47600000Y-120400000D02*
X47600000Y-120200000D01*
X47600000Y-120400000D02*
X48400000Y-120400000D01*
X47600000Y-123100000D02*
X47600000Y-123300000D01*
X48400000Y-120400000D02*
X48400000Y-120200000D01*
X48400000Y-123100000D02*
X47600000Y-123100000D01*
X48400000Y-123300000D02*
X48400000Y-123100000D01*
X49800000Y-120200000D02*
X49800000Y-123300000D01*
X46200000Y-120200000D02*
G75*
G02*
X47600000Y-120200000I700000J-25056D01*
G01*
X47600000Y-123300000D02*
G75*
G02*
X46200000Y-123300000I-700000J25056D01*
G01*
X48400000Y-120200000D02*
G75*
G02*
X49800000Y-120200000I700000J-25056D01*
G01*
X49800000Y-123300000D02*
G75*
G02*
X48400000Y-123300000I-700000J25056D01*
G01*
X103200000Y-123300000D02*
X103200000Y-120200000D01*
X104600000Y-120400000D02*
X104600000Y-120200000D01*
X104600000Y-120400000D02*
X105400000Y-120400000D01*
X104600000Y-123100000D02*
X104600000Y-123300000D01*
X105400000Y-120400000D02*
X105400000Y-120200000D01*
X105400000Y-123100000D02*
X104600000Y-123100000D01*
X105400000Y-123300000D02*
X105400000Y-123100000D01*
X106800000Y-120200000D02*
X106800000Y-123300000D01*
X103200000Y-120200000D02*
G75*
G02*
X104600000Y-120200000I700000J-25056D01*
G01*
X104600000Y-123300000D02*
G75*
G02*
X103200000Y-123300000I-700000J25056D01*
G01*
X105400000Y-120200000D02*
G75*
G02*
X106800000Y-120200000I700000J-25056D01*
G01*
X106800000Y-123300000D02*
G75*
G02*
X105400000Y-123300000I-700000J25056D01*
G01*
X103200000Y-66300000D02*
X103200000Y-63200000D01*
X104600000Y-63200000D02*
X104600000Y-63400000D01*
X104600000Y-63400000D02*
X105400000Y-63400000D01*
X104600000Y-66100000D02*
X104600000Y-66300000D01*
X105400000Y-63400000D02*
X105400000Y-63200000D01*
X105400000Y-66100000D02*
X104600000Y-66100000D01*
X105400000Y-66100000D02*
X105400000Y-66300000D01*
X106800000Y-63200000D02*
X106800000Y-66300000D01*
X103200000Y-63200000D02*
G75*
G02*
X104600000Y-63200000I700000J-25056D01*
G01*
X104600000Y-66300000D02*
G75*
G02*
X103200000Y-66300000I-700000J25056D01*
G01*
X105400000Y-63200000D02*
G75*
G02*
X106800000Y-63200000I700000J-25056D01*
G01*
X106800000Y-66300000D02*
G75*
G02*
X105400000Y-66300000I-700000J25056D01*
G01*
X46200000Y-104350000D02*
X46200000Y-101250000D01*
X47600000Y-101250000D02*
X47600000Y-101450000D01*
X47600000Y-101450000D02*
X48400000Y-101450000D01*
X47600000Y-104150000D02*
X47600000Y-104350000D01*
X48400000Y-101450000D02*
X48400000Y-101250000D01*
X48400000Y-104150000D02*
X47600000Y-104150000D01*
X48400000Y-104150000D02*
X48400000Y-104350000D01*
X49800000Y-101250000D02*
X49800000Y-104350000D01*
X46200000Y-101250000D02*
G75*
G02*
X47600000Y-101250000I700000J-25056D01*
G01*
X47600000Y-104350000D02*
G75*
G02*
X46200000Y-104350000I-700000J25056D01*
G01*
X48400000Y-101250000D02*
G75*
G02*
X49800000Y-101250000I700000J-25056D01*
G01*
X49800000Y-104350000D02*
G75*
G02*
X48400000Y-104350000I-700000J25056D01*
G01*
X65200000Y-85300000D02*
X65200000Y-82200000D01*
X66600000Y-82400000D02*
X66600000Y-82200000D01*
X66600000Y-82400000D02*
X67400000Y-82400000D01*
X66600000Y-85100000D02*
X66600000Y-85300000D01*
X67400000Y-82400000D02*
X67400000Y-82200000D01*
X67400000Y-85100000D02*
X66600000Y-85100000D01*
X67400000Y-85300000D02*
X67400000Y-85100000D01*
X68800000Y-82200000D02*
X68800000Y-85300000D01*
X65200000Y-82200000D02*
G75*
G02*
X66600000Y-82200000I700000J-25056D01*
G01*
X66600000Y-85300000D02*
G75*
G02*
X65200000Y-85300000I-700000J25056D01*
G01*
X67400000Y-82200000D02*
G75*
G02*
X68800000Y-82200000I700000J-25056D01*
G01*
X68800000Y-85300000D02*
G75*
G02*
X67400000Y-85300000I-700000J25056D01*
G01*
X65200000Y-47300000D02*
X65200000Y-44200000D01*
X66600000Y-44400000D02*
X66600000Y-44200000D01*
X66600000Y-44400000D02*
X67400000Y-44400000D01*
X66600000Y-47100000D02*
X66600000Y-47300000D01*
X67400000Y-44400000D02*
X67400000Y-44200000D01*
X67400000Y-47100000D02*
X66600000Y-47100000D01*
X67400000Y-47300000D02*
X67400000Y-47100000D01*
X68800000Y-44200000D02*
X68800000Y-47300000D01*
X65200000Y-44200000D02*
G75*
G02*
X66600000Y-44200000I700000J-25056D01*
G01*
X66600000Y-47300000D02*
G75*
G02*
X65200000Y-47300000I-700000J25056D01*
G01*
X67400000Y-44200000D02*
G75*
G02*
X68800000Y-44200000I700000J-25056D01*
G01*
X68800000Y-47300000D02*
G75*
G02*
X67400000Y-47300000I-700000J25056D01*
G01*
X65200000Y-104300000D02*
X65200000Y-101200000D01*
X66600000Y-101200000D02*
X66600000Y-101400000D01*
X66600000Y-101400000D02*
X67400000Y-101400000D01*
X66600000Y-104100000D02*
X66600000Y-104300000D01*
X67400000Y-101400000D02*
X67400000Y-101200000D01*
X67400000Y-104100000D02*
X66600000Y-104100000D01*
X67400000Y-104100000D02*
X67400000Y-104300000D01*
X68800000Y-101200000D02*
X68800000Y-104300000D01*
X65200000Y-101200000D02*
G75*
G02*
X66600000Y-101200000I700000J-25056D01*
G01*
X66600000Y-104300000D02*
G75*
G02*
X65200000Y-104300000I-700000J25056D01*
G01*
X67400000Y-101200000D02*
G75*
G02*
X68800000Y-101200000I700000J-25056D01*
G01*
X68800000Y-104300000D02*
G75*
G02*
X67400000Y-104300000I-700000J25056D01*
G01*
X103200000Y-47300000D02*
X103200000Y-44200000D01*
X104600000Y-44400000D02*
X104600000Y-44200000D01*
X104600000Y-44400000D02*
X105400000Y-44400000D01*
X104600000Y-47100000D02*
X104600000Y-47300000D01*
X105400000Y-44400000D02*
X105400000Y-44200000D01*
X105400000Y-47100000D02*
X104600000Y-47100000D01*
X105400000Y-47300000D02*
X105400000Y-47100000D01*
X106800000Y-44200000D02*
X106800000Y-47300000D01*
X103200000Y-44200000D02*
G75*
G02*
X104600000Y-44200000I700000J-25056D01*
G01*
X104600000Y-47300000D02*
G75*
G02*
X103200000Y-47300000I-700000J25056D01*
G01*
X105400000Y-44200000D02*
G75*
G02*
X106800000Y-44200000I700000J-25056D01*
G01*
X106800000Y-47300000D02*
G75*
G02*
X105400000Y-47300000I-700000J25056D01*
G01*
X84200000Y-104300000D02*
X84200000Y-101200000D01*
X85600000Y-101200000D02*
X85600000Y-101400000D01*
X85600000Y-101400000D02*
X86400000Y-101400000D01*
X85600000Y-104100000D02*
X85600000Y-104300000D01*
X86400000Y-101400000D02*
X86400000Y-101200000D01*
X86400000Y-104100000D02*
X85600000Y-104100000D01*
X86400000Y-104100000D02*
X86400000Y-104300000D01*
X87800000Y-101200000D02*
X87800000Y-104300000D01*
X84200000Y-101200000D02*
G75*
G02*
X85600000Y-101200000I700000J-25056D01*
G01*
X85600000Y-104300000D02*
G75*
G02*
X84200000Y-104300000I-700000J25056D01*
G01*
X86400000Y-101200000D02*
G75*
G02*
X87800000Y-101200000I700000J-25056D01*
G01*
X87800000Y-104300000D02*
G75*
G02*
X86400000Y-104300000I-700000J25056D01*
G01*
X103200000Y-104300000D02*
X103200000Y-101200000D01*
X104600000Y-101200000D02*
X104600000Y-101400000D01*
X104600000Y-101400000D02*
X105400000Y-101400000D01*
X104600000Y-104100000D02*
X104600000Y-104300000D01*
X105400000Y-101400000D02*
X105400000Y-101200000D01*
X105400000Y-104100000D02*
X104600000Y-104100000D01*
X105400000Y-104100000D02*
X105400000Y-104300000D01*
X106800000Y-101200000D02*
X106800000Y-104300000D01*
X103200000Y-101200000D02*
G75*
G02*
X104600000Y-101200000I700000J-25056D01*
G01*
X104600000Y-104300000D02*
G75*
G02*
X103200000Y-104300000I-700000J25056D01*
G01*
X105400000Y-101200000D02*
G75*
G02*
X106800000Y-101200000I700000J-25056D01*
G01*
X106800000Y-104300000D02*
G75*
G02*
X105400000Y-104300000I-700000J25056D01*
G01*
X46200000Y-47300000D02*
X46200000Y-44200000D01*
X47600000Y-44400000D02*
X47600000Y-44200000D01*
X47600000Y-44400000D02*
X48400000Y-44400000D01*
X47600000Y-47100000D02*
X47600000Y-47300000D01*
X48400000Y-44400000D02*
X48400000Y-44200000D01*
X48400000Y-47100000D02*
X47600000Y-47100000D01*
X48400000Y-47300000D02*
X48400000Y-47100000D01*
X49800000Y-44200000D02*
X49800000Y-47300000D01*
X46200000Y-44200000D02*
G75*
G02*
X47600000Y-44200000I700000J-25056D01*
G01*
X47600000Y-47300000D02*
G75*
G02*
X46200000Y-47300000I-700000J25056D01*
G01*
X48400000Y-44200000D02*
G75*
G02*
X49800000Y-44200000I700000J-25056D01*
G01*
X49800000Y-47300000D02*
G75*
G02*
X48400000Y-47300000I-700000J25056D01*
G01*
X122200000Y-66300000D02*
X122200000Y-63200000D01*
X123600000Y-63200000D02*
X123600000Y-63400000D01*
X123600000Y-63400000D02*
X124400000Y-63400000D01*
X123600000Y-66100000D02*
X123600000Y-66300000D01*
X124400000Y-63400000D02*
X124400000Y-63200000D01*
X124400000Y-66100000D02*
X123600000Y-66100000D01*
X124400000Y-66100000D02*
X124400000Y-66300000D01*
X125800000Y-63200000D02*
X125800000Y-66300000D01*
X122200000Y-63200000D02*
G75*
G02*
X123600000Y-63200000I700000J-25056D01*
G01*
X123600000Y-66300000D02*
G75*
G02*
X122200000Y-66300000I-700000J25056D01*
G01*
X124400000Y-63200000D02*
G75*
G02*
X125800000Y-63200000I700000J-25056D01*
G01*
X125800000Y-66300000D02*
G75*
G02*
X124400000Y-66300000I-700000J25056D01*
G01*
X84200000Y-85300000D02*
X84200000Y-82200000D01*
X85600000Y-82400000D02*
X85600000Y-82200000D01*
X85600000Y-82400000D02*
X86400000Y-82400000D01*
X85600000Y-85100000D02*
X85600000Y-85300000D01*
X86400000Y-82400000D02*
X86400000Y-82200000D01*
X86400000Y-85100000D02*
X85600000Y-85100000D01*
X86400000Y-85300000D02*
X86400000Y-85100000D01*
X87800000Y-82200000D02*
X87800000Y-85300000D01*
X84200000Y-82200000D02*
G75*
G02*
X85600000Y-82200000I700000J-25056D01*
G01*
X85600000Y-85300000D02*
G75*
G02*
X84200000Y-85300000I-700000J25056D01*
G01*
X86400000Y-82200000D02*
G75*
G02*
X87800000Y-82200000I700000J-25056D01*
G01*
X87800000Y-85300000D02*
G75*
G02*
X86400000Y-85300000I-700000J25056D01*
G01*
X65200000Y-66300000D02*
X65200000Y-63200000D01*
X66600000Y-63200000D02*
X66600000Y-63400000D01*
X66600000Y-63400000D02*
X67400000Y-63400000D01*
X66600000Y-66100000D02*
X66600000Y-66300000D01*
X67400000Y-63400000D02*
X67400000Y-63200000D01*
X67400000Y-66100000D02*
X66600000Y-66100000D01*
X67400000Y-66100000D02*
X67400000Y-66300000D01*
X68800000Y-63200000D02*
X68800000Y-66300000D01*
X65200000Y-63200000D02*
G75*
G02*
X66600000Y-63200000I700000J-25056D01*
G01*
X66600000Y-66300000D02*
G75*
G02*
X65200000Y-66300000I-700000J25056D01*
G01*
X67400000Y-63200000D02*
G75*
G02*
X68800000Y-63200000I700000J-25056D01*
G01*
X68800000Y-66300000D02*
G75*
G02*
X67400000Y-66300000I-700000J25056D01*
G01*
X46200000Y-66300000D02*
X46200000Y-63200000D01*
X47600000Y-63200000D02*
X47600000Y-63400000D01*
X47600000Y-63400000D02*
X48400000Y-63400000D01*
X47600000Y-66100000D02*
X47600000Y-66300000D01*
X48400000Y-63400000D02*
X48400000Y-63200000D01*
X48400000Y-66100000D02*
X47600000Y-66100000D01*
X48400000Y-66100000D02*
X48400000Y-66300000D01*
X49800000Y-63200000D02*
X49800000Y-66300000D01*
X46200000Y-63200000D02*
G75*
G02*
X47600000Y-63200000I700000J-25056D01*
G01*
X47600000Y-66300000D02*
G75*
G02*
X46200000Y-66300000I-700000J25056D01*
G01*
X48400000Y-63200000D02*
G75*
G02*
X49800000Y-63200000I700000J-25056D01*
G01*
X49800000Y-66300000D02*
G75*
G02*
X48400000Y-66300000I-700000J25056D01*
G01*
X84200000Y-47300000D02*
X84200000Y-44200000D01*
X85600000Y-44400000D02*
X85600000Y-44200000D01*
X85600000Y-44400000D02*
X86400000Y-44400000D01*
X85600000Y-47100000D02*
X85600000Y-47300000D01*
X86400000Y-44400000D02*
X86400000Y-44200000D01*
X86400000Y-47100000D02*
X85600000Y-47100000D01*
X86400000Y-47300000D02*
X86400000Y-47100000D01*
X87800000Y-44200000D02*
X87800000Y-47300000D01*
X84200000Y-44200000D02*
G75*
G02*
X85600000Y-44200000I700000J-25056D01*
G01*
X85600000Y-47300000D02*
G75*
G02*
X84200000Y-47300000I-700000J25056D01*
G01*
X86400000Y-44200000D02*
G75*
G02*
X87800000Y-44200000I700000J-25056D01*
G01*
X87800000Y-47300000D02*
G75*
G02*
X86400000Y-47300000I-700000J25056D01*
G01*
X122200000Y-85300000D02*
X122200000Y-82200000D01*
X123600000Y-82400000D02*
X123600000Y-82200000D01*
X123600000Y-82400000D02*
X124400000Y-82400000D01*
X123600000Y-85100000D02*
X123600000Y-85300000D01*
X124400000Y-82400000D02*
X124400000Y-82200000D01*
X124400000Y-85100000D02*
X123600000Y-85100000D01*
X124400000Y-85300000D02*
X124400000Y-85100000D01*
X125800000Y-82200000D02*
X125800000Y-85300000D01*
X122200000Y-82200000D02*
G75*
G02*
X123600000Y-82200000I700000J-25056D01*
G01*
X123600000Y-85300000D02*
G75*
G02*
X122200000Y-85300000I-700000J25056D01*
G01*
X124400000Y-82200000D02*
G75*
G02*
X125800000Y-82200000I700000J-25056D01*
G01*
X125800000Y-85300000D02*
G75*
G02*
X124400000Y-85300000I-700000J25056D01*
G01*
X84200000Y-66300000D02*
X84200000Y-63200000D01*
X85600000Y-63200000D02*
X85600000Y-63400000D01*
X85600000Y-63400000D02*
X86400000Y-63400000D01*
X85600000Y-66100000D02*
X85600000Y-66300000D01*
X86400000Y-63400000D02*
X86400000Y-63200000D01*
X86400000Y-66100000D02*
X85600000Y-66100000D01*
X86400000Y-66100000D02*
X86400000Y-66300000D01*
X87800000Y-63200000D02*
X87800000Y-66300000D01*
X84200000Y-63200000D02*
G75*
G02*
X85600000Y-63200000I700000J-25056D01*
G01*
X85600000Y-66300000D02*
G75*
G02*
X84200000Y-66300000I-700000J25056D01*
G01*
X86400000Y-63200000D02*
G75*
G02*
X87800000Y-63200000I700000J-25056D01*
G01*
X87800000Y-66300000D02*
G75*
G02*
X86400000Y-66300000I-700000J25056D01*
G01*
X121950000Y-51550000D02*
X121950000Y-48450000D01*
X123350000Y-48650000D02*
X123350000Y-48450000D01*
X123350000Y-48650000D02*
X124150000Y-48650000D01*
X123350000Y-51350000D02*
X123350000Y-51550000D01*
X124150000Y-48650000D02*
X124150000Y-48450000D01*
X124150000Y-51350000D02*
X123350000Y-51350000D01*
X124150000Y-51550000D02*
X124150000Y-51350000D01*
X125550000Y-48450000D02*
X125550000Y-51550000D01*
X121950000Y-48450000D02*
G75*
G02*
X123350000Y-48450000I700000J-25056D01*
G01*
X123350000Y-51550000D02*
G75*
G02*
X121950000Y-51550000I-700000J25056D01*
G01*
X124150000Y-48450000D02*
G75*
G02*
X125550000Y-48450000I700000J-25056D01*
G01*
X125550000Y-51550000D02*
G75*
G02*
X124150000Y-51550000I-700000J25056D01*
G01*
X65200000Y-123300000D02*
X65200000Y-120200000D01*
X66600000Y-120400000D02*
X66600000Y-120200000D01*
X66600000Y-120400000D02*
X67400000Y-120400000D01*
X66600000Y-123100000D02*
X66600000Y-123300000D01*
X67400000Y-120400000D02*
X67400000Y-120200000D01*
X67400000Y-123100000D02*
X66600000Y-123100000D01*
X67400000Y-123300000D02*
X67400000Y-123100000D01*
X68800000Y-120200000D02*
X68800000Y-123300000D01*
X65200000Y-120200000D02*
G75*
G02*
X66600000Y-120200000I700000J-25056D01*
G01*
X66600000Y-123300000D02*
G75*
G02*
X65200000Y-123300000I-700000J25056D01*
G01*
X67400000Y-120200000D02*
G75*
G02*
X68800000Y-120200000I700000J-25056D01*
G01*
X68800000Y-123300000D02*
G75*
G02*
X67400000Y-123300000I-700000J25056D01*
G01*
X46200000Y-85300000D02*
X46200000Y-82200000D01*
X47600000Y-82400000D02*
X47600000Y-82200000D01*
X47600000Y-82400000D02*
X48400000Y-82400000D01*
X47600000Y-85100000D02*
X47600000Y-85300000D01*
X48400000Y-82400000D02*
X48400000Y-82200000D01*
X48400000Y-85100000D02*
X47600000Y-85100000D01*
X48400000Y-85300000D02*
X48400000Y-85100000D01*
X49800000Y-82200000D02*
X49800000Y-85300000D01*
X46200000Y-82200000D02*
G75*
G02*
X47600000Y-82200000I700000J-25056D01*
G01*
X47600000Y-85300000D02*
G75*
G02*
X46200000Y-85300000I-700000J25056D01*
G01*
X48400000Y-82200000D02*
G75*
G02*
X49800000Y-82200000I700000J-25056D01*
G01*
X49800000Y-85300000D02*
G75*
G02*
X48400000Y-85300000I-700000J25056D01*
G01*
M02*
