G04 #@! TF.GenerationSoftware,KiCad,Pcbnew,9.0.5*
G04 #@! TF.CreationDate,2025-10-12T17:23:04+02:00*
G04 #@! TF.ProjectId,b1,62312e6b-6963-4616-945f-706362585858,rev?*
G04 #@! TF.SameCoordinates,Original*
G04 #@! TF.FileFunction,Profile,NP*
%FSLAX46Y46*%
G04 Gerber Fmt 4.6, Leading zero omitted, Abs format (unit mm)*
G04 Created by KiCad (PCBNEW 9.0.5) date 2025-10-12 17:23:04*
%MOMM*%
%LPD*%
G01*
G04 APERTURE LIST*
G04 #@! TA.AperFunction,Profile*
%ADD10C,0.100000*%
G04 #@! TD*
G04 #@! TA.AperFunction,Profile*
%ADD11C,0.120000*%
G04 #@! TD*
G04 APERTURE END LIST*
D10*
X36000000Y-138000000D02*
X36000000Y-38000000D01*
X136000000Y-138000000D02*
X36000000Y-138000000D01*
X36000000Y-38000000D02*
X136000000Y-38000000D01*
X36000000Y-138000000D02*
X36000000Y-38000000D01*
X136000000Y-138000000D02*
X36000000Y-138000000D01*
X36000000Y-38000000D02*
X136000000Y-38000000D01*
X136000000Y-38000000D02*
X136000000Y-138000000D01*
X136000000Y-38000000D02*
X136000000Y-138000000D01*
D11*
X103200000Y-85300000D02*
X103200000Y-82200000D01*
X104600000Y-82400000D02*
X104600000Y-82200000D01*
X104600000Y-82400000D02*
X105400000Y-82400000D01*
X104600000Y-85100000D02*
X104600000Y-85300000D01*
X105400000Y-82400000D02*
X105400000Y-82200000D01*
X105400000Y-85100000D02*
X104600000Y-85100000D01*
X105400000Y-85300000D02*
X105400000Y-85100000D01*
X106800000Y-82200000D02*
X106800000Y-85300000D01*
X103200000Y-82200000D02*
G75*
G02*
X104600000Y-82200000I700000J-25056D01*
G01*
X104600000Y-85300000D02*
G75*
G02*
X103200000Y-85300000I-700000J25056D01*
G01*
X105400000Y-82200000D02*
G75*
G02*
X106800000Y-82200000I700000J-25056D01*
G01*
X106800000Y-85300000D02*
G75*
G02*
X105400000Y-85300000I-700000J25056D01*
G01*
X122200000Y-123300000D02*
X122200000Y-120200000D01*
X123600000Y-120400000D02*
X123600000Y-120200000D01*
X123600000Y-120400000D02*
X124400000Y-120400000D01*
X123600000Y-123100000D02*
X123600000Y-123300000D01*
X124400000Y-120400000D02*
X124400000Y-120200000D01*
X124400000Y-123100000D02*
X123600000Y-123100000D01*
X124400000Y-123300000D02*
X124400000Y-123100000D01*
X125800000Y-120200000D02*
X125800000Y-123300000D01*
X122200000Y-120200000D02*
G75*
G02*
X123600000Y-120200000I700000J-25056D01*
G01*
X123600000Y-123300000D02*
G75*
G02*
X122200000Y-123300000I-700000J25056D01*
G01*
X124400000Y-120200000D02*
G75*
G02*
X125800000Y-120200000I700000J-25056D01*
G01*
X125800000Y-123300000D02*
G75*
G02*
X124400000Y-123300000I-700000J25056D01*
G01*
X84200000Y-123300000D02*
X84200000Y-120200000D01*
X85600000Y-120400000D02*
X85600000Y-120200000D01*
X85600000Y-120400000D02*
X86400000Y-120400000D01*
X85600000Y-123100000D02*
X85600000Y-123300000D01*
X86400000Y-120400000D02*
X86400000Y-120200000D01*
X86400000Y-123100000D02*
X85600000Y-123100000D01*
X86400000Y-123300000D02*
X86400000Y-123100000D01*
X87800000Y-120200000D02*
X87800000Y-123300000D01*
X84200000Y-120200000D02*
G75*
G02*
X85600000Y-120200000I700000J-25056D01*
G01*
X85600000Y-123300000D02*
G75*
G02*
X84200000Y-123300000I-700000J25056D01*
G01*
X86400000Y-120200000D02*
G75*
G02*
X87800000Y-120200000I700000J-25056D01*
G01*
X87800000Y-123300000D02*
G75*
G02*
X86400000Y-123300000I-700000J25056D01*
G01*
X122200000Y-104300000D02*
X122200000Y-101200000D01*
X123600000Y-101200000D02*
X123600000Y-101400000D01*
X123600000Y-101400000D02*
X124400000Y-101400000D01*
X123600000Y-104100000D02*
X123600000Y-104300000D01*
X124400000Y-101400000D02*
X124400000Y-101200000D01*
X124400000Y-104100000D02*
X123600000Y-104100000D01*
X124400000Y-104100000D02*
X124400000Y-104300000D01*
X125800000Y-101200000D02*
X125800000Y-104300000D01*
X122200000Y-101200000D02*
G75*
G02*
X123600000Y-101200000I700000J-25056D01*
G01*
X123600000Y-104300000D02*
G75*
G02*
X122200000Y-104300000I-700000J25056D01*
G01*
X124400000Y-101200000D02*
G75*
G02*
X125800000Y-101200000I700000J-25056D01*
G01*
X125800000Y-104300000D02*
G75*
G02*
X124400000Y-104300000I-700000J25056D01*
G01*
X46200000Y-123300000D02*
X46200000Y-120200000D01*
X47600000Y-120400000D02*
X47600000Y-120200000D01*
X47600000Y-120400000D02*
X48400000Y-120400000D01*
X47600000Y-123100000D02*
X47600000Y-123300000D01*
X48400000Y-120400000D02*
X48400000Y-120200000D01*
X48400000Y-123100000D02*
X47600000Y-123100000D01*
X48400000Y-123300000D02*
X48400000Y-123100000D01*
X49800000Y-120200000D02*
X49800000Y-123300000D01*
X46200000Y-120200000D02*
G75*
G02*
X47600000Y-120200000I700000J-25056D01*
G01*
X47600000Y-123300000D02*
G75*
G02*
X46200000Y-123300000I-700000J25056D01*
G01*
X48400000Y-120200000D02*
G75*
G02*
X49800000Y-120200000I700000J-25056D01*
G01*
X49800000Y-123300000D02*
G75*
G02*
X48400000Y-123300000I-700000J25056D01*
G01*
X103200000Y-123300000D02*
X103200000Y-120200000D01*
X104600000Y-120400000D02*
X104600000Y-120200000D01*
X104600000Y-120400000D02*
X105400000Y-120400000D01*
X104600000Y-123100000D02*
X104600000Y-123300000D01*
X105400000Y-120400000D02*
X105400000Y-120200000D01*
X105400000Y-123100000D02*
X104600000Y-123100000D01*
X105400000Y-123300000D02*
X105400000Y-123100000D01*
X106800000Y-120200000D02*
X106800000Y-123300000D01*
X103200000Y-120200000D02*
G75*
G02*
X104600000Y-120200000I700000J-25056D01*
G01*
X104600000Y-123300000D02*
G75*
G02*
X103200000Y-123300000I-700000J25056D01*
G01*
X105400000Y-120200000D02*
G75*
G02*
X106800000Y-120200000I700000J-25056D01*
G01*
X106800000Y-123300000D02*
G75*
G02*
X105400000Y-123300000I-700000J25056D01*
G01*
X103200000Y-66300000D02*
X103200000Y-63200000D01*
X104600000Y-63200000D02*
X104600000Y-63400000D01*
X104600000Y-63400000D02*
X105400000Y-63400000D01*
X104600000Y-66100000D02*
X104600000Y-66300000D01*
X105400000Y-63400000D02*
X105400000Y-63200000D01*
X105400000Y-66100000D02*
X104600000Y-66100000D01*
X105400000Y-66100000D02*
X105400000Y-66300000D01*
X106800000Y-63200000D02*
X106800000Y-66300000D01*
X103200000Y-63200000D02*
G75*
G02*
X104600000Y-63200000I700000J-25056D01*
G01*
X104600000Y-66300000D02*
G75*
G02*
X103200000Y-66300000I-700000J25056D01*
G01*
X105400000Y-63200000D02*
G75*
G02*
X106800000Y-63200000I700000J-25056D01*
G01*
X106800000Y-66300000D02*
G75*
G02*
X105400000Y-66300000I-700000J25056D01*
G01*
X46200000Y-104350000D02*
X46200000Y-101250000D01*
X47600000Y-101250000D02*
X47600000Y-101450000D01*
X47600000Y-101450000D02*
X48400000Y-101450000D01*
X47600000Y-104150000D02*
X47600000Y-104350000D01*
X48400000Y-101450000D02*
X48400000Y-101250000D01*
X48400000Y-104150000D02*
X47600000Y-104150000D01*
X48400000Y-104150000D02*
X48400000Y-104350000D01*
X49800000Y-101250000D02*
X49800000Y-104350000D01*
X46200000Y-101250000D02*
G75*
G02*
X47600000Y-101250000I700000J-25056D01*
G01*
X47600000Y-104350000D02*
G75*
G02*
X46200000Y-104350000I-700000J25056D01*
G01*
X48400000Y-101250000D02*
G75*
G02*
X49800000Y-101250000I700000J-25056D01*
G01*
X49800000Y-104350000D02*
G75*
G02*
X48400000Y-104350000I-700000J25056D01*
G01*
X65200000Y-85300000D02*
X65200000Y-82200000D01*
X66600000Y-82400000D02*
X66600000Y-82200000D01*
X66600000Y-82400000D02*
X67400000Y-82400000D01*
X66600000Y-85100000D02*
X66600000Y-85300000D01*
X67400000Y-82400000D02*
X67400000Y-82200000D01*
X67400000Y-85100000D02*
X66600000Y-85100000D01*
X67400000Y-85300000D02*
X67400000Y-85100000D01*
X68800000Y-82200000D02*
X68800000Y-85300000D01*
X65200000Y-82200000D02*
G75*
G02*
X66600000Y-82200000I700000J-25056D01*
G01*
X66600000Y-85300000D02*
G75*
G02*
X65200000Y-85300000I-700000J25056D01*
G01*
X67400000Y-82200000D02*
G75*
G02*
X68800000Y-82200000I700000J-25056D01*
G01*
X68800000Y-85300000D02*
G75*
G02*
X67400000Y-85300000I-700000J25056D01*
G01*
X65200000Y-47300000D02*
X65200000Y-44200000D01*
X66600000Y-44400000D02*
X66600000Y-44200000D01*
X66600000Y-44400000D02*
X67400000Y-44400000D01*
X66600000Y-47100000D02*
X66600000Y-47300000D01*
X67400000Y-44400000D02*
X67400000Y-44200000D01*
X67400000Y-47100000D02*
X66600000Y-47100000D01*
X67400000Y-47300000D02*
X67400000Y-47100000D01*
X68800000Y-44200000D02*
X68800000Y-47300000D01*
X65200000Y-44200000D02*
G75*
G02*
X66600000Y-44200000I700000J-25056D01*
G01*
X66600000Y-47300000D02*
G75*
G02*
X65200000Y-47300000I-700000J25056D01*
G01*
X67400000Y-44200000D02*
G75*
G02*
X68800000Y-44200000I700000J-25056D01*
G01*
X68800000Y-47300000D02*
G75*
G02*
X67400000Y-47300000I-700000J25056D01*
G01*
X65200000Y-104300000D02*
X65200000Y-101200000D01*
X66600000Y-101200000D02*
X66600000Y-101400000D01*
X66600000Y-101400000D02*
X67400000Y-101400000D01*
X66600000Y-104100000D02*
X66600000Y-104300000D01*
X67400000Y-101400000D02*
X67400000Y-101200000D01*
X67400000Y-104100000D02*
X66600000Y-104100000D01*
X67400000Y-104100000D02*
X67400000Y-104300000D01*
X68800000Y-101200000D02*
X68800000Y-104300000D01*
X65200000Y-101200000D02*
G75*
G02*
X66600000Y-101200000I700000J-25056D01*
G01*
X66600000Y-104300000D02*
G75*
G02*
X65200000Y-104300000I-700000J25056D01*
G01*
X67400000Y-101200000D02*
G75*
G02*
X68800000Y-101200000I700000J-25056D01*
G01*
X68800000Y-104300000D02*
G75*
G02*
X67400000Y-104300000I-700000J25056D01*
G01*
X103200000Y-47300000D02*
X103200000Y-44200000D01*
X104600000Y-44400000D02*
X104600000Y-44200000D01*
X104600000Y-44400000D02*
X105400000Y-44400000D01*
X104600000Y-47100000D02*
X104600000Y-47300000D01*
X105400000Y-44400000D02*
X105400000Y-44200000D01*
X105400000Y-47100000D02*
X104600000Y-47100000D01*
X105400000Y-47300000D02*
X105400000Y-47100000D01*
X106800000Y-44200000D02*
X106800000Y-47300000D01*
X103200000Y-44200000D02*
G75*
G02*
X104600000Y-44200000I700000J-25056D01*
G01*
X104600000Y-47300000D02*
G75*
G02*
X103200000Y-47300000I-700000J25056D01*
G01*
X105400000Y-44200000D02*
G75*
G02*
X106800000Y-44200000I700000J-25056D01*
G01*
X106800000Y-47300000D02*
G75*
G02*
X105400000Y-47300000I-700000J25056D01*
G01*
X84200000Y-104300000D02*
X84200000Y-101200000D01*
X85600000Y-101200000D02*
X85600000Y-101400000D01*
X85600000Y-101400000D02*
X86400000Y-101400000D01*
X85600000Y-104100000D02*
X85600000Y-104300000D01*
X86400000Y-101400000D02*
X86400000Y-101200000D01*
X86400000Y-104100000D02*
X85600000Y-104100000D01*
X86400000Y-104100000D02*
X86400000Y-104300000D01*
X87800000Y-101200000D02*
X87800000Y-104300000D01*
X84200000Y-101200000D02*
G75*
G02*
X85600000Y-101200000I700000J-25056D01*
G01*
X85600000Y-104300000D02*
G75*
G02*
X84200000Y-104300000I-700000J25056D01*
G01*
X86400000Y-101200000D02*
G75*
G02*
X87800000Y-101200000I700000J-25056D01*
G01*
X87800000Y-104300000D02*
G75*
G02*
X86400000Y-104300000I-700000J25056D01*
G01*
X103200000Y-104300000D02*
X103200000Y-101200000D01*
X104600000Y-101200000D02*
X104600000Y-101400000D01*
X104600000Y-101400000D02*
X105400000Y-101400000D01*
X104600000Y-104100000D02*
X104600000Y-104300000D01*
X105400000Y-101400000D02*
X105400000Y-101200000D01*
X105400000Y-104100000D02*
X104600000Y-104100000D01*
X105400000Y-104100000D02*
X105400000Y-104300000D01*
X106800000Y-101200000D02*
X106800000Y-104300000D01*
X103200000Y-101200000D02*
G75*
G02*
X104600000Y-101200000I700000J-25056D01*
G01*
X104600000Y-104300000D02*
G75*
G02*
X103200000Y-104300000I-700000J25056D01*
G01*
X105400000Y-101200000D02*
G75*
G02*
X106800000Y-101200000I700000J-25056D01*
G01*
X106800000Y-104300000D02*
G75*
G02*
X105400000Y-104300000I-700000J25056D01*
G01*
X46200000Y-47300000D02*
X46200000Y-44200000D01*
X47600000Y-44400000D02*
X47600000Y-44200000D01*
X47600000Y-44400000D02*
X48400000Y-44400000D01*
X47600000Y-47100000D02*
X47600000Y-47300000D01*
X48400000Y-44400000D02*
X48400000Y-44200000D01*
X48400000Y-47100000D02*
X47600000Y-47100000D01*
X48400000Y-47300000D02*
X48400000Y-47100000D01*
X49800000Y-44200000D02*
X49800000Y-47300000D01*
X46200000Y-44200000D02*
G75*
G02*
X47600000Y-44200000I700000J-25056D01*
G01*
X47600000Y-47300000D02*
G75*
G02*
X46200000Y-47300000I-700000J25056D01*
G01*
X48400000Y-44200000D02*
G75*
G02*
X49800000Y-44200000I700000J-25056D01*
G01*
X49800000Y-47300000D02*
G75*
G02*
X48400000Y-47300000I-700000J25056D01*
G01*
X122200000Y-66300000D02*
X122200000Y-63200000D01*
X123600000Y-63200000D02*
X123600000Y-63400000D01*
X123600000Y-63400000D02*
X124400000Y-63400000D01*
X123600000Y-66100000D02*
X123600000Y-66300000D01*
X124400000Y-63400000D02*
X124400000Y-63200000D01*
X124400000Y-66100000D02*
X123600000Y-66100000D01*
X124400000Y-66100000D02*
X124400000Y-66300000D01*
X125800000Y-63200000D02*
X125800000Y-66300000D01*
X122200000Y-63200000D02*
G75*
G02*
X123600000Y-63200000I700000J-25056D01*
G01*
X123600000Y-66300000D02*
G75*
G02*
X122200000Y-66300000I-700000J25056D01*
G01*
X124400000Y-63200000D02*
G75*
G02*
X125800000Y-63200000I700000J-25056D01*
G01*
X125800000Y-66300000D02*
G75*
G02*
X124400000Y-66300000I-700000J25056D01*
G01*
X84200000Y-85300000D02*
X84200000Y-82200000D01*
X85600000Y-82400000D02*
X85600000Y-82200000D01*
X85600000Y-82400000D02*
X86400000Y-82400000D01*
X85600000Y-85100000D02*
X85600000Y-85300000D01*
X86400000Y-82400000D02*
X86400000Y-82200000D01*
X86400000Y-85100000D02*
X85600000Y-85100000D01*
X86400000Y-85300000D02*
X86400000Y-85100000D01*
X87800000Y-82200000D02*
X87800000Y-85300000D01*
X84200000Y-82200000D02*
G75*
G02*
X85600000Y-82200000I700000J-25056D01*
G01*
X85600000Y-85300000D02*
G75*
G02*
X84200000Y-85300000I-700000J25056D01*
G01*
X86400000Y-82200000D02*
G75*
G02*
X87800000Y-82200000I700000J-25056D01*
G01*
X87800000Y-85300000D02*
G75*
G02*
X86400000Y-85300000I-700000J25056D01*
G01*
X65200000Y-66300000D02*
X65200000Y-63200000D01*
X66600000Y-63200000D02*
X66600000Y-63400000D01*
X66600000Y-63400000D02*
X67400000Y-63400000D01*
X66600000Y-66100000D02*
X66600000Y-66300000D01*
X67400000Y-63400000D02*
X67400000Y-63200000D01*
X67400000Y-66100000D02*
X66600000Y-66100000D01*
X67400000Y-66100000D02*
X67400000Y-66300000D01*
X68800000Y-63200000D02*
X68800000Y-66300000D01*
X65200000Y-63200000D02*
G75*
G02*
X66600000Y-63200000I700000J-25056D01*
G01*
X66600000Y-66300000D02*
G75*
G02*
X65200000Y-66300000I-700000J25056D01*
G01*
X67400000Y-63200000D02*
G75*
G02*
X68800000Y-63200000I700000J-25056D01*
G01*
X68800000Y-66300000D02*
G75*
G02*
X67400000Y-66300000I-700000J25056D01*
G01*
X46200000Y-66300000D02*
X46200000Y-63200000D01*
X47600000Y-63200000D02*
X47600000Y-63400000D01*
X47600000Y-63400000D02*
X48400000Y-63400000D01*
X47600000Y-66100000D02*
X47600000Y-66300000D01*
X48400000Y-63400000D02*
X48400000Y-63200000D01*
X48400000Y-66100000D02*
X47600000Y-66100000D01*
X48400000Y-66100000D02*
X48400000Y-66300000D01*
X49800000Y-63200000D02*
X49800000Y-66300000D01*
X46200000Y-63200000D02*
G75*
G02*
X47600000Y-63200000I700000J-25056D01*
G01*
X47600000Y-66300000D02*
G75*
G02*
X46200000Y-66300000I-700000J25056D01*
G01*
X48400000Y-63200000D02*
G75*
G02*
X49800000Y-63200000I700000J-25056D01*
G01*
X49800000Y-66300000D02*
G75*
G02*
X48400000Y-66300000I-700000J25056D01*
G01*
X84200000Y-47300000D02*
X84200000Y-44200000D01*
X85600000Y-44400000D02*
X85600000Y-44200000D01*
X85600000Y-44400000D02*
X86400000Y-44400000D01*
X85600000Y-47100000D02*
X85600000Y-47300000D01*
X86400000Y-44400000D02*
X86400000Y-44200000D01*
X86400000Y-47100000D02*
X85600000Y-47100000D01*
X86400000Y-47300000D02*
X86400000Y-47100000D01*
X87800000Y-44200000D02*
X87800000Y-47300000D01*
X84200000Y-44200000D02*
G75*
G02*
X85600000Y-44200000I700000J-25056D01*
G01*
X85600000Y-47300000D02*
G75*
G02*
X84200000Y-47300000I-700000J25056D01*
G01*
X86400000Y-44200000D02*
G75*
G02*
X87800000Y-44200000I700000J-25056D01*
G01*
X87800000Y-47300000D02*
G75*
G02*
X86400000Y-47300000I-700000J25056D01*
G01*
X122200000Y-85300000D02*
X122200000Y-82200000D01*
X123600000Y-82400000D02*
X123600000Y-82200000D01*
X123600000Y-82400000D02*
X124400000Y-82400000D01*
X123600000Y-85100000D02*
X123600000Y-85300000D01*
X124400000Y-82400000D02*
X124400000Y-82200000D01*
X124400000Y-85100000D02*
X123600000Y-85100000D01*
X124400000Y-85300000D02*
X124400000Y-85100000D01*
X125800000Y-82200000D02*
X125800000Y-85300000D01*
X122200000Y-82200000D02*
G75*
G02*
X123600000Y-82200000I700000J-25056D01*
G01*
X123600000Y-85300000D02*
G75*
G02*
X122200000Y-85300000I-700000J25056D01*
G01*
X124400000Y-82200000D02*
G75*
G02*
X125800000Y-82200000I700000J-25056D01*
G01*
X125800000Y-85300000D02*
G75*
G02*
X124400000Y-85300000I-700000J25056D01*
G01*
X84200000Y-66300000D02*
X84200000Y-63200000D01*
X85600000Y-63200000D02*
X85600000Y-63400000D01*
X85600000Y-63400000D02*
X86400000Y-63400000D01*
X85600000Y-66100000D02*
X85600000Y-66300000D01*
X86400000Y-63400000D02*
X86400000Y-63200000D01*
X86400000Y-66100000D02*
X85600000Y-66100000D01*
X86400000Y-66100000D02*
X86400000Y-66300000D01*
X87800000Y-63200000D02*
X87800000Y-66300000D01*
X84200000Y-63200000D02*
G75*
G02*
X85600000Y-63200000I700000J-25056D01*
G01*
X85600000Y-66300000D02*
G75*
G02*
X84200000Y-66300000I-700000J25056D01*
G01*
X86400000Y-63200000D02*
G75*
G02*
X87800000Y-63200000I700000J-25056D01*
G01*
X87800000Y-66300000D02*
G75*
G02*
X86400000Y-66300000I-700000J25056D01*
G01*
X121950000Y-51550000D02*
X121950000Y-48450000D01*
X123350000Y-48650000D02*
X123350000Y-48450000D01*
X123350000Y-48650000D02*
X124150000Y-48650000D01*
X123350000Y-51350000D02*
X123350000Y-51550000D01*
X124150000Y-48650000D02*
X124150000Y-48450000D01*
X124150000Y-51350000D02*
X123350000Y-51350000D01*
X124150000Y-51550000D02*
X124150000Y-51350000D01*
X125550000Y-48450000D02*
X125550000Y-51550000D01*
X121950000Y-48450000D02*
G75*
G02*
X123350000Y-48450000I700000J-25056D01*
G01*
X123350000Y-51550000D02*
G75*
G02*
X121950000Y-51550000I-700000J25056D01*
G01*
X124150000Y-48450000D02*
G75*
G02*
X125550000Y-48450000I700000J-25056D01*
G01*
X125550000Y-51550000D02*
G75*
G02*
X124150000Y-51550000I-700000J25056D01*
G01*
X65200000Y-123300000D02*
X65200000Y-120200000D01*
X66600000Y-120400000D02*
X66600000Y-120200000D01*
X66600000Y-120400000D02*
X67400000Y-120400000D01*
X66600000Y-123100000D02*
X66600000Y-123300000D01*
X67400000Y-120400000D02*
X67400000Y-120200000D01*
X67400000Y-123100000D02*
X66600000Y-123100000D01*
X67400000Y-123300000D02*
X67400000Y-123100000D01*
X68800000Y-120200000D02*
X68800000Y-123300000D01*
X65200000Y-120200000D02*
G75*
G02*
X66600000Y-120200000I700000J-25056D01*
G01*
X66600000Y-123300000D02*
G75*
G02*
X65200000Y-123300000I-700000J25056D01*
G01*
X67400000Y-120200000D02*
G75*
G02*
X68800000Y-120200000I700000J-25056D01*
G01*
X68800000Y-123300000D02*
G75*
G02*
X67400000Y-123300000I-700000J25056D01*
G01*
X46200000Y-85300000D02*
X46200000Y-82200000D01*
X47600000Y-82400000D02*
X47600000Y-82200000D01*
X47600000Y-82400000D02*
X48400000Y-82400000D01*
X47600000Y-85100000D02*
X47600000Y-85300000D01*
X48400000Y-82400000D02*
X48400000Y-82200000D01*
X48400000Y-85100000D02*
X47600000Y-85100000D01*
X48400000Y-85300000D02*
X48400000Y-85100000D01*
X49800000Y-82200000D02*
X49800000Y-85300000D01*
X46200000Y-82200000D02*
G75*
G02*
X47600000Y-82200000I700000J-25056D01*
G01*
X47600000Y-85300000D02*
G75*
G02*
X46200000Y-85300000I-700000J25056D01*
G01*
X48400000Y-82200000D02*
G75*
G02*
X49800000Y-82200000I700000J-25056D01*
G01*
X49800000Y-85300000D02*
G75*
G02*
X48400000Y-85300000I-700000J25056D01*
G01*
M02*
