G04 #@! TF.GenerationSoftware,KiCad,Pcbnew,9.0.5*
G04 #@! TF.CreationDate,2025-10-12T17:23:04+02:00*
G04 #@! TF.ProjectId,b1,62312e6b-6963-4616-945f-706362585858,rev?*
G04 #@! TF.SameCoordinates,Original*
G04 #@! TF.FileFunction,Legend,Top*
G04 #@! TF.FilePolarity,Positive*
%FSLAX46Y46*%
G04 Gerber Fmt 4.6, Leading zero omitted, Abs format (unit mm)*
G04 Created by KiCad (PCBNEW 9.0.5) date 2025-10-12 17:23:04*
%MOMM*%
%LPD*%
G01*
G04 APERTURE LIST*
G04 Aperture macros list*
%AMRoundRect*
0 Rectangle with rounded corners*
0 $1 Rounding radius*
0 $2 $3 $4 $5 $6 $7 $8 $9 X,Y pos of 4 corners*
0 Add a 4 corners polygon primitive as box body*
4,1,4,$2,$3,$4,$5,$6,$7,$8,$9,$2,$3,0*
0 Add four circle primitives for the rounded corners*
1,1,$1+$1,$2,$3*
1,1,$1+$1,$4,$5*
1,1,$1+$1,$6,$7*
1,1,$1+$1,$8,$9*
0 Add four rect primitives between the rounded corners*
20,1,$1+$1,$2,$3,$4,$5,0*
20,1,$1+$1,$4,$5,$6,$7,0*
20,1,$1+$1,$6,$7,$8,$9,0*
20,1,$1+$1,$8,$9,$2,$3,0*%
G04 Aperture macros list end*
%ADD10C,0.120000*%
%ADD11C,0.250000*%
%ADD12C,1.900000*%
%ADD13C,3.050000*%
%ADD14C,5.050000*%
%ADD15C,3.200000*%
%ADD16RoundRect,0.250000X-0.450000X0.262500X-0.450000X-0.262500X0.450000X-0.262500X0.450000X0.262500X0*%
%ADD17RoundRect,0.250000X0.450000X-0.262500X0.450000X0.262500X-0.450000X0.262500X-0.450000X-0.262500X0*%
%ADD18O,4.000000X2.300000*%
%ADD19C,1.800000*%
%ADD20R,1.700000X1.700000*%
%ADD21O,1.700000X1.700000*%
G04 #@! TA.AperFunction,Profile*
%ADD22C,0.100000*%
G04 #@! TD*
G04 #@! TA.AperFunction,Profile*
%ADD23C,0.120000*%
G04 #@! TD*
G04 APERTURE END LIST*
D10*
X59400000Y-61400000D02*
X59400000Y-76600000D01*
X59400000Y-76600000D02*
X74600000Y-76600000D01*
X74600000Y-61400000D02*
X59400000Y-61400000D01*
X74600000Y-76600000D02*
X74600000Y-61400000D01*
X59400000Y-99400000D02*
X59400000Y-114600000D01*
X59400000Y-114600000D02*
X74600000Y-114600000D01*
X74600000Y-99400000D02*
X59400000Y-99400000D01*
X74600000Y-114600000D02*
X74600000Y-99400000D01*
X97400000Y-61400000D02*
X97400000Y-76600000D01*
X97400000Y-76600000D02*
X112600000Y-76600000D01*
X112600000Y-61400000D02*
X97400000Y-61400000D01*
X112600000Y-76600000D02*
X112600000Y-61400000D01*
X133015000Y-51610436D02*
X133015000Y-52064564D01*
X134485000Y-51610436D02*
X134485000Y-52064564D01*
X78400000Y-118400000D02*
X78400000Y-133600000D01*
X78400000Y-133600000D02*
X93600000Y-133600000D01*
X93600000Y-118400000D02*
X78400000Y-118400000D01*
X93600000Y-133600000D02*
X93600000Y-118400000D01*
X116400000Y-80400000D02*
X116400000Y-95600000D01*
X116400000Y-95600000D02*
X131600000Y-95600000D01*
X131600000Y-80400000D02*
X116400000Y-80400000D01*
X131600000Y-95600000D02*
X131600000Y-80400000D01*
X78400000Y-99400000D02*
X78400000Y-114600000D01*
X78400000Y-114600000D02*
X93600000Y-114600000D01*
X93600000Y-99400000D02*
X78400000Y-99400000D01*
X93600000Y-114600000D02*
X93600000Y-99400000D01*
X133015000Y-48639564D02*
X133015000Y-48185436D01*
X134485000Y-48639564D02*
X134485000Y-48185436D01*
X116400000Y-118400000D02*
X116400000Y-133600000D01*
X116400000Y-133600000D02*
X131600000Y-133600000D01*
X131600000Y-118400000D02*
X116400000Y-118400000D01*
X131600000Y-133600000D02*
X131600000Y-118400000D01*
X97400000Y-118400000D02*
X97400000Y-133600000D01*
X97400000Y-133600000D02*
X112600000Y-133600000D01*
X112600000Y-118400000D02*
X97400000Y-118400000D01*
X112600000Y-133600000D02*
X112600000Y-118400000D01*
X78400000Y-61400000D02*
X78400000Y-76600000D01*
X78400000Y-76600000D02*
X93600000Y-76600000D01*
X93600000Y-61400000D02*
X78400000Y-61400000D01*
X93600000Y-76600000D02*
X93600000Y-61400000D01*
X133015000Y-55827064D02*
X133015000Y-55372936D01*
X134485000Y-55827064D02*
X134485000Y-55372936D01*
X59400000Y-118400000D02*
X59400000Y-133600000D01*
X59400000Y-133600000D02*
X74600000Y-133600000D01*
X74600000Y-118400000D02*
X59400000Y-118400000D01*
X74600000Y-133600000D02*
X74600000Y-118400000D01*
X116400000Y-61400000D02*
X116400000Y-76600000D01*
X116400000Y-76600000D02*
X131600000Y-76600000D01*
X131600000Y-61400000D02*
X116400000Y-61400000D01*
X131600000Y-76600000D02*
X131600000Y-61400000D01*
X130465000Y-55827064D02*
X130465000Y-55372936D01*
X131935000Y-55827064D02*
X131935000Y-55372936D01*
X97400000Y-99400000D02*
X97400000Y-114600000D01*
X97400000Y-114600000D02*
X112600000Y-114600000D01*
X112600000Y-99400000D02*
X97400000Y-99400000D01*
X112600000Y-114600000D02*
X112600000Y-99400000D01*
X59400000Y-42400000D02*
X59400000Y-57600000D01*
X59400000Y-57600000D02*
X74600000Y-57600000D01*
X74600000Y-42400000D02*
X59400000Y-42400000D01*
X74600000Y-57600000D02*
X74600000Y-42400000D01*
D11*
X117750000Y-46930000D02*
X117750000Y-44100000D01*
X117750000Y-52010000D02*
X117750000Y-47990000D01*
X117750000Y-55900000D02*
X117750000Y-53070000D01*
X117750000Y-55900000D02*
X121580000Y-55900000D01*
X117750000Y-55900000D02*
X121580000Y-55900000D01*
X121580000Y-44100000D02*
X117750000Y-44100000D01*
X121720000Y-45210000D02*
X121720000Y-46020000D01*
X121720000Y-54050000D02*
X121720000Y-54790000D01*
X122730000Y-52790000D02*
X122730000Y-47210000D01*
X125780000Y-45210000D02*
X125780000Y-46020000D01*
X125780000Y-54790000D02*
X125780000Y-53810000D01*
X125920000Y-55900000D02*
X129750000Y-55900000D01*
X125920000Y-55900000D02*
X129750000Y-55900000D01*
X129750000Y-44100000D02*
X125920000Y-44100000D01*
X129750000Y-44100000D02*
X129750000Y-55900000D01*
X122735110Y-48217139D02*
G75*
G02*
X122730000Y-51780000I994890J-1782861D01*
G01*
X128080000Y-50000000D02*
G75*
G02*
X119420000Y-50000000I-4330000J0D01*
G01*
X119420000Y-50000000D02*
G75*
G02*
X128080000Y-50000000I4330000J0D01*
G01*
X127100000Y-50000000D02*
G75*
G02*
X120400000Y-50000000I-3350000J0D01*
G01*
X120400000Y-50000000D02*
G75*
G02*
X127100000Y-50000000I3350000J0D01*
G01*
X126800000Y-50000000D02*
G75*
G02*
X120700000Y-50000000I-3050000J0D01*
G01*
X120700000Y-50000000D02*
G75*
G02*
X126800000Y-50000000I3050000J0D01*
G01*
D10*
X59400000Y-80400000D02*
X59400000Y-95600000D01*
X59400000Y-95600000D02*
X74600000Y-95600000D01*
X74600000Y-80400000D02*
X59400000Y-80400000D01*
X74600000Y-95600000D02*
X74600000Y-80400000D01*
X78400000Y-42400000D02*
X78400000Y-57600000D01*
X78400000Y-57600000D02*
X93600000Y-57600000D01*
X93600000Y-42400000D02*
X78400000Y-42400000D01*
X93600000Y-57600000D02*
X93600000Y-42400000D01*
X116400000Y-99400000D02*
X116400000Y-114600000D01*
X116400000Y-114600000D02*
X131600000Y-114600000D01*
X131600000Y-99400000D02*
X116400000Y-99400000D01*
X131600000Y-114600000D02*
X131600000Y-99400000D01*
X40400000Y-99400000D02*
X40400000Y-114600000D01*
X40400000Y-114600000D02*
X55600000Y-114600000D01*
X55600000Y-99400000D02*
X40400000Y-99400000D01*
X55600000Y-114600000D02*
X55600000Y-99400000D01*
X40400000Y-42400000D02*
X40400000Y-57600000D01*
X40400000Y-57600000D02*
X55600000Y-57600000D01*
X55600000Y-42400000D02*
X40400000Y-42400000D01*
X55600000Y-57600000D02*
X55600000Y-42400000D01*
X97400000Y-80400000D02*
X97400000Y-95600000D01*
X97400000Y-95600000D02*
X112600000Y-95600000D01*
X112600000Y-80400000D02*
X97400000Y-80400000D01*
X112600000Y-95600000D02*
X112600000Y-80400000D01*
X40400000Y-118400000D02*
X40400000Y-133600000D01*
X40400000Y-133600000D02*
X55600000Y-133600000D01*
X55600000Y-118400000D02*
X40400000Y-118400000D01*
X55600000Y-133600000D02*
X55600000Y-118400000D01*
X40400000Y-61400000D02*
X40400000Y-76600000D01*
X40400000Y-76600000D02*
X55600000Y-76600000D01*
X55600000Y-61400000D02*
X40400000Y-61400000D01*
X55600000Y-76600000D02*
X55600000Y-61400000D01*
X40400000Y-80400000D02*
X40400000Y-95600000D01*
X40400000Y-95600000D02*
X55600000Y-95600000D01*
X55600000Y-80400000D02*
X40400000Y-80400000D01*
X55600000Y-95600000D02*
X55600000Y-80400000D01*
X78400000Y-80400000D02*
X78400000Y-95600000D01*
X78400000Y-95600000D02*
X93600000Y-95600000D01*
X93600000Y-80400000D02*
X78400000Y-80400000D01*
X93600000Y-95600000D02*
X93600000Y-80400000D01*
X97400000Y-42400000D02*
X97400000Y-57600000D01*
X97400000Y-57600000D02*
X112600000Y-57600000D01*
X112600000Y-42400000D02*
X97400000Y-42400000D01*
X112600000Y-57600000D02*
X112600000Y-42400000D01*
%LPC*%
D12*
X72500000Y-69000000D03*
D13*
X67000000Y-74900000D03*
D14*
X67000000Y-69000000D03*
D13*
X62000000Y-72800000D03*
D12*
X61500000Y-69000000D03*
D15*
X39500000Y-41500000D03*
D12*
X72500000Y-107000000D03*
D13*
X67000000Y-112900000D03*
D14*
X67000000Y-107000000D03*
D13*
X62000000Y-110800000D03*
D12*
X61500000Y-107000000D03*
D15*
X39500000Y-134500000D03*
D12*
X110500000Y-69000000D03*
D13*
X105000000Y-74900000D03*
D14*
X105000000Y-69000000D03*
D13*
X100000000Y-72800000D03*
D12*
X99500000Y-69000000D03*
D16*
X133750000Y-50925000D03*
X133750000Y-52750000D03*
D12*
X91500000Y-126000000D03*
D13*
X86000000Y-131900000D03*
D14*
X86000000Y-126000000D03*
D13*
X81000000Y-129800000D03*
D12*
X80500000Y-126000000D03*
X129500000Y-88000000D03*
D13*
X124000000Y-93900000D03*
D14*
X124000000Y-88000000D03*
D13*
X119000000Y-91800000D03*
D12*
X118500000Y-88000000D03*
D15*
X132500000Y-41500000D03*
D12*
X91500000Y-107000000D03*
D13*
X86000000Y-112900000D03*
D14*
X86000000Y-107000000D03*
D13*
X81000000Y-110800000D03*
D12*
X80500000Y-107000000D03*
D17*
X133750000Y-49325000D03*
X133750000Y-47500000D03*
D12*
X129500000Y-126000000D03*
D13*
X124000000Y-131900000D03*
D14*
X124000000Y-126000000D03*
D13*
X119000000Y-129800000D03*
D12*
X118500000Y-126000000D03*
X110500000Y-126000000D03*
D13*
X105000000Y-131900000D03*
D14*
X105000000Y-126000000D03*
D13*
X100000000Y-129800000D03*
D12*
X99500000Y-126000000D03*
X91500000Y-69000000D03*
D13*
X86000000Y-74900000D03*
D14*
X86000000Y-69000000D03*
D13*
X81000000Y-72800000D03*
D12*
X80500000Y-69000000D03*
D17*
X133750000Y-56512500D03*
X133750000Y-54687500D03*
D15*
X132500000Y-134500000D03*
D12*
X72500000Y-126000000D03*
D13*
X67000000Y-131900000D03*
D14*
X67000000Y-126000000D03*
D13*
X62000000Y-129800000D03*
D12*
X61500000Y-126000000D03*
X129500000Y-69000000D03*
D13*
X124000000Y-74900000D03*
D14*
X124000000Y-69000000D03*
D13*
X119000000Y-72800000D03*
D12*
X118500000Y-69000000D03*
D17*
X131200000Y-56512500D03*
X131200000Y-54687500D03*
D12*
X110500000Y-107000000D03*
D13*
X105000000Y-112900000D03*
D14*
X105000000Y-107000000D03*
D13*
X100000000Y-110800000D03*
D12*
X99500000Y-107000000D03*
X72500000Y-50000000D03*
D13*
X67000000Y-55900000D03*
D14*
X67000000Y-50000000D03*
D13*
X62000000Y-53800000D03*
D12*
X61500000Y-50000000D03*
D18*
X123750000Y-44500000D03*
X123750000Y-55500000D03*
D19*
X131250000Y-52540000D03*
X131250000Y-47460000D03*
X131250000Y-50000000D03*
X116750000Y-52540000D03*
X116750000Y-47460000D03*
D12*
X72500000Y-88000000D03*
D13*
X67000000Y-93900000D03*
D14*
X67000000Y-88000000D03*
D13*
X62000000Y-91800000D03*
D12*
X61500000Y-88000000D03*
X91500000Y-50000000D03*
D13*
X86000000Y-55900000D03*
D14*
X86000000Y-50000000D03*
D13*
X81000000Y-53800000D03*
D12*
X80500000Y-50000000D03*
X129500000Y-107000000D03*
D13*
X124000000Y-112900000D03*
D14*
X124000000Y-107000000D03*
D13*
X119000000Y-110800000D03*
D12*
X118500000Y-107000000D03*
X53500000Y-107000000D03*
D13*
X48000000Y-112900000D03*
D14*
X48000000Y-107000000D03*
D13*
X43000000Y-110800000D03*
D12*
X42500000Y-107000000D03*
X53500000Y-50000000D03*
D13*
X48000000Y-55900000D03*
D14*
X48000000Y-50000000D03*
D13*
X43000000Y-53800000D03*
D12*
X42500000Y-50000000D03*
X110500000Y-88000000D03*
D13*
X105000000Y-93900000D03*
D14*
X105000000Y-88000000D03*
D13*
X100000000Y-91800000D03*
D12*
X99500000Y-88000000D03*
X53500000Y-126000000D03*
D13*
X48000000Y-131900000D03*
D14*
X48000000Y-126000000D03*
D13*
X43000000Y-129800000D03*
D12*
X42500000Y-126000000D03*
X53500000Y-69000000D03*
D13*
X48000000Y-74900000D03*
D14*
X48000000Y-69000000D03*
D13*
X43000000Y-72800000D03*
D12*
X42500000Y-69000000D03*
X53500000Y-88000000D03*
D13*
X48000000Y-93900000D03*
D14*
X48000000Y-88000000D03*
D13*
X43000000Y-91800000D03*
D12*
X42500000Y-88000000D03*
X91500000Y-88000000D03*
D13*
X86000000Y-93900000D03*
D14*
X86000000Y-88000000D03*
D13*
X81000000Y-91800000D03*
D12*
X80500000Y-88000000D03*
X110500000Y-50000000D03*
D13*
X105000000Y-55900000D03*
D14*
X105000000Y-50000000D03*
D13*
X100000000Y-53800000D03*
D12*
X99500000Y-50000000D03*
D20*
X38000000Y-66460000D03*
D21*
X38000000Y-69000000D03*
X38000000Y-71540000D03*
D20*
X102420000Y-136000000D03*
D21*
X104960000Y-136000000D03*
X107500000Y-136000000D03*
D20*
X64460000Y-136000000D03*
D21*
X67000000Y-136000000D03*
X69540000Y-136000000D03*
D20*
X134000000Y-66475000D03*
D21*
X134000000Y-69015000D03*
X134000000Y-71555000D03*
D20*
X64475000Y-40025000D03*
D21*
X67015000Y-40025000D03*
X69555000Y-40025000D03*
D20*
X37975000Y-104475000D03*
D21*
X37975000Y-107015000D03*
X37975000Y-109555000D03*
D20*
X102460000Y-40000000D03*
D21*
X105000000Y-40000000D03*
X107540000Y-40000000D03*
%LPD*%
D22*
X36000000Y-138000000D02*
X36000000Y-38000000D01*
X136000000Y-138000000D02*
X36000000Y-138000000D01*
X36000000Y-38000000D02*
X136000000Y-38000000D01*
X36000000Y-138000000D02*
X36000000Y-38000000D01*
X136000000Y-138000000D02*
X36000000Y-138000000D01*
X36000000Y-38000000D02*
X136000000Y-38000000D01*
X136000000Y-38000000D02*
X136000000Y-138000000D01*
X136000000Y-38000000D02*
X136000000Y-138000000D01*
D23*
X103200000Y-85300000D02*
X103200000Y-82200000D01*
X104600000Y-82400000D02*
X104600000Y-82200000D01*
X104600000Y-82400000D02*
X105400000Y-82400000D01*
X104600000Y-85100000D02*
X104600000Y-85300000D01*
X105400000Y-82400000D02*
X105400000Y-82200000D01*
X105400000Y-85100000D02*
X104600000Y-85100000D01*
X105400000Y-85300000D02*
X105400000Y-85100000D01*
X106800000Y-82200000D02*
X106800000Y-85300000D01*
X103200000Y-82200000D02*
G75*
G02*
X104600000Y-82200000I700000J-25056D01*
G01*
X104600000Y-85300000D02*
G75*
G02*
X103200000Y-85300000I-700000J25056D01*
G01*
X105400000Y-82200000D02*
G75*
G02*
X106800000Y-82200000I700000J-25056D01*
G01*
X106800000Y-85300000D02*
G75*
G02*
X105400000Y-85300000I-700000J25056D01*
G01*
X122200000Y-123300000D02*
X122200000Y-120200000D01*
X123600000Y-120400000D02*
X123600000Y-120200000D01*
X123600000Y-120400000D02*
X124400000Y-120400000D01*
X123600000Y-123100000D02*
X123600000Y-123300000D01*
X124400000Y-120400000D02*
X124400000Y-120200000D01*
X124400000Y-123100000D02*
X123600000Y-123100000D01*
X124400000Y-123300000D02*
X124400000Y-123100000D01*
X125800000Y-120200000D02*
X125800000Y-123300000D01*
X122200000Y-120200000D02*
G75*
G02*
X123600000Y-120200000I700000J-25056D01*
G01*
X123600000Y-123300000D02*
G75*
G02*
X122200000Y-123300000I-700000J25056D01*
G01*
X124400000Y-120200000D02*
G75*
G02*
X125800000Y-120200000I700000J-25056D01*
G01*
X125800000Y-123300000D02*
G75*
G02*
X124400000Y-123300000I-700000J25056D01*
G01*
X84200000Y-123300000D02*
X84200000Y-120200000D01*
X85600000Y-120400000D02*
X85600000Y-120200000D01*
X85600000Y-120400000D02*
X86400000Y-120400000D01*
X85600000Y-123100000D02*
X85600000Y-123300000D01*
X86400000Y-120400000D02*
X86400000Y-120200000D01*
X86400000Y-123100000D02*
X85600000Y-123100000D01*
X86400000Y-123300000D02*
X86400000Y-123100000D01*
X87800000Y-120200000D02*
X87800000Y-123300000D01*
X84200000Y-120200000D02*
G75*
G02*
X85600000Y-120200000I700000J-25056D01*
G01*
X85600000Y-123300000D02*
G75*
G02*
X84200000Y-123300000I-700000J25056D01*
G01*
X86400000Y-120200000D02*
G75*
G02*
X87800000Y-120200000I700000J-25056D01*
G01*
X87800000Y-123300000D02*
G75*
G02*
X86400000Y-123300000I-700000J25056D01*
G01*
X122200000Y-104300000D02*
X122200000Y-101200000D01*
X123600000Y-101200000D02*
X123600000Y-101400000D01*
X123600000Y-101400000D02*
X124400000Y-101400000D01*
X123600000Y-104100000D02*
X123600000Y-104300000D01*
X124400000Y-101400000D02*
X124400000Y-101200000D01*
X124400000Y-104100000D02*
X123600000Y-104100000D01*
X124400000Y-104100000D02*
X124400000Y-104300000D01*
X125800000Y-101200000D02*
X125800000Y-104300000D01*
X122200000Y-101200000D02*
G75*
G02*
X123600000Y-101200000I700000J-25056D01*
G01*
X123600000Y-104300000D02*
G75*
G02*
X122200000Y-104300000I-700000J25056D01*
G01*
X124400000Y-101200000D02*
G75*
G02*
X125800000Y-101200000I700000J-25056D01*
G01*
X125800000Y-104300000D02*
G75*
G02*
X124400000Y-104300000I-700000J25056D01*
G01*
X46200000Y-123300000D02*
X46200000Y-120200000D01*
X47600000Y-120400000D02*
X47600000Y-120200000D01*
X47600000Y-120400000D02*
X48400000Y-120400000D01*
X47600000Y-123100000D02*
X47600000Y-123300000D01*
X48400000Y-120400000D02*
X48400000Y-120200000D01*
X48400000Y-123100000D02*
X47600000Y-123100000D01*
X48400000Y-123300000D02*
X48400000Y-123100000D01*
X49800000Y-120200000D02*
X49800000Y-123300000D01*
X46200000Y-120200000D02*
G75*
G02*
X47600000Y-120200000I700000J-25056D01*
G01*
X47600000Y-123300000D02*
G75*
G02*
X46200000Y-123300000I-700000J25056D01*
G01*
X48400000Y-120200000D02*
G75*
G02*
X49800000Y-120200000I700000J-25056D01*
G01*
X49800000Y-123300000D02*
G75*
G02*
X48400000Y-123300000I-700000J25056D01*
G01*
X103200000Y-123300000D02*
X103200000Y-120200000D01*
X104600000Y-120400000D02*
X104600000Y-120200000D01*
X104600000Y-120400000D02*
X105400000Y-120400000D01*
X104600000Y-123100000D02*
X104600000Y-123300000D01*
X105400000Y-120400000D02*
X105400000Y-120200000D01*
X105400000Y-123100000D02*
X104600000Y-123100000D01*
X105400000Y-123300000D02*
X105400000Y-123100000D01*
X106800000Y-120200000D02*
X106800000Y-123300000D01*
X103200000Y-120200000D02*
G75*
G02*
X104600000Y-120200000I700000J-25056D01*
G01*
X104600000Y-123300000D02*
G75*
G02*
X103200000Y-123300000I-700000J25056D01*
G01*
X105400000Y-120200000D02*
G75*
G02*
X106800000Y-120200000I700000J-25056D01*
G01*
X106800000Y-123300000D02*
G75*
G02*
X105400000Y-123300000I-700000J25056D01*
G01*
X103200000Y-66300000D02*
X103200000Y-63200000D01*
X104600000Y-63200000D02*
X104600000Y-63400000D01*
X104600000Y-63400000D02*
X105400000Y-63400000D01*
X104600000Y-66100000D02*
X104600000Y-66300000D01*
X105400000Y-63400000D02*
X105400000Y-63200000D01*
X105400000Y-66100000D02*
X104600000Y-66100000D01*
X105400000Y-66100000D02*
X105400000Y-66300000D01*
X106800000Y-63200000D02*
X106800000Y-66300000D01*
X103200000Y-63200000D02*
G75*
G02*
X104600000Y-63200000I700000J-25056D01*
G01*
X104600000Y-66300000D02*
G75*
G02*
X103200000Y-66300000I-700000J25056D01*
G01*
X105400000Y-63200000D02*
G75*
G02*
X106800000Y-63200000I700000J-25056D01*
G01*
X106800000Y-66300000D02*
G75*
G02*
X105400000Y-66300000I-700000J25056D01*
G01*
X46200000Y-104350000D02*
X46200000Y-101250000D01*
X47600000Y-101250000D02*
X47600000Y-101450000D01*
X47600000Y-101450000D02*
X48400000Y-101450000D01*
X47600000Y-104150000D02*
X47600000Y-104350000D01*
X48400000Y-101450000D02*
X48400000Y-101250000D01*
X48400000Y-104150000D02*
X47600000Y-104150000D01*
X48400000Y-104150000D02*
X48400000Y-104350000D01*
X49800000Y-101250000D02*
X49800000Y-104350000D01*
X46200000Y-101250000D02*
G75*
G02*
X47600000Y-101250000I700000J-25056D01*
G01*
X47600000Y-104350000D02*
G75*
G02*
X46200000Y-104350000I-700000J25056D01*
G01*
X48400000Y-101250000D02*
G75*
G02*
X49800000Y-101250000I700000J-25056D01*
G01*
X49800000Y-104350000D02*
G75*
G02*
X48400000Y-104350000I-700000J25056D01*
G01*
X65200000Y-85300000D02*
X65200000Y-82200000D01*
X66600000Y-82400000D02*
X66600000Y-82200000D01*
X66600000Y-82400000D02*
X67400000Y-82400000D01*
X66600000Y-85100000D02*
X66600000Y-85300000D01*
X67400000Y-82400000D02*
X67400000Y-82200000D01*
X67400000Y-85100000D02*
X66600000Y-85100000D01*
X67400000Y-85300000D02*
X67400000Y-85100000D01*
X68800000Y-82200000D02*
X68800000Y-85300000D01*
X65200000Y-82200000D02*
G75*
G02*
X66600000Y-82200000I700000J-25056D01*
G01*
X66600000Y-85300000D02*
G75*
G02*
X65200000Y-85300000I-700000J25056D01*
G01*
X67400000Y-82200000D02*
G75*
G02*
X68800000Y-82200000I700000J-25056D01*
G01*
X68800000Y-85300000D02*
G75*
G02*
X67400000Y-85300000I-700000J25056D01*
G01*
X65200000Y-47300000D02*
X65200000Y-44200000D01*
X66600000Y-44400000D02*
X66600000Y-44200000D01*
X66600000Y-44400000D02*
X67400000Y-44400000D01*
X66600000Y-47100000D02*
X66600000Y-47300000D01*
X67400000Y-44400000D02*
X67400000Y-44200000D01*
X67400000Y-47100000D02*
X66600000Y-47100000D01*
X67400000Y-47300000D02*
X67400000Y-47100000D01*
X68800000Y-44200000D02*
X68800000Y-47300000D01*
X65200000Y-44200000D02*
G75*
G02*
X66600000Y-44200000I700000J-25056D01*
G01*
X66600000Y-47300000D02*
G75*
G02*
X65200000Y-47300000I-700000J25056D01*
G01*
X67400000Y-44200000D02*
G75*
G02*
X68800000Y-44200000I700000J-25056D01*
G01*
X68800000Y-47300000D02*
G75*
G02*
X67400000Y-47300000I-700000J25056D01*
G01*
X65200000Y-104300000D02*
X65200000Y-101200000D01*
X66600000Y-101200000D02*
X66600000Y-101400000D01*
X66600000Y-101400000D02*
X67400000Y-101400000D01*
X66600000Y-104100000D02*
X66600000Y-104300000D01*
X67400000Y-101400000D02*
X67400000Y-101200000D01*
X67400000Y-104100000D02*
X66600000Y-104100000D01*
X67400000Y-104100000D02*
X67400000Y-104300000D01*
X68800000Y-101200000D02*
X68800000Y-104300000D01*
X65200000Y-101200000D02*
G75*
G02*
X66600000Y-101200000I700000J-25056D01*
G01*
X66600000Y-104300000D02*
G75*
G02*
X65200000Y-104300000I-700000J25056D01*
G01*
X67400000Y-101200000D02*
G75*
G02*
X68800000Y-101200000I700000J-25056D01*
G01*
X68800000Y-104300000D02*
G75*
G02*
X67400000Y-104300000I-700000J25056D01*
G01*
X103200000Y-47300000D02*
X103200000Y-44200000D01*
X104600000Y-44400000D02*
X104600000Y-44200000D01*
X104600000Y-44400000D02*
X105400000Y-44400000D01*
X104600000Y-47100000D02*
X104600000Y-47300000D01*
X105400000Y-44400000D02*
X105400000Y-44200000D01*
X105400000Y-47100000D02*
X104600000Y-47100000D01*
X105400000Y-47300000D02*
X105400000Y-47100000D01*
X106800000Y-44200000D02*
X106800000Y-47300000D01*
X103200000Y-44200000D02*
G75*
G02*
X104600000Y-44200000I700000J-25056D01*
G01*
X104600000Y-47300000D02*
G75*
G02*
X103200000Y-47300000I-700000J25056D01*
G01*
X105400000Y-44200000D02*
G75*
G02*
X106800000Y-44200000I700000J-25056D01*
G01*
X106800000Y-47300000D02*
G75*
G02*
X105400000Y-47300000I-700000J25056D01*
G01*
X84200000Y-104300000D02*
X84200000Y-101200000D01*
X85600000Y-101200000D02*
X85600000Y-101400000D01*
X85600000Y-101400000D02*
X86400000Y-101400000D01*
X85600000Y-104100000D02*
X85600000Y-104300000D01*
X86400000Y-101400000D02*
X86400000Y-101200000D01*
X86400000Y-104100000D02*
X85600000Y-104100000D01*
X86400000Y-104100000D02*
X86400000Y-104300000D01*
X87800000Y-101200000D02*
X87800000Y-104300000D01*
X84200000Y-101200000D02*
G75*
G02*
X85600000Y-101200000I700000J-25056D01*
G01*
X85600000Y-104300000D02*
G75*
G02*
X84200000Y-104300000I-700000J25056D01*
G01*
X86400000Y-101200000D02*
G75*
G02*
X87800000Y-101200000I700000J-25056D01*
G01*
X87800000Y-104300000D02*
G75*
G02*
X86400000Y-104300000I-700000J25056D01*
G01*
X103200000Y-104300000D02*
X103200000Y-101200000D01*
X104600000Y-101200000D02*
X104600000Y-101400000D01*
X104600000Y-101400000D02*
X105400000Y-101400000D01*
X104600000Y-104100000D02*
X104600000Y-104300000D01*
X105400000Y-101400000D02*
X105400000Y-101200000D01*
X105400000Y-104100000D02*
X104600000Y-104100000D01*
X105400000Y-104100000D02*
X105400000Y-104300000D01*
X106800000Y-101200000D02*
X106800000Y-104300000D01*
X103200000Y-101200000D02*
G75*
G02*
X104600000Y-101200000I700000J-25056D01*
G01*
X104600000Y-104300000D02*
G75*
G02*
X103200000Y-104300000I-700000J25056D01*
G01*
X105400000Y-101200000D02*
G75*
G02*
X106800000Y-101200000I700000J-25056D01*
G01*
X106800000Y-104300000D02*
G75*
G02*
X105400000Y-104300000I-700000J25056D01*
G01*
X46200000Y-47300000D02*
X46200000Y-44200000D01*
X47600000Y-44400000D02*
X47600000Y-44200000D01*
X47600000Y-44400000D02*
X48400000Y-44400000D01*
X47600000Y-47100000D02*
X47600000Y-47300000D01*
X48400000Y-44400000D02*
X48400000Y-44200000D01*
X48400000Y-47100000D02*
X47600000Y-47100000D01*
X48400000Y-47300000D02*
X48400000Y-47100000D01*
X49800000Y-44200000D02*
X49800000Y-47300000D01*
X46200000Y-44200000D02*
G75*
G02*
X47600000Y-44200000I700000J-25056D01*
G01*
X47600000Y-47300000D02*
G75*
G02*
X46200000Y-47300000I-700000J25056D01*
G01*
X48400000Y-44200000D02*
G75*
G02*
X49800000Y-44200000I700000J-25056D01*
G01*
X49800000Y-47300000D02*
G75*
G02*
X48400000Y-47300000I-700000J25056D01*
G01*
X122200000Y-66300000D02*
X122200000Y-63200000D01*
X123600000Y-63200000D02*
X123600000Y-63400000D01*
X123600000Y-63400000D02*
X124400000Y-63400000D01*
X123600000Y-66100000D02*
X123600000Y-66300000D01*
X124400000Y-63400000D02*
X124400000Y-63200000D01*
X124400000Y-66100000D02*
X123600000Y-66100000D01*
X124400000Y-66100000D02*
X124400000Y-66300000D01*
X125800000Y-63200000D02*
X125800000Y-66300000D01*
X122200000Y-63200000D02*
G75*
G02*
X123600000Y-63200000I700000J-25056D01*
G01*
X123600000Y-66300000D02*
G75*
G02*
X122200000Y-66300000I-700000J25056D01*
G01*
X124400000Y-63200000D02*
G75*
G02*
X125800000Y-63200000I700000J-25056D01*
G01*
X125800000Y-66300000D02*
G75*
G02*
X124400000Y-66300000I-700000J25056D01*
G01*
X84200000Y-85300000D02*
X84200000Y-82200000D01*
X85600000Y-82400000D02*
X85600000Y-82200000D01*
X85600000Y-82400000D02*
X86400000Y-82400000D01*
X85600000Y-85100000D02*
X85600000Y-85300000D01*
X86400000Y-82400000D02*
X86400000Y-82200000D01*
X86400000Y-85100000D02*
X85600000Y-85100000D01*
X86400000Y-85300000D02*
X86400000Y-85100000D01*
X87800000Y-82200000D02*
X87800000Y-85300000D01*
X84200000Y-82200000D02*
G75*
G02*
X85600000Y-82200000I700000J-25056D01*
G01*
X85600000Y-85300000D02*
G75*
G02*
X84200000Y-85300000I-700000J25056D01*
G01*
X86400000Y-82200000D02*
G75*
G02*
X87800000Y-82200000I700000J-25056D01*
G01*
X87800000Y-85300000D02*
G75*
G02*
X86400000Y-85300000I-700000J25056D01*
G01*
X65200000Y-66300000D02*
X65200000Y-63200000D01*
X66600000Y-63200000D02*
X66600000Y-63400000D01*
X66600000Y-63400000D02*
X67400000Y-63400000D01*
X66600000Y-66100000D02*
X66600000Y-66300000D01*
X67400000Y-63400000D02*
X67400000Y-63200000D01*
X67400000Y-66100000D02*
X66600000Y-66100000D01*
X67400000Y-66100000D02*
X67400000Y-66300000D01*
X68800000Y-63200000D02*
X68800000Y-66300000D01*
X65200000Y-63200000D02*
G75*
G02*
X66600000Y-63200000I700000J-25056D01*
G01*
X66600000Y-66300000D02*
G75*
G02*
X65200000Y-66300000I-700000J25056D01*
G01*
X67400000Y-63200000D02*
G75*
G02*
X68800000Y-63200000I700000J-25056D01*
G01*
X68800000Y-66300000D02*
G75*
G02*
X67400000Y-66300000I-700000J25056D01*
G01*
X46200000Y-66300000D02*
X46200000Y-63200000D01*
X47600000Y-63200000D02*
X47600000Y-63400000D01*
X47600000Y-63400000D02*
X48400000Y-63400000D01*
X47600000Y-66100000D02*
X47600000Y-66300000D01*
X48400000Y-63400000D02*
X48400000Y-63200000D01*
X48400000Y-66100000D02*
X47600000Y-66100000D01*
X48400000Y-66100000D02*
X48400000Y-66300000D01*
X49800000Y-63200000D02*
X49800000Y-66300000D01*
X46200000Y-63200000D02*
G75*
G02*
X47600000Y-63200000I700000J-25056D01*
G01*
X47600000Y-66300000D02*
G75*
G02*
X46200000Y-66300000I-700000J25056D01*
G01*
X48400000Y-63200000D02*
G75*
G02*
X49800000Y-63200000I700000J-25056D01*
G01*
X49800000Y-66300000D02*
G75*
G02*
X48400000Y-66300000I-700000J25056D01*
G01*
X84200000Y-47300000D02*
X84200000Y-44200000D01*
X85600000Y-44400000D02*
X85600000Y-44200000D01*
X85600000Y-44400000D02*
X86400000Y-44400000D01*
X85600000Y-47100000D02*
X85600000Y-47300000D01*
X86400000Y-44400000D02*
X86400000Y-44200000D01*
X86400000Y-47100000D02*
X85600000Y-47100000D01*
X86400000Y-47300000D02*
X86400000Y-47100000D01*
X87800000Y-44200000D02*
X87800000Y-47300000D01*
X84200000Y-44200000D02*
G75*
G02*
X85600000Y-44200000I700000J-25056D01*
G01*
X85600000Y-47300000D02*
G75*
G02*
X84200000Y-47300000I-700000J25056D01*
G01*
X86400000Y-44200000D02*
G75*
G02*
X87800000Y-44200000I700000J-25056D01*
G01*
X87800000Y-47300000D02*
G75*
G02*
X86400000Y-47300000I-700000J25056D01*
G01*
X122200000Y-85300000D02*
X122200000Y-82200000D01*
X123600000Y-82400000D02*
X123600000Y-82200000D01*
X123600000Y-82400000D02*
X124400000Y-82400000D01*
X123600000Y-85100000D02*
X123600000Y-85300000D01*
X124400000Y-82400000D02*
X124400000Y-82200000D01*
X124400000Y-85100000D02*
X123600000Y-85100000D01*
X124400000Y-85300000D02*
X124400000Y-85100000D01*
X125800000Y-82200000D02*
X125800000Y-85300000D01*
X122200000Y-82200000D02*
G75*
G02*
X123600000Y-82200000I700000J-25056D01*
G01*
X123600000Y-85300000D02*
G75*
G02*
X122200000Y-85300000I-700000J25056D01*
G01*
X124400000Y-82200000D02*
G75*
G02*
X125800000Y-82200000I700000J-25056D01*
G01*
X125800000Y-85300000D02*
G75*
G02*
X124400000Y-85300000I-700000J25056D01*
G01*
X84200000Y-66300000D02*
X84200000Y-63200000D01*
X85600000Y-63200000D02*
X85600000Y-63400000D01*
X85600000Y-63400000D02*
X86400000Y-63400000D01*
X85600000Y-66100000D02*
X85600000Y-66300000D01*
X86400000Y-63400000D02*
X86400000Y-63200000D01*
X86400000Y-66100000D02*
X85600000Y-66100000D01*
X86400000Y-66100000D02*
X86400000Y-66300000D01*
X87800000Y-63200000D02*
X87800000Y-66300000D01*
X84200000Y-63200000D02*
G75*
G02*
X85600000Y-63200000I700000J-25056D01*
G01*
X85600000Y-66300000D02*
G75*
G02*
X84200000Y-66300000I-700000J25056D01*
G01*
X86400000Y-63200000D02*
G75*
G02*
X87800000Y-63200000I700000J-25056D01*
G01*
X87800000Y-66300000D02*
G75*
G02*
X86400000Y-66300000I-700000J25056D01*
G01*
X121950000Y-51550000D02*
X121950000Y-48450000D01*
X123350000Y-48650000D02*
X123350000Y-48450000D01*
X123350000Y-48650000D02*
X124150000Y-48650000D01*
X123350000Y-51350000D02*
X123350000Y-51550000D01*
X124150000Y-48650000D02*
X124150000Y-48450000D01*
X124150000Y-51350000D02*
X123350000Y-51350000D01*
X124150000Y-51550000D02*
X124150000Y-51350000D01*
X125550000Y-48450000D02*
X125550000Y-51550000D01*
X121950000Y-48450000D02*
G75*
G02*
X123350000Y-48450000I700000J-25056D01*
G01*
X123350000Y-51550000D02*
G75*
G02*
X121950000Y-51550000I-700000J25056D01*
G01*
X124150000Y-48450000D02*
G75*
G02*
X125550000Y-48450000I700000J-25056D01*
G01*
X125550000Y-51550000D02*
G75*
G02*
X124150000Y-51550000I-700000J25056D01*
G01*
X65200000Y-123300000D02*
X65200000Y-120200000D01*
X66600000Y-120400000D02*
X66600000Y-120200000D01*
X66600000Y-120400000D02*
X67400000Y-120400000D01*
X66600000Y-123100000D02*
X66600000Y-123300000D01*
X67400000Y-120400000D02*
X67400000Y-120200000D01*
X67400000Y-123100000D02*
X66600000Y-123100000D01*
X67400000Y-123300000D02*
X67400000Y-123100000D01*
X68800000Y-120200000D02*
X68800000Y-123300000D01*
X65200000Y-120200000D02*
G75*
G02*
X66600000Y-120200000I700000J-25056D01*
G01*
X66600000Y-123300000D02*
G75*
G02*
X65200000Y-123300000I-700000J25056D01*
G01*
X67400000Y-120200000D02*
G75*
G02*
X68800000Y-120200000I700000J-25056D01*
G01*
X68800000Y-123300000D02*
G75*
G02*
X67400000Y-123300000I-700000J25056D01*
G01*
X46200000Y-85300000D02*
X46200000Y-82200000D01*
X47600000Y-82400000D02*
X47600000Y-82200000D01*
X47600000Y-82400000D02*
X48400000Y-82400000D01*
X47600000Y-85100000D02*
X47600000Y-85300000D01*
X48400000Y-82400000D02*
X48400000Y-82200000D01*
X48400000Y-85100000D02*
X47600000Y-85100000D01*
X48400000Y-85300000D02*
X48400000Y-85100000D01*
X49800000Y-82200000D02*
X49800000Y-85300000D01*
X46200000Y-82200000D02*
G75*
G02*
X47600000Y-82200000I700000J-25056D01*
G01*
X47600000Y-85300000D02*
G75*
G02*
X46200000Y-85300000I-700000J25056D01*
G01*
X48400000Y-82200000D02*
G75*
G02*
X49800000Y-82200000I700000J-25056D01*
G01*
X49800000Y-85300000D02*
G75*
G02*
X48400000Y-85300000I-700000J25056D01*
G01*
M02*
