G04 #@! TF.GenerationSoftware,KiCad,Pcbnew,9.0.5*
G04 #@! TF.CreationDate,2025-10-12T17:23:04+02:00*
G04 #@! TF.ProjectId,b1,62312e6b-6963-4616-945f-706362585858,rev?*
G04 #@! TF.SameCoordinates,Original*
G04 #@! TF.FileFunction,Copper,L2,Inr*
G04 #@! TF.FilePolarity,Positive*
%FSLAX46Y46*%
G04 Gerber Fmt 4.6, Leading zero omitted, Abs format (unit mm)*
G04 Created by KiCad (PCBNEW 9.0.5) date 2025-10-12 17:23:04*
%MOMM*%
%LPD*%
G01*
G04 APERTURE LIST*
%ADD10C,0.200000*%
G04 #@! TA.AperFunction,NonConductor*
%ADD11C,0.200000*%
G04 #@! TD*
G04 #@! TA.AperFunction,ComponentPad*
%ADD12O,1.700000X1.700000*%
G04 #@! TD*
G04 #@! TA.AperFunction,ComponentPad*
%ADD13R,1.700000X1.700000*%
G04 #@! TD*
G04 #@! TA.AperFunction,ViaPad*
%ADD14C,0.800000*%
G04 #@! TD*
G04 #@! TA.AperFunction,Conductor*
%ADD15C,0.250000*%
G04 #@! TD*
G04 #@! TA.AperFunction,Profile*
%ADD16C,0.100000*%
G04 #@! TD*
G04 #@! TA.AperFunction,Profile*
%ADD17C,0.120000*%
G04 #@! TD*
G04 APERTURE END LIST*
D10*
D11*
X132277457Y-128549828D02*
X132229838Y-128502209D01*
X132229838Y-128502209D02*
X132182219Y-128406971D01*
X132182219Y-128406971D02*
X132182219Y-128168876D01*
X132182219Y-128168876D02*
X132229838Y-128073638D01*
X132229838Y-128073638D02*
X132277457Y-128026019D01*
X132277457Y-128026019D02*
X132372695Y-127978400D01*
X132372695Y-127978400D02*
X132467933Y-127978400D01*
X132467933Y-127978400D02*
X132610790Y-128026019D01*
X132610790Y-128026019D02*
X133182219Y-128597447D01*
X133182219Y-128597447D02*
X133182219Y-127978400D01*
D12*
X38000000Y-69000000D03*
X38000000Y-71540000D03*
X69555000Y-40025000D03*
D13*
X37975000Y-104475000D03*
D12*
X37975000Y-107015000D03*
X37975000Y-109555000D03*
D14*
X50300000Y-58100000D03*
X46000000Y-76800000D03*
X49900000Y-96000000D03*
X45725000Y-114800000D03*
X51500000Y-129900000D03*
X132594607Y-48388319D03*
X131000000Y-122000000D03*
D15*
X49600000Y-58100000D02*
X50300000Y-58100000D01*
X48405025Y-58594974D02*
X38000000Y-69000000D01*
X49600000Y-58100000D02*
G75*
G03*
X48405036Y-58594985I0J-1689900D01*
G01*
X44630000Y-76800000D02*
X46000000Y-76800000D01*
X42291263Y-75831263D02*
X38000000Y-71540000D01*
X42291263Y-75831263D02*
G75*
G03*
X44630000Y-76799992I2338737J2338763D01*
G01*
X37975000Y-102700000D02*
X37975000Y-104475000D01*
X39230114Y-99669885D02*
X41306207Y-97593792D01*
X49900000Y-96000000D02*
X45153963Y-96000000D01*
X39230114Y-99669885D02*
G75*
G03*
X37974991Y-102700000I3030086J-3030115D01*
G01*
X45153963Y-96000000D02*
G75*
G03*
X41306236Y-97593821I37J-5441500D01*
G01*
X39065613Y-108105613D02*
X37975000Y-107015000D01*
X42577988Y-113977988D02*
X40734386Y-112134386D01*
X44562500Y-114800000D02*
X45725000Y-114800000D01*
X42577988Y-113977988D02*
G75*
G03*
X44562500Y-114800007I1984512J1984488D01*
G01*
X39900000Y-110120000D02*
G75*
G03*
X40734380Y-112134392I2848800J0D01*
G01*
X39065613Y-108105613D02*
G75*
G02*
X39899992Y-110120000I-2014413J-2014387D01*
G01*
X51600000Y-121160660D02*
X51600000Y-129729289D01*
X44303974Y-117086055D02*
X38399999Y-111182080D01*
X47958959Y-118600000D02*
X49039339Y-118600000D01*
X37975000Y-110156040D02*
X37975000Y-109555000D01*
X51550000Y-129850000D02*
X51500000Y-129900000D01*
X37975000Y-110156040D02*
G75*
G03*
X38400028Y-111182051I1451000J40D01*
G01*
X44303974Y-117086055D02*
G75*
G03*
X47958959Y-118600037I3655026J3654955D01*
G01*
X50850000Y-119350000D02*
G75*
G03*
X49039339Y-118599984I-1810700J-1810700D01*
G01*
X50850000Y-119350000D02*
G75*
G02*
X51600016Y-121160660I-1810700J-1810700D01*
G01*
X51600000Y-129729289D02*
G75*
G02*
X51550003Y-129850003I-170700J-11D01*
G01*
X70442500Y-40912500D02*
X69555000Y-40025000D01*
X132594607Y-47141463D02*
X132594607Y-48388319D01*
X131712946Y-45012946D02*
X128535355Y-41835355D01*
X126350000Y-41800000D02*
X128450000Y-41800000D01*
X126350000Y-41800000D02*
X122050000Y-41800000D01*
X122050000Y-41800000D02*
X72585114Y-41800000D01*
X128535355Y-41835355D02*
G75*
G03*
X128450000Y-41799997I-85355J-85345D01*
G01*
X131712946Y-45012946D02*
G75*
G02*
X132594624Y-47141463I-2128546J-2128554D01*
G01*
X70442500Y-40912500D02*
G75*
G03*
X72585114Y-41799994I2142600J2142600D01*
G01*
D16*
X36000000Y-138000000D02*
X36000000Y-38000000D01*
X136000000Y-138000000D02*
X36000000Y-138000000D01*
X36000000Y-38000000D02*
X136000000Y-38000000D01*
X36000000Y-138000000D02*
X36000000Y-38000000D01*
X136000000Y-138000000D02*
X36000000Y-138000000D01*
X36000000Y-38000000D02*
X136000000Y-38000000D01*
X136000000Y-38000000D02*
X136000000Y-138000000D01*
X136000000Y-38000000D02*
X136000000Y-138000000D01*
D17*
X103200000Y-85300000D02*
X103200000Y-82200000D01*
X104600000Y-82400000D02*
X104600000Y-82200000D01*
X104600000Y-82400000D02*
X105400000Y-82400000D01*
X104600000Y-85100000D02*
X104600000Y-85300000D01*
X105400000Y-82400000D02*
X105400000Y-82200000D01*
X105400000Y-85100000D02*
X104600000Y-85100000D01*
X105400000Y-85300000D02*
X105400000Y-85100000D01*
X106800000Y-82200000D02*
X106800000Y-85300000D01*
X103200000Y-82200000D02*
G75*
G02*
X104600000Y-82200000I700000J-25056D01*
G01*
X104600000Y-85300000D02*
G75*
G02*
X103200000Y-85300000I-700000J25056D01*
G01*
X105400000Y-82200000D02*
G75*
G02*
X106800000Y-82200000I700000J-25056D01*
G01*
X106800000Y-85300000D02*
G75*
G02*
X105400000Y-85300000I-700000J25056D01*
G01*
X122200000Y-123300000D02*
X122200000Y-120200000D01*
X123600000Y-120400000D02*
X123600000Y-120200000D01*
X123600000Y-120400000D02*
X124400000Y-120400000D01*
X123600000Y-123100000D02*
X123600000Y-123300000D01*
X124400000Y-120400000D02*
X124400000Y-120200000D01*
X124400000Y-123100000D02*
X123600000Y-123100000D01*
X124400000Y-123300000D02*
X124400000Y-123100000D01*
X125800000Y-120200000D02*
X125800000Y-123300000D01*
X122200000Y-120200000D02*
G75*
G02*
X123600000Y-120200000I700000J-25056D01*
G01*
X123600000Y-123300000D02*
G75*
G02*
X122200000Y-123300000I-700000J25056D01*
G01*
X124400000Y-120200000D02*
G75*
G02*
X125800000Y-120200000I700000J-25056D01*
G01*
X125800000Y-123300000D02*
G75*
G02*
X124400000Y-123300000I-700000J25056D01*
G01*
X84200000Y-123300000D02*
X84200000Y-120200000D01*
X85600000Y-120400000D02*
X85600000Y-120200000D01*
X85600000Y-120400000D02*
X86400000Y-120400000D01*
X85600000Y-123100000D02*
X85600000Y-123300000D01*
X86400000Y-120400000D02*
X86400000Y-120200000D01*
X86400000Y-123100000D02*
X85600000Y-123100000D01*
X86400000Y-123300000D02*
X86400000Y-123100000D01*
X87800000Y-120200000D02*
X87800000Y-123300000D01*
X84200000Y-120200000D02*
G75*
G02*
X85600000Y-120200000I700000J-25056D01*
G01*
X85600000Y-123300000D02*
G75*
G02*
X84200000Y-123300000I-700000J25056D01*
G01*
X86400000Y-120200000D02*
G75*
G02*
X87800000Y-120200000I700000J-25056D01*
G01*
X87800000Y-123300000D02*
G75*
G02*
X86400000Y-123300000I-700000J25056D01*
G01*
X122200000Y-104300000D02*
X122200000Y-101200000D01*
X123600000Y-101200000D02*
X123600000Y-101400000D01*
X123600000Y-101400000D02*
X124400000Y-101400000D01*
X123600000Y-104100000D02*
X123600000Y-104300000D01*
X124400000Y-101400000D02*
X124400000Y-101200000D01*
X124400000Y-104100000D02*
X123600000Y-104100000D01*
X124400000Y-104100000D02*
X124400000Y-104300000D01*
X125800000Y-101200000D02*
X125800000Y-104300000D01*
X122200000Y-101200000D02*
G75*
G02*
X123600000Y-101200000I700000J-25056D01*
G01*
X123600000Y-104300000D02*
G75*
G02*
X122200000Y-104300000I-700000J25056D01*
G01*
X124400000Y-101200000D02*
G75*
G02*
X125800000Y-101200000I700000J-25056D01*
G01*
X125800000Y-104300000D02*
G75*
G02*
X124400000Y-104300000I-700000J25056D01*
G01*
X46200000Y-123300000D02*
X46200000Y-120200000D01*
X47600000Y-120400000D02*
X47600000Y-120200000D01*
X47600000Y-120400000D02*
X48400000Y-120400000D01*
X47600000Y-123100000D02*
X47600000Y-123300000D01*
X48400000Y-120400000D02*
X48400000Y-120200000D01*
X48400000Y-123100000D02*
X47600000Y-123100000D01*
X48400000Y-123300000D02*
X48400000Y-123100000D01*
X49800000Y-120200000D02*
X49800000Y-123300000D01*
X46200000Y-120200000D02*
G75*
G02*
X47600000Y-120200000I700000J-25056D01*
G01*
X47600000Y-123300000D02*
G75*
G02*
X46200000Y-123300000I-700000J25056D01*
G01*
X48400000Y-120200000D02*
G75*
G02*
X49800000Y-120200000I700000J-25056D01*
G01*
X49800000Y-123300000D02*
G75*
G02*
X48400000Y-123300000I-700000J25056D01*
G01*
X103200000Y-123300000D02*
X103200000Y-120200000D01*
X104600000Y-120400000D02*
X104600000Y-120200000D01*
X104600000Y-120400000D02*
X105400000Y-120400000D01*
X104600000Y-123100000D02*
X104600000Y-123300000D01*
X105400000Y-120400000D02*
X105400000Y-120200000D01*
X105400000Y-123100000D02*
X104600000Y-123100000D01*
X105400000Y-123300000D02*
X105400000Y-123100000D01*
X106800000Y-120200000D02*
X106800000Y-123300000D01*
X103200000Y-120200000D02*
G75*
G02*
X104600000Y-120200000I700000J-25056D01*
G01*
X104600000Y-123300000D02*
G75*
G02*
X103200000Y-123300000I-700000J25056D01*
G01*
X105400000Y-120200000D02*
G75*
G02*
X106800000Y-120200000I700000J-25056D01*
G01*
X106800000Y-123300000D02*
G75*
G02*
X105400000Y-123300000I-700000J25056D01*
G01*
X103200000Y-66300000D02*
X103200000Y-63200000D01*
X104600000Y-63200000D02*
X104600000Y-63400000D01*
X104600000Y-63400000D02*
X105400000Y-63400000D01*
X104600000Y-66100000D02*
X104600000Y-66300000D01*
X105400000Y-63400000D02*
X105400000Y-63200000D01*
X105400000Y-66100000D02*
X104600000Y-66100000D01*
X105400000Y-66100000D02*
X105400000Y-66300000D01*
X106800000Y-63200000D02*
X106800000Y-66300000D01*
X103200000Y-63200000D02*
G75*
G02*
X104600000Y-63200000I700000J-25056D01*
G01*
X104600000Y-66300000D02*
G75*
G02*
X103200000Y-66300000I-700000J25056D01*
G01*
X105400000Y-63200000D02*
G75*
G02*
X106800000Y-63200000I700000J-25056D01*
G01*
X106800000Y-66300000D02*
G75*
G02*
X105400000Y-66300000I-700000J25056D01*
G01*
X46200000Y-104350000D02*
X46200000Y-101250000D01*
X47600000Y-101250000D02*
X47600000Y-101450000D01*
X47600000Y-101450000D02*
X48400000Y-101450000D01*
X47600000Y-104150000D02*
X47600000Y-104350000D01*
X48400000Y-101450000D02*
X48400000Y-101250000D01*
X48400000Y-104150000D02*
X47600000Y-104150000D01*
X48400000Y-104150000D02*
X48400000Y-104350000D01*
X49800000Y-101250000D02*
X49800000Y-104350000D01*
X46200000Y-101250000D02*
G75*
G02*
X47600000Y-101250000I700000J-25056D01*
G01*
X47600000Y-104350000D02*
G75*
G02*
X46200000Y-104350000I-700000J25056D01*
G01*
X48400000Y-101250000D02*
G75*
G02*
X49800000Y-101250000I700000J-25056D01*
G01*
X49800000Y-104350000D02*
G75*
G02*
X48400000Y-104350000I-700000J25056D01*
G01*
X65200000Y-85300000D02*
X65200000Y-82200000D01*
X66600000Y-82400000D02*
X66600000Y-82200000D01*
X66600000Y-82400000D02*
X67400000Y-82400000D01*
X66600000Y-85100000D02*
X66600000Y-85300000D01*
X67400000Y-82400000D02*
X67400000Y-82200000D01*
X67400000Y-85100000D02*
X66600000Y-85100000D01*
X67400000Y-85300000D02*
X67400000Y-85100000D01*
X68800000Y-82200000D02*
X68800000Y-85300000D01*
X65200000Y-82200000D02*
G75*
G02*
X66600000Y-82200000I700000J-25056D01*
G01*
X66600000Y-85300000D02*
G75*
G02*
X65200000Y-85300000I-700000J25056D01*
G01*
X67400000Y-82200000D02*
G75*
G02*
X68800000Y-82200000I700000J-25056D01*
G01*
X68800000Y-85300000D02*
G75*
G02*
X67400000Y-85300000I-700000J25056D01*
G01*
X65200000Y-47300000D02*
X65200000Y-44200000D01*
X66600000Y-44400000D02*
X66600000Y-44200000D01*
X66600000Y-44400000D02*
X67400000Y-44400000D01*
X66600000Y-47100000D02*
X66600000Y-47300000D01*
X67400000Y-44400000D02*
X67400000Y-44200000D01*
X67400000Y-47100000D02*
X66600000Y-47100000D01*
X67400000Y-47300000D02*
X67400000Y-47100000D01*
X68800000Y-44200000D02*
X68800000Y-47300000D01*
X65200000Y-44200000D02*
G75*
G02*
X66600000Y-44200000I700000J-25056D01*
G01*
X66600000Y-47300000D02*
G75*
G02*
X65200000Y-47300000I-700000J25056D01*
G01*
X67400000Y-44200000D02*
G75*
G02*
X68800000Y-44200000I700000J-25056D01*
G01*
X68800000Y-47300000D02*
G75*
G02*
X67400000Y-47300000I-700000J25056D01*
G01*
X65200000Y-104300000D02*
X65200000Y-101200000D01*
X66600000Y-101200000D02*
X66600000Y-101400000D01*
X66600000Y-101400000D02*
X67400000Y-101400000D01*
X66600000Y-104100000D02*
X66600000Y-104300000D01*
X67400000Y-101400000D02*
X67400000Y-101200000D01*
X67400000Y-104100000D02*
X66600000Y-104100000D01*
X67400000Y-104100000D02*
X67400000Y-104300000D01*
X68800000Y-101200000D02*
X68800000Y-104300000D01*
X65200000Y-101200000D02*
G75*
G02*
X66600000Y-101200000I700000J-25056D01*
G01*
X66600000Y-104300000D02*
G75*
G02*
X65200000Y-104300000I-700000J25056D01*
G01*
X67400000Y-101200000D02*
G75*
G02*
X68800000Y-101200000I700000J-25056D01*
G01*
X68800000Y-104300000D02*
G75*
G02*
X67400000Y-104300000I-700000J25056D01*
G01*
X103200000Y-47300000D02*
X103200000Y-44200000D01*
X104600000Y-44400000D02*
X104600000Y-44200000D01*
X104600000Y-44400000D02*
X105400000Y-44400000D01*
X104600000Y-47100000D02*
X104600000Y-47300000D01*
X105400000Y-44400000D02*
X105400000Y-44200000D01*
X105400000Y-47100000D02*
X104600000Y-47100000D01*
X105400000Y-47300000D02*
X105400000Y-47100000D01*
X106800000Y-44200000D02*
X106800000Y-47300000D01*
X103200000Y-44200000D02*
G75*
G02*
X104600000Y-44200000I700000J-25056D01*
G01*
X104600000Y-47300000D02*
G75*
G02*
X103200000Y-47300000I-700000J25056D01*
G01*
X105400000Y-44200000D02*
G75*
G02*
X106800000Y-44200000I700000J-25056D01*
G01*
X106800000Y-47300000D02*
G75*
G02*
X105400000Y-47300000I-700000J25056D01*
G01*
X84200000Y-104300000D02*
X84200000Y-101200000D01*
X85600000Y-101200000D02*
X85600000Y-101400000D01*
X85600000Y-101400000D02*
X86400000Y-101400000D01*
X85600000Y-104100000D02*
X85600000Y-104300000D01*
X86400000Y-101400000D02*
X86400000Y-101200000D01*
X86400000Y-104100000D02*
X85600000Y-104100000D01*
X86400000Y-104100000D02*
X86400000Y-104300000D01*
X87800000Y-101200000D02*
X87800000Y-104300000D01*
X84200000Y-101200000D02*
G75*
G02*
X85600000Y-101200000I700000J-25056D01*
G01*
X85600000Y-104300000D02*
G75*
G02*
X84200000Y-104300000I-700000J25056D01*
G01*
X86400000Y-101200000D02*
G75*
G02*
X87800000Y-101200000I700000J-25056D01*
G01*
X87800000Y-104300000D02*
G75*
G02*
X86400000Y-104300000I-700000J25056D01*
G01*
X103200000Y-104300000D02*
X103200000Y-101200000D01*
X104600000Y-101200000D02*
X104600000Y-101400000D01*
X104600000Y-101400000D02*
X105400000Y-101400000D01*
X104600000Y-104100000D02*
X104600000Y-104300000D01*
X105400000Y-101400000D02*
X105400000Y-101200000D01*
X105400000Y-104100000D02*
X104600000Y-104100000D01*
X105400000Y-104100000D02*
X105400000Y-104300000D01*
X106800000Y-101200000D02*
X106800000Y-104300000D01*
X103200000Y-101200000D02*
G75*
G02*
X104600000Y-101200000I700000J-25056D01*
G01*
X104600000Y-104300000D02*
G75*
G02*
X103200000Y-104300000I-700000J25056D01*
G01*
X105400000Y-101200000D02*
G75*
G02*
X106800000Y-101200000I700000J-25056D01*
G01*
X106800000Y-104300000D02*
G75*
G02*
X105400000Y-104300000I-700000J25056D01*
G01*
X46200000Y-47300000D02*
X46200000Y-44200000D01*
X47600000Y-44400000D02*
X47600000Y-44200000D01*
X47600000Y-44400000D02*
X48400000Y-44400000D01*
X47600000Y-47100000D02*
X47600000Y-47300000D01*
X48400000Y-44400000D02*
X48400000Y-44200000D01*
X48400000Y-47100000D02*
X47600000Y-47100000D01*
X48400000Y-47300000D02*
X48400000Y-47100000D01*
X49800000Y-44200000D02*
X49800000Y-47300000D01*
X46200000Y-44200000D02*
G75*
G02*
X47600000Y-44200000I700000J-25056D01*
G01*
X47600000Y-47300000D02*
G75*
G02*
X46200000Y-47300000I-700000J25056D01*
G01*
X48400000Y-44200000D02*
G75*
G02*
X49800000Y-44200000I700000J-25056D01*
G01*
X49800000Y-47300000D02*
G75*
G02*
X48400000Y-47300000I-700000J25056D01*
G01*
X122200000Y-66300000D02*
X122200000Y-63200000D01*
X123600000Y-63200000D02*
X123600000Y-63400000D01*
X123600000Y-63400000D02*
X124400000Y-63400000D01*
X123600000Y-66100000D02*
X123600000Y-66300000D01*
X124400000Y-63400000D02*
X124400000Y-63200000D01*
X124400000Y-66100000D02*
X123600000Y-66100000D01*
X124400000Y-66100000D02*
X124400000Y-66300000D01*
X125800000Y-63200000D02*
X125800000Y-66300000D01*
X122200000Y-63200000D02*
G75*
G02*
X123600000Y-63200000I700000J-25056D01*
G01*
X123600000Y-66300000D02*
G75*
G02*
X122200000Y-66300000I-700000J25056D01*
G01*
X124400000Y-63200000D02*
G75*
G02*
X125800000Y-63200000I700000J-25056D01*
G01*
X125800000Y-66300000D02*
G75*
G02*
X124400000Y-66300000I-700000J25056D01*
G01*
X84200000Y-85300000D02*
X84200000Y-82200000D01*
X85600000Y-82400000D02*
X85600000Y-82200000D01*
X85600000Y-82400000D02*
X86400000Y-82400000D01*
X85600000Y-85100000D02*
X85600000Y-85300000D01*
X86400000Y-82400000D02*
X86400000Y-82200000D01*
X86400000Y-85100000D02*
X85600000Y-85100000D01*
X86400000Y-85300000D02*
X86400000Y-85100000D01*
X87800000Y-82200000D02*
X87800000Y-85300000D01*
X84200000Y-82200000D02*
G75*
G02*
X85600000Y-82200000I700000J-25056D01*
G01*
X85600000Y-85300000D02*
G75*
G02*
X84200000Y-85300000I-700000J25056D01*
G01*
X86400000Y-82200000D02*
G75*
G02*
X87800000Y-82200000I700000J-25056D01*
G01*
X87800000Y-85300000D02*
G75*
G02*
X86400000Y-85300000I-700000J25056D01*
G01*
X65200000Y-66300000D02*
X65200000Y-63200000D01*
X66600000Y-63200000D02*
X66600000Y-63400000D01*
X66600000Y-63400000D02*
X67400000Y-63400000D01*
X66600000Y-66100000D02*
X66600000Y-66300000D01*
X67400000Y-63400000D02*
X67400000Y-63200000D01*
X67400000Y-66100000D02*
X66600000Y-66100000D01*
X67400000Y-66100000D02*
X67400000Y-66300000D01*
X68800000Y-63200000D02*
X68800000Y-66300000D01*
X65200000Y-63200000D02*
G75*
G02*
X66600000Y-63200000I700000J-25056D01*
G01*
X66600000Y-66300000D02*
G75*
G02*
X65200000Y-66300000I-700000J25056D01*
G01*
X67400000Y-63200000D02*
G75*
G02*
X68800000Y-63200000I700000J-25056D01*
G01*
X68800000Y-66300000D02*
G75*
G02*
X67400000Y-66300000I-700000J25056D01*
G01*
X46200000Y-66300000D02*
X46200000Y-63200000D01*
X47600000Y-63200000D02*
X47600000Y-63400000D01*
X47600000Y-63400000D02*
X48400000Y-63400000D01*
X47600000Y-66100000D02*
X47600000Y-66300000D01*
X48400000Y-63400000D02*
X48400000Y-63200000D01*
X48400000Y-66100000D02*
X47600000Y-66100000D01*
X48400000Y-66100000D02*
X48400000Y-66300000D01*
X49800000Y-63200000D02*
X49800000Y-66300000D01*
X46200000Y-63200000D02*
G75*
G02*
X47600000Y-63200000I700000J-25056D01*
G01*
X47600000Y-66300000D02*
G75*
G02*
X46200000Y-66300000I-700000J25056D01*
G01*
X48400000Y-63200000D02*
G75*
G02*
X49800000Y-63200000I700000J-25056D01*
G01*
X49800000Y-66300000D02*
G75*
G02*
X48400000Y-66300000I-700000J25056D01*
G01*
X84200000Y-47300000D02*
X84200000Y-44200000D01*
X85600000Y-44400000D02*
X85600000Y-44200000D01*
X85600000Y-44400000D02*
X86400000Y-44400000D01*
X85600000Y-47100000D02*
X85600000Y-47300000D01*
X86400000Y-44400000D02*
X86400000Y-44200000D01*
X86400000Y-47100000D02*
X85600000Y-47100000D01*
X86400000Y-47300000D02*
X86400000Y-47100000D01*
X87800000Y-44200000D02*
X87800000Y-47300000D01*
X84200000Y-44200000D02*
G75*
G02*
X85600000Y-44200000I700000J-25056D01*
G01*
X85600000Y-47300000D02*
G75*
G02*
X84200000Y-47300000I-700000J25056D01*
G01*
X86400000Y-44200000D02*
G75*
G02*
X87800000Y-44200000I700000J-25056D01*
G01*
X87800000Y-47300000D02*
G75*
G02*
X86400000Y-47300000I-700000J25056D01*
G01*
X122200000Y-85300000D02*
X122200000Y-82200000D01*
X123600000Y-82400000D02*
X123600000Y-82200000D01*
X123600000Y-82400000D02*
X124400000Y-82400000D01*
X123600000Y-85100000D02*
X123600000Y-85300000D01*
X124400000Y-82400000D02*
X124400000Y-82200000D01*
X124400000Y-85100000D02*
X123600000Y-85100000D01*
X124400000Y-85300000D02*
X124400000Y-85100000D01*
X125800000Y-82200000D02*
X125800000Y-85300000D01*
X122200000Y-82200000D02*
G75*
G02*
X123600000Y-82200000I700000J-25056D01*
G01*
X123600000Y-85300000D02*
G75*
G02*
X122200000Y-85300000I-700000J25056D01*
G01*
X124400000Y-82200000D02*
G75*
G02*
X125800000Y-82200000I700000J-25056D01*
G01*
X125800000Y-85300000D02*
G75*
G02*
X124400000Y-85300000I-700000J25056D01*
G01*
X84200000Y-66300000D02*
X84200000Y-63200000D01*
X85600000Y-63200000D02*
X85600000Y-63400000D01*
X85600000Y-63400000D02*
X86400000Y-63400000D01*
X85600000Y-66100000D02*
X85600000Y-66300000D01*
X86400000Y-63400000D02*
X86400000Y-63200000D01*
X86400000Y-66100000D02*
X85600000Y-66100000D01*
X86400000Y-66100000D02*
X86400000Y-66300000D01*
X87800000Y-63200000D02*
X87800000Y-66300000D01*
X84200000Y-63200000D02*
G75*
G02*
X85600000Y-63200000I700000J-25056D01*
G01*
X85600000Y-66300000D02*
G75*
G02*
X84200000Y-66300000I-700000J25056D01*
G01*
X86400000Y-63200000D02*
G75*
G02*
X87800000Y-63200000I700000J-25056D01*
G01*
X87800000Y-66300000D02*
G75*
G02*
X86400000Y-66300000I-700000J25056D01*
G01*
X121950000Y-51550000D02*
X121950000Y-48450000D01*
X123350000Y-48650000D02*
X123350000Y-48450000D01*
X123350000Y-48650000D02*
X124150000Y-48650000D01*
X123350000Y-51350000D02*
X123350000Y-51550000D01*
X124150000Y-48650000D02*
X124150000Y-48450000D01*
X124150000Y-51350000D02*
X123350000Y-51350000D01*
X124150000Y-51550000D02*
X124150000Y-51350000D01*
X125550000Y-48450000D02*
X125550000Y-51550000D01*
X121950000Y-48450000D02*
G75*
G02*
X123350000Y-48450000I700000J-25056D01*
G01*
X123350000Y-51550000D02*
G75*
G02*
X121950000Y-51550000I-700000J25056D01*
G01*
X124150000Y-48450000D02*
G75*
G02*
X125550000Y-48450000I700000J-25056D01*
G01*
X125550000Y-51550000D02*
G75*
G02*
X124150000Y-51550000I-700000J25056D01*
G01*
X65200000Y-123300000D02*
X65200000Y-120200000D01*
X66600000Y-120400000D02*
X66600000Y-120200000D01*
X66600000Y-120400000D02*
X67400000Y-120400000D01*
X66600000Y-123100000D02*
X66600000Y-123300000D01*
X67400000Y-120400000D02*
X67400000Y-120200000D01*
X67400000Y-123100000D02*
X66600000Y-123100000D01*
X67400000Y-123300000D02*
X67400000Y-123100000D01*
X68800000Y-120200000D02*
X68800000Y-123300000D01*
X65200000Y-120200000D02*
G75*
G02*
X66600000Y-120200000I700000J-25056D01*
G01*
X66600000Y-123300000D02*
G75*
G02*
X65200000Y-123300000I-700000J25056D01*
G01*
X67400000Y-120200000D02*
G75*
G02*
X68800000Y-120200000I700000J-25056D01*
G01*
X68800000Y-123300000D02*
G75*
G02*
X67400000Y-123300000I-700000J25056D01*
G01*
X46200000Y-85300000D02*
X46200000Y-82200000D01*
X47600000Y-82400000D02*
X47600000Y-82200000D01*
X47600000Y-82400000D02*
X48400000Y-82400000D01*
X47600000Y-85100000D02*
X47600000Y-85300000D01*
X48400000Y-82400000D02*
X48400000Y-82200000D01*
X48400000Y-85100000D02*
X47600000Y-85100000D01*
X48400000Y-85300000D02*
X48400000Y-85100000D01*
X49800000Y-82200000D02*
X49800000Y-85300000D01*
X46200000Y-82200000D02*
G75*
G02*
X47600000Y-82200000I700000J-25056D01*
G01*
X47600000Y-85300000D02*
G75*
G02*
X46200000Y-85300000I-700000J25056D01*
G01*
X48400000Y-82200000D02*
G75*
G02*
X49800000Y-82200000I700000J-25056D01*
G01*
X49800000Y-85300000D02*
G75*
G02*
X48400000Y-85300000I-700000J25056D01*
G01*
M02*
