M48
INCH,TZ
T1C0.0748
T2C0.1201
T3C0.1260
T4C0.1988
%
G90
G05
T1
X16732Y-19685
X16732Y-27165
X16732Y-34646
X16732Y-42126
X16732Y-49606
X21063Y-19685
X21063Y-27165
X21063Y-34646
X21063Y-42126
X21063Y-49606
X24213Y-19685
X24213Y-27165
X24213Y-34646
X24213Y-42126
X24213Y-49606
X28543Y-19685
X28543Y-27165
X28543Y-34646
X28543Y-42126
X28543Y-49606
X31693Y-19685
X31693Y-27165
X31693Y-34646
X31693Y-42126
X31693Y-49606
X36024Y-19685
X36024Y-27165
X36024Y-34646
X36024Y-42126
X36024Y-49606
X39173Y-19685
X39173Y-27165
X39173Y-34646
X39173Y-42126
X39173Y-49606
X43504Y-19685
X43504Y-27165
X43504Y-34646
X43504Y-42126
X43504Y-49606
X46654Y-27165
X46654Y-34646
X46654Y-42126
X46654Y-49606
X50984Y-27165
X50984Y-34646
X50984Y-42126
X50984Y-49606
T2
X16929Y-21181
X16929Y-28661
X16929Y-36142
X16929Y-43622
X16929Y-51102
X18898Y-22008
X18898Y-29488
X18898Y-36969
X18898Y-44449
X18898Y-51929
X24409Y-21181
X24409Y-28661
X24409Y-36142
X24409Y-43622
X24409Y-51102
X26378Y-22008
X26378Y-29488
X26378Y-36969
X26378Y-44449
X26378Y-51929
X31890Y-21181
X31890Y-28661
X31890Y-36142
X31890Y-43622
X31890Y-51102
X33858Y-22008
X33858Y-29488
X33858Y-36969
X33858Y-44449
X33858Y-51929
X39370Y-21181
X39370Y-28661
X39370Y-36142
X39370Y-43622
X39370Y-51102
X41339Y-22008
X41339Y-29488
X41339Y-36969
X41339Y-44449
X41339Y-51929
X46850Y-28661
X46850Y-36142
X46850Y-43622
X46850Y-51102
X48819Y-29488
X48819Y-36969
X48819Y-44449
X48819Y-51929
T3
X15551Y-16339
X15551Y-52953
X52165Y-16339
X52165Y-52953
T4
X18898Y-19685
X18898Y-27165
X18898Y-34646
X18898Y-42126
X18898Y-49606
X26378Y-19685
X26378Y-27165
X26378Y-34646
X26378Y-42126
X26378Y-49606
X33858Y-19685
X33858Y-27165
X33858Y-34646
X33858Y-42126
X33858Y-49606
X41339Y-19685
X41339Y-27165
X41339Y-34646
X41339Y-42126
X41339Y-49606
X48819Y-27165
X48819Y-34646
X48819Y-42126
X48819Y-49606
M30
