M48
INCH,TZ
T1C0.0157
T2C0.0394
T3C0.0512
T4C0.0591
%
G90
G05
T1
X15551Y-19606
X15551Y-34606
X15551Y-49567
X16063Y-17677
X16240Y-25098
X16240Y-40157
X18002Y-45197
X18110Y-30236
X19646Y-37795
X19803Y-22874
X20276Y-51142
X21555Y-33366
X21555Y-48327
X21654Y-18406
X21654Y-28543
X21654Y-43504
X22992Y-49567
X23031Y-19646
X23031Y-27087
X23031Y-34606
X23031Y-42047
X23720Y-25197
X23720Y-40157
X29035Y-33366
X29035Y-48327
X29134Y-18406
X30512Y-19606
X30512Y-27087
X30512Y-34606
X30512Y-42087
X30512Y-49567
X31201Y-25098
X31201Y-40157
X36516Y-18406
X36516Y-33366
X36516Y-48327
X37992Y-19606
X37992Y-27087
X37992Y-34567
X37992Y-42087
X37992Y-49567
X38681Y-25098
X38681Y-40157
X43996Y-18406
X43996Y-33366
X43996Y-48327
X45472Y-27087
X45472Y-34606
X45472Y-42047
X45472Y-49567
X45512Y-16772
X46161Y-25098
X46161Y-40157
X50689Y-20571
X50886Y-48819
X51476Y-33366
X51575Y-48031
X52203Y-19051
T2
X14951Y-41132
X14951Y-42132
X14951Y-43132
X14961Y-26165
X14961Y-27165
X14961Y-28165
X25378Y-53543
X25384Y-15758
X26378Y-53543
X26384Y-15758
X27378Y-53543
X27384Y-15758
X40323Y-53543
X40339Y-15748
X41323Y-53543
X41339Y-15748
X42323Y-53543
X42339Y-15748
X52756Y-26171
X52756Y-27171
X52756Y-28171
T3
X45965Y-18685
X45965Y-20685
X51673Y-18685
X51673Y-19685
X51673Y-20685
T4
G00X49016Y-17520
M15
G01X48425Y-17520
M16
G05
G00X49016Y-21850
M15
G01X48425Y-21850
M16
G05
M30
