G04 #@! TF.GenerationSoftware,KiCad,Pcbnew,9.0.5*
G04 #@! TF.CreationDate,2025-10-12T17:24:55+02:00*
G04 #@! TF.ProjectId,b2,62322e6b-6963-4616-945f-706362585858,rev?*
G04 #@! TF.SameCoordinates,Original*
G04 #@! TF.FileFunction,Soldermask,Top*
G04 #@! TF.FilePolarity,Negative*
%FSLAX46Y46*%
G04 Gerber Fmt 4.6, Leading zero omitted, Abs format (unit mm)*
G04 Created by KiCad (PCBNEW 9.0.5) date 2025-10-12 17:24:55*
%MOMM*%
%LPD*%
G01*
G04 APERTURE LIST*
G04 Aperture macros list*
%AMRoundRect*
0 Rectangle with rounded corners*
0 $1 Rounding radius*
0 $2 $3 $4 $5 $6 $7 $8 $9 X,Y pos of 4 corners*
0 Add a 4 corners polygon primitive as box body*
4,1,4,$2,$3,$4,$5,$6,$7,$8,$9,$2,$3,0*
0 Add four circle primitives for the rounded corners*
1,1,$1+$1,$2,$3*
1,1,$1+$1,$4,$5*
1,1,$1+$1,$6,$7*
1,1,$1+$1,$8,$9*
0 Add four rect primitives between the rounded corners*
20,1,$1+$1,$2,$3,$4,$5,0*
20,1,$1+$1,$4,$5,$6,$7,0*
20,1,$1+$1,$6,$7,$8,$9,0*
20,1,$1+$1,$8,$9,$2,$3,0*%
G04 Aperture macros list end*
%ADD10R,1.700000X1.700000*%
%ADD11O,1.700000X1.700000*%
%ADD12RoundRect,0.250000X0.450000X-0.262500X0.450000X0.262500X-0.450000X0.262500X-0.450000X-0.262500X0*%
%ADD13C,3.200000*%
%ADD14RoundRect,0.150000X0.150000X0.700000X-0.150000X0.700000X-0.150000X-0.700000X0.150000X-0.700000X0*%
%ADD15RoundRect,0.250000X0.250000X1.150000X-0.250000X1.150000X-0.250000X-1.150000X0.250000X-1.150000X0*%
%ADD16C,0.850000*%
%ADD17RoundRect,0.090000X0.210000X0.535000X-0.210000X0.535000X-0.210000X-0.535000X0.210000X-0.535000X0*%
%ADD18RoundRect,0.105000X-0.445000X0.245000X-0.445000X-0.245000X0.445000X-0.245000X0.445000X0.245000X0*%
G04 #@! TA.AperFunction,Profile*
%ADD19C,0.100000*%
G04 #@! TD*
G04 APERTURE END LIST*
D10*
X142000000Y-104460000D03*
D11*
X142000000Y-107000000D03*
X142000000Y-109540000D03*
D10*
X168475000Y-39975000D03*
D11*
X171015000Y-39975000D03*
X173555000Y-39975000D03*
D10*
X168475000Y-135975000D03*
D11*
X171015000Y-135975000D03*
X173555000Y-135975000D03*
D10*
X238000000Y-66460000D03*
D11*
X238000000Y-69000000D03*
X238000000Y-71540000D03*
D12*
X211500000Y-129912500D03*
X211500000Y-128087500D03*
D13*
X236500000Y-41500000D03*
X143500000Y-134500000D03*
X236500000Y-134500000D03*
D10*
X206475000Y-135975000D03*
D11*
X209015000Y-135975000D03*
X211555000Y-135975000D03*
D13*
X143500000Y-41500000D03*
D14*
X222494000Y-45802000D03*
X221244000Y-45802000D03*
D15*
X224344000Y-49152000D03*
X219394000Y-49152000D03*
D10*
X206475000Y-39975000D03*
D11*
X209015000Y-39975000D03*
X211555000Y-39975000D03*
D10*
X142000000Y-66460000D03*
D11*
X142000000Y-69000000D03*
X142000000Y-71540000D03*
D16*
X220369000Y-39751000D03*
X223369000Y-39751000D03*
D17*
X224119000Y-41751000D03*
X221119000Y-41751000D03*
X219619000Y-41751000D03*
D18*
X218169000Y-38601000D03*
X218169000Y-40901000D03*
X225569000Y-38601000D03*
X225569000Y-40901000D03*
D10*
X237975000Y-110830000D03*
D11*
X237975000Y-108290000D03*
X237975000Y-105750000D03*
X237975000Y-103210000D03*
D19*
X140000000Y-38000000D02*
X240000000Y-38000000D01*
X240000000Y-38000000D02*
X240000000Y-138000000D01*
X240000000Y-138000000D02*
X140000000Y-138000000D01*
X140000000Y-138000000D02*
X140000000Y-38000000D01*
M02*
