G04 #@! TF.GenerationSoftware,KiCad,Pcbnew,9.0.5*
G04 #@! TF.CreationDate,2025-10-12T17:24:45+02:00*
G04 #@! TF.ProjectId,b2,62322e6b-6963-4616-945f-706362585858,rev?*
G04 #@! TF.SameCoordinates,Original*
G04 #@! TF.FileFunction,Copper,L1,Top*
G04 #@! TF.FilePolarity,Positive*
%FSLAX46Y46*%
G04 Gerber Fmt 4.6, Leading zero omitted, Abs format (unit mm)*
G04 Created by KiCad (PCBNEW 9.0.5) date 2025-10-12 17:24:45*
%MOMM*%
%LPD*%
G01*
G04 APERTURE LIST*
G04 Aperture macros list*
%AMRoundRect*
0 Rectangle with rounded corners*
0 $1 Rounding radius*
0 $2 $3 $4 $5 $6 $7 $8 $9 X,Y pos of 4 corners*
0 Add a 4 corners polygon primitive as box body*
4,1,4,$2,$3,$4,$5,$6,$7,$8,$9,$2,$3,0*
0 Add four circle primitives for the rounded corners*
1,1,$1+$1,$2,$3*
1,1,$1+$1,$4,$5*
1,1,$1+$1,$6,$7*
1,1,$1+$1,$8,$9*
0 Add four rect primitives between the rounded corners*
20,1,$1+$1,$2,$3,$4,$5,0*
20,1,$1+$1,$4,$5,$6,$7,0*
20,1,$1+$1,$6,$7,$8,$9,0*
20,1,$1+$1,$8,$9,$2,$3,0*%
G04 Aperture macros list end*
%ADD10C,0.200000*%
G04 #@! TA.AperFunction,NonConductor*
%ADD11C,0.200000*%
G04 #@! TD*
G04 #@! TA.AperFunction,ComponentPad*
%ADD12R,1.700000X1.700000*%
G04 #@! TD*
G04 #@! TA.AperFunction,ComponentPad*
%ADD13O,1.700000X1.700000*%
G04 #@! TD*
G04 #@! TA.AperFunction,SMDPad,CuDef*
%ADD14RoundRect,0.250000X0.450000X-0.262500X0.450000X0.262500X-0.450000X0.262500X-0.450000X-0.262500X0*%
G04 #@! TD*
G04 #@! TA.AperFunction,SMDPad,CuDef*
%ADD15RoundRect,0.150000X0.150000X0.700000X-0.150000X0.700000X-0.150000X-0.700000X0.150000X-0.700000X0*%
G04 #@! TD*
G04 #@! TA.AperFunction,SMDPad,CuDef*
%ADD16RoundRect,0.250000X0.250000X1.150000X-0.250000X1.150000X-0.250000X-1.150000X0.250000X-1.150000X0*%
G04 #@! TD*
G04 #@! TA.AperFunction,SMDPad,CuDef*
%ADD17RoundRect,0.090000X0.210000X0.535000X-0.210000X0.535000X-0.210000X-0.535000X0.210000X-0.535000X0*%
G04 #@! TD*
G04 #@! TA.AperFunction,SMDPad,CuDef*
%ADD18RoundRect,0.105000X-0.445000X0.245000X-0.445000X-0.245000X0.445000X-0.245000X0.445000X0.245000X0*%
G04 #@! TD*
G04 #@! TA.AperFunction,ComponentPad*
%ADD19C,1.800000*%
G04 #@! TD*
G04 #@! TA.AperFunction,ComponentPad*
%ADD20RoundRect,0.450000X-0.450000X-0.450000X0.450000X-0.450000X0.450000X0.450000X-0.450000X0.450000X0*%
G04 #@! TD*
G04 #@! TA.AperFunction,ComponentPad*
%ADD21O,1.800000X4.340000*%
G04 #@! TD*
G04 #@! TA.AperFunction,ViaPad*
%ADD22C,0.800000*%
G04 #@! TD*
G04 #@! TA.AperFunction,Conductor*
%ADD23C,0.400000*%
G04 #@! TD*
G04 #@! TA.AperFunction,Conductor*
%ADD24C,0.250000*%
G04 #@! TD*
G04 #@! TA.AperFunction,Profile*
%ADD25C,0.100000*%
G04 #@! TD*
G04 APERTURE END LIST*
D10*
D11*
X237182219Y-129214285D02*
X237182219Y-129785713D01*
X237182219Y-129499999D02*
X236182219Y-129499999D01*
X236182219Y-129499999D02*
X236325076Y-129595237D01*
X236325076Y-129595237D02*
X236420314Y-129690475D01*
X236420314Y-129690475D02*
X236467933Y-129785713D01*
D12*
X142000000Y-104460000D03*
D13*
X142000000Y-107000000D03*
X142000000Y-109540000D03*
D12*
X168475000Y-39975000D03*
D13*
X171015000Y-39975000D03*
X173555000Y-39975000D03*
D12*
X168475000Y-135975000D03*
D13*
X171015000Y-135975000D03*
X173555000Y-135975000D03*
D12*
X238000000Y-66460000D03*
D13*
X238000000Y-69000000D03*
X238000000Y-71540000D03*
D14*
X211500000Y-129912500D03*
X211500000Y-128087500D03*
D12*
X206475000Y-135975000D03*
D13*
X209015000Y-135975000D03*
X211555000Y-135975000D03*
D15*
X222494000Y-45802000D03*
X221244000Y-45802000D03*
D16*
X224344000Y-49152000D03*
X219394000Y-49152000D03*
D12*
X206475000Y-39975000D03*
D13*
X209015000Y-39975000D03*
X211555000Y-39975000D03*
D12*
X142000000Y-66460000D03*
D13*
X142000000Y-69000000D03*
X142000000Y-71540000D03*
D17*
X224119000Y-41751000D03*
X221119000Y-41751000D03*
X219619000Y-41751000D03*
D18*
X218169000Y-38601000D03*
X218169000Y-40901000D03*
X225569000Y-38601000D03*
X225569000Y-40901000D03*
D19*
X182700000Y-41830000D03*
X182700000Y-44370000D03*
D20*
X182700000Y-46910000D03*
X182700000Y-49450000D03*
D19*
X182700000Y-51990000D03*
X182700000Y-54530000D03*
X182700000Y-57070000D03*
X182700000Y-59610000D03*
X182700000Y-62150000D03*
X182700000Y-64690000D03*
X182700000Y-67230000D03*
X182700000Y-69770000D03*
D21*
X197940000Y-40560000D03*
D20*
X197940000Y-44370000D03*
D19*
X197940000Y-46910000D03*
X197940000Y-49450000D03*
X197940000Y-51990000D03*
X197940000Y-54530000D03*
X197940000Y-57070000D03*
X197940000Y-59610000D03*
X197940000Y-62150000D03*
X197940000Y-64690000D03*
X197940000Y-67230000D03*
X197940000Y-69770000D03*
X185240000Y-64690000D03*
X187780000Y-64690000D03*
X190320000Y-64690000D03*
D20*
X182700000Y-39290000D03*
D19*
X197940000Y-39290000D03*
X185240000Y-62600000D03*
X187780000Y-62600000D03*
D12*
X237975000Y-110830000D03*
D13*
X237975000Y-108290000D03*
X237975000Y-105750000D03*
X237975000Y-103210000D03*
D22*
X190940000Y-120270000D03*
X201100000Y-97410000D03*
X150300000Y-92330000D03*
X208720000Y-125350000D03*
X163000000Y-59310000D03*
X165540000Y-92330000D03*
X206180000Y-46610000D03*
X175700000Y-112650000D03*
X142680000Y-46610000D03*
X193480000Y-82170000D03*
X142680000Y-61850000D03*
X185860000Y-46610000D03*
X211260000Y-44070000D03*
X150300000Y-107570000D03*
X218880000Y-117730000D03*
X229040000Y-49150000D03*
X221420000Y-110110000D03*
X168080000Y-41530000D03*
X229040000Y-38990000D03*
X170620000Y-127890000D03*
X206180000Y-105030000D03*
X201100000Y-125350000D03*
X170620000Y-120270000D03*
X178240000Y-54230000D03*
X150300000Y-135510000D03*
X163000000Y-87250000D03*
X229040000Y-110110000D03*
X226500000Y-79630000D03*
X211260000Y-61850000D03*
X180780000Y-107570000D03*
X208720000Y-110110000D03*
X155380000Y-59310000D03*
X193480000Y-61850000D03*
X236660000Y-87250000D03*
X157920000Y-115190000D03*
X152840000Y-87250000D03*
X234120000Y-41530000D03*
X175700000Y-38990000D03*
X198560000Y-79630000D03*
X152840000Y-38990000D03*
X216340000Y-69470000D03*
X190940000Y-105030000D03*
X223960000Y-87250000D03*
X226500000Y-92330000D03*
X142680000Y-120270000D03*
X155380000Y-132970000D03*
X201100000Y-110110000D03*
X170620000Y-61850000D03*
X206180000Y-82170000D03*
X147760000Y-56770000D03*
X147760000Y-72010000D03*
X175700000Y-97410000D03*
X163000000Y-79630000D03*
X221420000Y-74550000D03*
X165540000Y-51690000D03*
X222500000Y-43500000D03*
X185860000Y-38990000D03*
X226500000Y-120270000D03*
X231580000Y-130430000D03*
X206180000Y-120270000D03*
X163000000Y-120270000D03*
X168080000Y-97410000D03*
X147760000Y-84710000D03*
X236660000Y-56770000D03*
X142680000Y-127890000D03*
X196020000Y-115190000D03*
X231580000Y-54230000D03*
X218880000Y-130430000D03*
X178240000Y-117730000D03*
X236660000Y-46610000D03*
X165540000Y-125350000D03*
X229040000Y-61850000D03*
X213800000Y-49150000D03*
X203640000Y-89790000D03*
X190940000Y-49150000D03*
X218880000Y-44070000D03*
X168080000Y-115190000D03*
X196020000Y-87250000D03*
X175700000Y-82170000D03*
X178240000Y-102490000D03*
X178240000Y-64390000D03*
X183320000Y-112650000D03*
X157920000Y-49150000D03*
X142680000Y-82170000D03*
X183320000Y-79630000D03*
X178240000Y-44070000D03*
X185860000Y-102490000D03*
X229040000Y-69470000D03*
X160460000Y-135510000D03*
X157920000Y-122810000D03*
X157920000Y-64390000D03*
X142680000Y-38990000D03*
X234120000Y-74550000D03*
X203640000Y-130430000D03*
X157920000Y-82170000D03*
X196020000Y-46610000D03*
X155380000Y-102490000D03*
X142680000Y-74550000D03*
X221420000Y-49150000D03*
X152840000Y-127890000D03*
X163000000Y-38990000D03*
X190940000Y-135510000D03*
X221420000Y-122810000D03*
X223960000Y-127890000D03*
X193480000Y-125350000D03*
X147760000Y-130430000D03*
X226500000Y-44070000D03*
X155380000Y-94870000D03*
X152840000Y-46610000D03*
X216340000Y-112650000D03*
X163000000Y-72010000D03*
X152840000Y-112650000D03*
X185860000Y-54230000D03*
X165540000Y-64390000D03*
X147760000Y-49150000D03*
X165540000Y-107570000D03*
X160460000Y-127890000D03*
X173160000Y-107570000D03*
X163000000Y-46610000D03*
X157920000Y-41530000D03*
X185860000Y-84710000D03*
X175700000Y-49150000D03*
X190940000Y-41530000D03*
X218880000Y-105030000D03*
X147760000Y-41530000D03*
X147760000Y-115190000D03*
X173160000Y-77090000D03*
X175700000Y-122810000D03*
X170620000Y-54230000D03*
X147760000Y-122810000D03*
X145220000Y-89790000D03*
X213800000Y-94870000D03*
X173160000Y-92330000D03*
X223960000Y-64390000D03*
X221420000Y-82170000D03*
X213800000Y-38990000D03*
X150300000Y-61850000D03*
X165540000Y-132970000D03*
X213800000Y-132970000D03*
X221420000Y-135510000D03*
X152840000Y-54230000D03*
X168080000Y-82170000D03*
X180780000Y-130430000D03*
X216340000Y-77090000D03*
X188400000Y-89790000D03*
X178240000Y-87250000D03*
X223960000Y-99950000D03*
X145220000Y-97410000D03*
X213800000Y-107570000D03*
X221420000Y-94870000D03*
X196020000Y-38990000D03*
X157920000Y-89790000D03*
X142680000Y-112650000D03*
X163000000Y-102490000D03*
X229040000Y-125350000D03*
X160460000Y-54230000D03*
X145220000Y-105030000D03*
X142680000Y-54230000D03*
X211260000Y-115190000D03*
X198560000Y-135510000D03*
X216340000Y-99950000D03*
X168080000Y-74550000D03*
X226500000Y-105030000D03*
X157920000Y-74550000D03*
X203640000Y-77090000D03*
X175700000Y-59310000D03*
X175700000Y-135510000D03*
X170620000Y-87250000D03*
X223960000Y-115190000D03*
X175700000Y-72010000D03*
X190940000Y-94870000D03*
X163000000Y-112650000D03*
X203640000Y-38990000D03*
X211260000Y-102490000D03*
X193480000Y-99950000D03*
X198560000Y-92330000D03*
X188400000Y-130430000D03*
X234120000Y-107570000D03*
X236660000Y-112650000D03*
X201100000Y-84710000D03*
X180780000Y-92330000D03*
X183320000Y-97410000D03*
X226500000Y-132970000D03*
X190940000Y-77090000D03*
X150300000Y-99950000D03*
X234120000Y-120270000D03*
X216340000Y-84710000D03*
X183320000Y-135510000D03*
X234120000Y-66930000D03*
X173160000Y-66930000D03*
X170620000Y-102490000D03*
X152840000Y-79630000D03*
X185860000Y-125350000D03*
X236660000Y-94870000D03*
X213800000Y-120270000D03*
X152840000Y-66930000D03*
X170620000Y-46610000D03*
X218880000Y-89790000D03*
X203640000Y-115190000D03*
X234120000Y-135510000D03*
X160460000Y-97410000D03*
X236660000Y-79630000D03*
X231580000Y-115190000D03*
X152840000Y-120270000D03*
X196020000Y-130430000D03*
X157920000Y-107570000D03*
X188400000Y-59310000D03*
X198560000Y-120270000D03*
X193480000Y-54230000D03*
X221420000Y-59310000D03*
X219000000Y-42000000D03*
D23*
X222500000Y-43500000D02*
X222497000Y-43503000D01*
X222497000Y-45799000D02*
X222500000Y-45796000D01*
X222494000Y-43510242D02*
X222494000Y-45797757D01*
X222497000Y-43503000D02*
G75*
G03*
X222494018Y-43510242I7200J-7200D01*
G01*
X222494000Y-45797757D02*
G75*
G03*
X222497073Y-45799073I1800J-43D01*
G01*
D24*
X207406207Y-66406207D02*
X207283792Y-66283792D01*
X207406207Y-99583792D02*
X171015000Y-135975000D01*
X209000000Y-70253963D02*
X209000000Y-95736036D01*
X203436036Y-64690000D02*
X197940000Y-64690000D01*
X207406207Y-66406207D02*
G75*
G02*
X209000011Y-70253963I-3847807J-3847793D01*
G01*
X209000000Y-95736036D02*
G75*
G02*
X207406200Y-99583785I-5441600J36D01*
G01*
X207283792Y-66283792D02*
G75*
G03*
X203436036Y-64689989I-3847792J-3847808D01*
G01*
X209906207Y-99623792D02*
X173555000Y-135975000D01*
X211500000Y-95776036D02*
X211500000Y-68753963D01*
X208743792Y-63743792D02*
X209906207Y-64906207D01*
X204896036Y-62150000D02*
X197940000Y-62150000D01*
X211500000Y-95776036D02*
G75*
G02*
X209906200Y-99623785I-5441600J36D01*
G01*
X208743792Y-63743792D02*
G75*
G03*
X204896036Y-62149989I-3847792J-3847808D01*
G01*
X209906207Y-64906207D02*
G75*
G02*
X211500011Y-68753963I-3847807J-3847793D01*
G01*
X186500000Y-62504903D02*
X186500000Y-61053740D01*
X143593792Y-83906207D02*
X164982207Y-62517792D01*
X142000000Y-87753963D02*
X142000000Y-104460000D01*
X186370259Y-60924000D02*
X168829963Y-60924000D01*
X187140000Y-64050000D02*
X187780000Y-64690000D01*
X186462000Y-60962000D02*
G75*
G03*
X186370259Y-60924017I-91700J-91700D01*
G01*
X168829963Y-60924000D02*
G75*
G03*
X164982236Y-62517821I37J-5441500D01*
G01*
X143593792Y-83906207D02*
G75*
G03*
X141999959Y-87753963I3847708J-3847793D01*
G01*
X186462000Y-60962000D02*
G75*
G02*
X186499983Y-61053740I-91700J-91700D01*
G01*
X186500000Y-62504903D02*
G75*
G03*
X187140001Y-64049999I2185100J3D01*
G01*
X189663000Y-65347000D02*
X190320000Y-64690000D01*
X145593792Y-84406207D02*
X162402207Y-67597792D01*
X166249963Y-66004000D02*
X188076861Y-66004000D01*
X144000000Y-88253963D02*
X144000000Y-103585786D01*
X143000000Y-106000000D02*
X142000000Y-107000000D01*
X145593792Y-84406207D02*
G75*
G03*
X143999959Y-88253963I3847708J-3847793D01*
G01*
X166249963Y-66004000D02*
G75*
G03*
X162402236Y-67597821I37J-5441500D01*
G01*
X144000000Y-103585786D02*
G75*
G02*
X143000004Y-106000004I-3414200J-14D01*
G01*
X189663000Y-65347000D02*
G75*
G02*
X188076861Y-66003984I-1586100J1586100D01*
G01*
D23*
X221119000Y-45588611D02*
X221119000Y-41751000D01*
X221181500Y-45739500D02*
X221244000Y-45802000D01*
X221119000Y-45588611D02*
G75*
G03*
X221181503Y-45739497I213400J11D01*
G01*
X219000000Y-42000000D02*
X219193930Y-42000000D01*
X219494500Y-41875500D02*
X219619000Y-41751000D01*
X219494500Y-41875500D02*
G75*
G02*
X219193930Y-42000013I-300600J300600D01*
G01*
D24*
X211527500Y-135947500D02*
X211555000Y-135975000D01*
X211500000Y-135881109D02*
X211500000Y-129912500D01*
X211500000Y-135881109D02*
G75*
G03*
X211527503Y-135947497I93900J9D01*
G01*
G04 #@! TA.AperFunction,Conductor*
G36*
X170549075Y-39782007D02*
G01*
X170515000Y-39909174D01*
X170515000Y-40040826D01*
X170549075Y-40167993D01*
X170581988Y-40225000D01*
X168908012Y-40225000D01*
X168940925Y-40167993D01*
X168975000Y-40040826D01*
X168975000Y-39909174D01*
X168940925Y-39782007D01*
X168908012Y-39725000D01*
X170581988Y-39725000D01*
X170549075Y-39782007D01*
G37*
G04 #@! TD.AperFunction*
G04 #@! TA.AperFunction,Conductor*
G36*
X181514674Y-38020185D02*
G01*
X181560429Y-38072989D01*
X181570373Y-38142147D01*
X181543737Y-38202861D01*
X181452686Y-38314525D01*
X181363228Y-38485784D01*
X181310079Y-38671538D01*
X181310078Y-38671541D01*
X181300000Y-38784902D01*
X181300000Y-39040000D01*
X182266988Y-39040000D01*
X182234075Y-39097007D01*
X182200000Y-39224174D01*
X182200000Y-39355826D01*
X182234075Y-39482993D01*
X182266988Y-39540000D01*
X181300001Y-39540000D01*
X181300001Y-39795098D01*
X181310078Y-39908460D01*
X181363228Y-40094215D01*
X181452686Y-40265474D01*
X181574784Y-40415215D01*
X181724525Y-40537313D01*
X181895785Y-40626771D01*
X181951004Y-40642571D01*
X182010043Y-40679937D01*
X182039507Y-40743291D01*
X182030042Y-40812516D01*
X181989781Y-40862104D01*
X181917927Y-40914309D01*
X181784312Y-41047924D01*
X181784312Y-41047925D01*
X181784310Y-41047927D01*
X181770390Y-41067086D01*
X181673240Y-41200800D01*
X181587454Y-41369163D01*
X181529059Y-41548881D01*
X181499500Y-41735513D01*
X181499500Y-41924486D01*
X181529059Y-42111118D01*
X181587454Y-42290836D01*
X181647242Y-42408175D01*
X181673240Y-42459199D01*
X181784310Y-42612073D01*
X181917927Y-42745690D01*
X182070801Y-42856760D01*
X182144399Y-42894260D01*
X182239163Y-42942545D01*
X182239165Y-42942545D01*
X182239168Y-42942547D01*
X182328734Y-42971649D01*
X182360803Y-42982069D01*
X182418478Y-43021507D01*
X182445676Y-43085866D01*
X182433761Y-43154712D01*
X182386516Y-43206188D01*
X182360803Y-43217931D01*
X182239163Y-43257454D01*
X182070800Y-43343240D01*
X181983579Y-43406610D01*
X181917927Y-43454310D01*
X181917925Y-43454312D01*
X181917924Y-43454312D01*
X181784312Y-43587924D01*
X181784312Y-43587925D01*
X181784310Y-43587927D01*
X181736610Y-43653579D01*
X181673240Y-43740800D01*
X181587454Y-43909163D01*
X181529059Y-44088881D01*
X181499500Y-44275513D01*
X181499500Y-44464486D01*
X181529059Y-44651118D01*
X181587454Y-44830836D01*
X181667767Y-44988458D01*
X181673240Y-44999199D01*
X181784310Y-45152073D01*
X181917927Y-45285690D01*
X181989780Y-45337895D01*
X182032445Y-45393224D01*
X182038424Y-45462838D01*
X182005818Y-45524633D01*
X181951006Y-45557428D01*
X181895783Y-45573229D01*
X181724525Y-45662686D01*
X181574784Y-45784784D01*
X181452686Y-45934525D01*
X181363228Y-46105784D01*
X181310079Y-46291538D01*
X181310078Y-46291541D01*
X181300000Y-46404902D01*
X181300000Y-46660000D01*
X182266988Y-46660000D01*
X182234075Y-46717007D01*
X182200000Y-46844174D01*
X182200000Y-46975826D01*
X182234075Y-47102993D01*
X182266988Y-47160000D01*
X181300001Y-47160000D01*
X181300001Y-47415098D01*
X181310078Y-47528460D01*
X181363228Y-47714215D01*
X181452686Y-47885474D01*
X181574784Y-48035215D01*
X181634488Y-48083898D01*
X181674005Y-48141519D01*
X181676097Y-48211358D01*
X181640099Y-48271240D01*
X181634488Y-48276102D01*
X181574784Y-48324784D01*
X181452686Y-48474525D01*
X181363228Y-48645784D01*
X181310079Y-48831538D01*
X181310078Y-48831541D01*
X181300000Y-48944902D01*
X181300000Y-49200000D01*
X182266988Y-49200000D01*
X182234075Y-49257007D01*
X182200000Y-49384174D01*
X182200000Y-49515826D01*
X182234075Y-49642993D01*
X182266988Y-49700000D01*
X181300001Y-49700000D01*
X181300001Y-49955098D01*
X181310078Y-50068460D01*
X181363228Y-50254215D01*
X181452686Y-50425474D01*
X181574784Y-50575215D01*
X181724525Y-50697313D01*
X181895785Y-50786771D01*
X181951004Y-50802571D01*
X182010043Y-50839937D01*
X182039507Y-50903291D01*
X182030042Y-50972516D01*
X181989781Y-51022104D01*
X181917927Y-51074309D01*
X181784312Y-51207924D01*
X181784312Y-51207925D01*
X181784310Y-51207927D01*
X181736610Y-51273579D01*
X181673240Y-51360800D01*
X181587454Y-51529163D01*
X181529059Y-51708881D01*
X181499500Y-51895513D01*
X181499500Y-52084486D01*
X181529059Y-52271118D01*
X181587454Y-52450836D01*
X181673240Y-52619199D01*
X181784310Y-52772073D01*
X181917927Y-52905690D01*
X182070801Y-53016760D01*
X182150347Y-53057290D01*
X182239163Y-53102545D01*
X182239165Y-53102545D01*
X182239168Y-53102547D01*
X182328734Y-53131649D01*
X182360803Y-53142069D01*
X182418478Y-53181507D01*
X182445676Y-53245866D01*
X182433761Y-53314712D01*
X182386516Y-53366188D01*
X182360803Y-53377931D01*
X182239163Y-53417454D01*
X182070800Y-53503240D01*
X181983579Y-53566610D01*
X181917927Y-53614310D01*
X181917925Y-53614312D01*
X181917924Y-53614312D01*
X181784312Y-53747924D01*
X181784312Y-53747925D01*
X181784310Y-53747927D01*
X181736610Y-53813579D01*
X181673240Y-53900800D01*
X181587454Y-54069163D01*
X181529059Y-54248881D01*
X181499500Y-54435513D01*
X181499500Y-54624486D01*
X181529059Y-54811118D01*
X181587454Y-54990836D01*
X181673240Y-55159199D01*
X181784310Y-55312073D01*
X181917927Y-55445690D01*
X182070801Y-55556760D01*
X182150347Y-55597290D01*
X182239163Y-55642545D01*
X182239165Y-55642545D01*
X182239168Y-55642547D01*
X182328734Y-55671649D01*
X182360803Y-55682069D01*
X182418478Y-55721507D01*
X182445676Y-55785866D01*
X182433761Y-55854712D01*
X182386516Y-55906188D01*
X182360803Y-55917931D01*
X182239163Y-55957454D01*
X182070800Y-56043240D01*
X181983579Y-56106610D01*
X181917927Y-56154310D01*
X181917925Y-56154312D01*
X181917924Y-56154312D01*
X181784312Y-56287924D01*
X181784312Y-56287925D01*
X181784310Y-56287927D01*
X181736610Y-56353579D01*
X181673240Y-56440800D01*
X181587454Y-56609163D01*
X181529059Y-56788881D01*
X181499500Y-56975513D01*
X181499500Y-57164486D01*
X181529059Y-57351118D01*
X181587454Y-57530836D01*
X181673240Y-57699199D01*
X181784310Y-57852073D01*
X181917927Y-57985690D01*
X182070801Y-58096760D01*
X182150347Y-58137290D01*
X182239163Y-58182545D01*
X182239165Y-58182545D01*
X182239168Y-58182547D01*
X182328734Y-58211649D01*
X182360803Y-58222069D01*
X182418478Y-58261507D01*
X182445676Y-58325866D01*
X182433761Y-58394712D01*
X182386516Y-58446188D01*
X182360803Y-58457931D01*
X182239163Y-58497454D01*
X182070800Y-58583240D01*
X181983579Y-58646610D01*
X181917927Y-58694310D01*
X181917925Y-58694312D01*
X181917924Y-58694312D01*
X181784312Y-58827924D01*
X181784312Y-58827925D01*
X181784310Y-58827927D01*
X181736610Y-58893579D01*
X181673240Y-58980800D01*
X181587454Y-59149163D01*
X181529059Y-59328881D01*
X181499500Y-59515513D01*
X181499500Y-59704486D01*
X181529059Y-59891118D01*
X181587454Y-60070836D01*
X181673240Y-60239199D01*
X181718588Y-60301615D01*
X181742068Y-60367420D01*
X181726243Y-60435474D01*
X181676138Y-60484169D01*
X181618270Y-60498500D01*
X168901132Y-60498500D01*
X168891139Y-60498499D01*
X168891138Y-60498499D01*
X168883744Y-60498499D01*
X168881355Y-60498499D01*
X168881222Y-60498460D01*
X168620416Y-60498460D01*
X168202398Y-60528361D01*
X167787573Y-60588007D01*
X167378074Y-60677092D01*
X167285126Y-60704385D01*
X167088680Y-60762069D01*
X166975952Y-60795170D01*
X166583311Y-60941621D01*
X166202086Y-61115725D01*
X165834263Y-61316576D01*
X165481718Y-61543147D01*
X165481702Y-61543158D01*
X165146227Y-61794297D01*
X164829503Y-62068746D01*
X164829490Y-62068758D01*
X164760992Y-62137257D01*
X164720944Y-62177306D01*
X164703504Y-62194747D01*
X164703503Y-62194747D01*
X143247862Y-83650388D01*
X143247450Y-83650856D01*
X143144781Y-83753523D01*
X143144768Y-83753537D01*
X142870328Y-84070252D01*
X142619191Y-84405725D01*
X142619188Y-84405729D01*
X142392606Y-84758290D01*
X142191761Y-85126103D01*
X142017656Y-85507331D01*
X141871209Y-85899961D01*
X141753131Y-86302084D01*
X141664046Y-86711580D01*
X141604401Y-87126402D01*
X141574500Y-87544418D01*
X141574500Y-87751517D01*
X141574500Y-87753960D01*
X141574499Y-87815138D01*
X141574500Y-87815141D01*
X141574500Y-103185500D01*
X141554815Y-103252539D01*
X141502011Y-103298294D01*
X141450500Y-103309500D01*
X141105143Y-103309500D01*
X141105117Y-103309502D01*
X141080012Y-103312413D01*
X141080008Y-103312415D01*
X140977235Y-103357793D01*
X140897794Y-103437234D01*
X140852415Y-103540006D01*
X140852415Y-103540008D01*
X140849500Y-103565131D01*
X140849500Y-105354856D01*
X140849502Y-105354882D01*
X140852413Y-105379987D01*
X140852415Y-105379991D01*
X140897793Y-105482764D01*
X140897794Y-105482765D01*
X140977235Y-105562206D01*
X141080009Y-105607585D01*
X141105135Y-105610500D01*
X141842872Y-105610499D01*
X141909910Y-105630183D01*
X141955665Y-105682987D01*
X141965609Y-105752146D01*
X141936584Y-105815702D01*
X141877806Y-105853476D01*
X141862270Y-105856972D01*
X141730589Y-105877829D01*
X141558363Y-105933787D01*
X141558360Y-105933788D01*
X141397002Y-106016006D01*
X141250505Y-106122441D01*
X141250500Y-106122445D01*
X141122445Y-106250500D01*
X141122441Y-106250505D01*
X141016006Y-106397002D01*
X140933788Y-106558360D01*
X140933787Y-106558363D01*
X140877829Y-106730589D01*
X140849500Y-106909448D01*
X140849500Y-107090551D01*
X140877829Y-107269410D01*
X140933787Y-107441636D01*
X140933788Y-107441639D01*
X141016006Y-107602997D01*
X141122441Y-107749494D01*
X141122445Y-107749499D01*
X141250500Y-107877554D01*
X141250505Y-107877558D01*
X141378287Y-107970396D01*
X141397006Y-107983996D01*
X141502484Y-108037740D01*
X141558360Y-108066211D01*
X141558363Y-108066212D01*
X141644476Y-108094191D01*
X141730591Y-108122171D01*
X141803639Y-108133740D01*
X141890678Y-108147527D01*
X141953813Y-108177456D01*
X141990744Y-108236768D01*
X141989746Y-108306631D01*
X141951136Y-108364863D01*
X141890678Y-108392473D01*
X141730589Y-108417829D01*
X141558363Y-108473787D01*
X141558360Y-108473788D01*
X141397002Y-108556006D01*
X141250505Y-108662441D01*
X141250500Y-108662445D01*
X141122445Y-108790500D01*
X141122441Y-108790505D01*
X141016006Y-108937002D01*
X140933788Y-109098360D01*
X140933787Y-109098363D01*
X140877829Y-109270589D01*
X140849500Y-109449448D01*
X140849500Y-109630551D01*
X140877829Y-109809410D01*
X140933787Y-109981636D01*
X140933788Y-109981639D01*
X141016006Y-110142997D01*
X141122441Y-110289494D01*
X141122445Y-110289499D01*
X141250500Y-110417554D01*
X141250505Y-110417558D01*
X141378287Y-110510396D01*
X141397006Y-110523996D01*
X141502484Y-110577740D01*
X141558360Y-110606211D01*
X141558363Y-110606212D01*
X141644476Y-110634191D01*
X141730591Y-110662171D01*
X141813429Y-110675291D01*
X141909449Y-110690500D01*
X141909454Y-110690500D01*
X142090551Y-110690500D01*
X142177259Y-110676765D01*
X142269409Y-110662171D01*
X142441639Y-110606211D01*
X142602994Y-110523996D01*
X142749501Y-110417553D01*
X142877553Y-110289501D01*
X142983996Y-110142994D01*
X143066211Y-109981639D01*
X143122171Y-109809409D01*
X143142285Y-109682413D01*
X143150500Y-109630551D01*
X143150500Y-109449448D01*
X143122710Y-109273996D01*
X143122171Y-109270591D01*
X143088693Y-109167554D01*
X143066212Y-109098363D01*
X143066211Y-109098360D01*
X143036217Y-109039494D01*
X142983996Y-108937006D01*
X142952020Y-108892994D01*
X142877558Y-108790505D01*
X142877554Y-108790500D01*
X142749499Y-108662445D01*
X142749494Y-108662441D01*
X142602997Y-108556006D01*
X142602996Y-108556005D01*
X142602994Y-108556004D01*
X142551300Y-108529664D01*
X142441639Y-108473788D01*
X142441636Y-108473787D01*
X142269410Y-108417829D01*
X142109321Y-108392473D01*
X142046186Y-108362544D01*
X142009255Y-108303232D01*
X142010253Y-108233370D01*
X142048863Y-108175137D01*
X142109321Y-108147527D01*
X142179425Y-108136422D01*
X142269409Y-108122171D01*
X142441639Y-108066211D01*
X142602994Y-107983996D01*
X142749501Y-107877553D01*
X142877553Y-107749501D01*
X142983996Y-107602994D01*
X143066211Y-107441639D01*
X143122171Y-107269409D01*
X143142276Y-107142473D01*
X143150500Y-107090551D01*
X143150500Y-106909448D01*
X143122171Y-106730590D01*
X143084094Y-106613401D01*
X143083659Y-106598187D01*
X143078341Y-106583928D01*
X143082682Y-106563972D01*
X143082099Y-106543560D01*
X143090186Y-106529473D01*
X143093193Y-106515655D01*
X143114337Y-106487409D01*
X143264553Y-106337194D01*
X143264570Y-106337185D01*
X143300877Y-106300877D01*
X143300878Y-106300878D01*
X143419421Y-106182334D01*
X143634943Y-105925486D01*
X143827258Y-105650831D01*
X143994903Y-105360460D01*
X144136603Y-105056582D01*
X144251279Y-104741511D01*
X144338058Y-104417644D01*
X144396279Y-104087446D01*
X144425501Y-103753430D01*
X144425500Y-103585784D01*
X144425500Y-103524607D01*
X144425500Y-88256386D01*
X144425596Y-88251517D01*
X144433734Y-88044418D01*
X144440774Y-87865263D01*
X144441535Y-87855593D01*
X144486688Y-87474120D01*
X144488211Y-87464510D01*
X144563151Y-87087779D01*
X144565424Y-87078311D01*
X144643331Y-86802084D01*
X144669694Y-86708608D01*
X144672702Y-86699354D01*
X144783152Y-86399975D01*
X144805650Y-86338990D01*
X144809375Y-86329998D01*
X144867495Y-86203930D01*
X144970197Y-85981157D01*
X144974605Y-85972504D01*
X145162304Y-85637351D01*
X145167380Y-85629068D01*
X145380807Y-85309659D01*
X145386501Y-85301821D01*
X145624339Y-85000131D01*
X145630640Y-84992755D01*
X145893776Y-84708103D01*
X145897093Y-84704653D01*
X145937923Y-84663826D01*
X145937925Y-84663821D01*
X162650915Y-67950830D01*
X162650927Y-67950821D01*
X162659823Y-67941924D01*
X162659826Y-67941923D01*
X162701387Y-67900359D01*
X162704847Y-67897034D01*
X162988731Y-67634608D01*
X162996118Y-67628299D01*
X163297779Y-67390483D01*
X163305638Y-67384772D01*
X163625048Y-67171345D01*
X163633331Y-67166269D01*
X163968486Y-66978569D01*
X163977139Y-66974161D01*
X164325985Y-66813336D01*
X164334978Y-66809612D01*
X164612895Y-66707081D01*
X164695346Y-66676662D01*
X164704596Y-66673656D01*
X165074305Y-66569383D01*
X165083764Y-66567112D01*
X165460509Y-66492171D01*
X165470114Y-66490649D01*
X165851590Y-66445496D01*
X165861260Y-66444735D01*
X166246505Y-66429595D01*
X166251374Y-66429500D01*
X166311144Y-66429500D01*
X176306000Y-66429500D01*
X176373039Y-66449185D01*
X176418794Y-66501989D01*
X176430000Y-66553500D01*
X176430000Y-76040000D01*
X204210000Y-76040000D01*
X204210000Y-65960000D01*
X198608311Y-65960000D01*
X198541272Y-65940315D01*
X198495517Y-65887511D01*
X198485573Y-65818353D01*
X198514598Y-65754797D01*
X198552016Y-65725515D01*
X198569199Y-65716760D01*
X198722073Y-65605690D01*
X198855690Y-65472073D01*
X198966760Y-65319199D01*
X199036052Y-65183204D01*
X199084026Y-65132409D01*
X199146537Y-65115500D01*
X203374855Y-65115500D01*
X203433607Y-65115500D01*
X203438476Y-65115596D01*
X203824736Y-65130774D01*
X203834408Y-65131535D01*
X204215895Y-65176689D01*
X204225469Y-65178205D01*
X204602246Y-65253153D01*
X204611677Y-65255417D01*
X204981393Y-65359689D01*
X204990621Y-65362687D01*
X205351019Y-65495646D01*
X205360014Y-65499372D01*
X205596428Y-65608361D01*
X205708852Y-65660189D01*
X205717523Y-65664608D01*
X206052660Y-65852294D01*
X206060944Y-65857370D01*
X206380337Y-66070782D01*
X206388213Y-66076505D01*
X206689867Y-66314309D01*
X206697265Y-66320627D01*
X206967273Y-66570218D01*
X206981320Y-66583203D01*
X206984830Y-66586578D01*
X207103602Y-66705350D01*
X207106963Y-66708846D01*
X207369374Y-66992721D01*
X207375697Y-67000124D01*
X207613502Y-67301778D01*
X207619225Y-67309655D01*
X207669413Y-67384766D01*
X207820241Y-67610497D01*
X207832631Y-67629039D01*
X207837706Y-67637320D01*
X208025405Y-67972480D01*
X208029818Y-67981141D01*
X208190636Y-68329980D01*
X208194362Y-68338975D01*
X208327316Y-68699359D01*
X208330324Y-68708619D01*
X208434587Y-69078301D01*
X208436860Y-69087769D01*
X208511798Y-69464505D01*
X208513321Y-69474120D01*
X208558472Y-69855572D01*
X208559236Y-69865279D01*
X208574404Y-70251267D01*
X208574500Y-70256136D01*
X208574500Y-95733607D01*
X208574404Y-95738476D01*
X208559226Y-96124719D01*
X208558462Y-96134425D01*
X208513313Y-96515873D01*
X208511790Y-96525490D01*
X208436850Y-96902228D01*
X208434577Y-96911695D01*
X208330315Y-97281376D01*
X208327307Y-97290636D01*
X208194353Y-97651019D01*
X208190627Y-97660014D01*
X208029814Y-98008842D01*
X208025393Y-98017517D01*
X207837703Y-98352661D01*
X207832616Y-98360963D01*
X207619217Y-98680338D01*
X207613494Y-98688215D01*
X207375690Y-98989868D01*
X207369367Y-98997271D01*
X207106796Y-99281319D01*
X207103422Y-99284828D01*
X207062074Y-99326177D01*
X207062071Y-99326180D01*
X171527595Y-134860655D01*
X171466272Y-134894140D01*
X171401596Y-134890905D01*
X171377337Y-134883022D01*
X171284409Y-134852828D01*
X171105551Y-134824500D01*
X171105546Y-134824500D01*
X170924454Y-134824500D01*
X170924449Y-134824500D01*
X170745589Y-134852829D01*
X170573363Y-134908787D01*
X170573360Y-134908788D01*
X170412002Y-134991006D01*
X170265505Y-135097441D01*
X170265500Y-135097445D01*
X170137445Y-135225500D01*
X170137441Y-135225505D01*
X170031006Y-135372002D01*
X169948788Y-135533360D01*
X169948787Y-135533363D01*
X169892829Y-135705589D01*
X169871972Y-135837271D01*
X169842042Y-135900405D01*
X169782731Y-135937336D01*
X169712868Y-135936338D01*
X169654636Y-135897728D01*
X169626522Y-135833764D01*
X169625499Y-135817872D01*
X169625499Y-135080143D01*
X169625499Y-135080136D01*
X169625497Y-135080117D01*
X169622586Y-135055012D01*
X169622585Y-135055010D01*
X169622585Y-135055009D01*
X169577206Y-134952235D01*
X169497765Y-134872794D01*
X169466672Y-134859065D01*
X169394992Y-134827415D01*
X169369865Y-134824500D01*
X167580143Y-134824500D01*
X167580117Y-134824502D01*
X167555012Y-134827413D01*
X167555008Y-134827415D01*
X167452235Y-134872793D01*
X167372794Y-134952234D01*
X167327415Y-135055006D01*
X167327415Y-135055008D01*
X167324500Y-135080131D01*
X167324500Y-136869856D01*
X167324502Y-136869882D01*
X167327413Y-136894987D01*
X167327415Y-136894991D01*
X167372793Y-136997764D01*
X167372794Y-136997765D01*
X167452235Y-137077206D01*
X167555009Y-137122585D01*
X167580135Y-137125500D01*
X169369864Y-137125499D01*
X169369879Y-137125497D01*
X169369882Y-137125497D01*
X169394987Y-137122586D01*
X169394988Y-137122585D01*
X169394991Y-137122585D01*
X169497765Y-137077206D01*
X169577206Y-136997765D01*
X169622585Y-136894991D01*
X169625500Y-136869865D01*
X169625499Y-136132125D01*
X169645183Y-136065089D01*
X169697987Y-136019334D01*
X169767146Y-136009390D01*
X169830702Y-136038415D01*
X169868476Y-136097193D01*
X169871972Y-136112729D01*
X169892829Y-136244410D01*
X169948787Y-136416636D01*
X169948788Y-136416639D01*
X170031006Y-136577997D01*
X170137441Y-136724494D01*
X170137445Y-136724499D01*
X170265500Y-136852554D01*
X170265505Y-136852558D01*
X170393287Y-136945396D01*
X170412006Y-136958996D01*
X170488094Y-136997765D01*
X170573360Y-137041211D01*
X170573363Y-137041212D01*
X170659476Y-137069191D01*
X170745591Y-137097171D01*
X170828429Y-137110291D01*
X170924449Y-137125500D01*
X170924454Y-137125500D01*
X171105551Y-137125500D01*
X171192259Y-137111765D01*
X171284409Y-137097171D01*
X171456639Y-137041211D01*
X171617994Y-136958996D01*
X171764501Y-136852553D01*
X171892553Y-136724501D01*
X171998996Y-136577994D01*
X172081211Y-136416639D01*
X172137171Y-136244409D01*
X172151422Y-136154425D01*
X172162527Y-136084321D01*
X172192456Y-136021186D01*
X172251768Y-135984255D01*
X172321630Y-135985253D01*
X172379863Y-136023863D01*
X172407473Y-136084321D01*
X172432829Y-136244410D01*
X172488787Y-136416636D01*
X172488788Y-136416639D01*
X172571006Y-136577997D01*
X172677441Y-136724494D01*
X172677445Y-136724499D01*
X172805500Y-136852554D01*
X172805505Y-136852558D01*
X172933287Y-136945396D01*
X172952006Y-136958996D01*
X173028094Y-136997765D01*
X173113360Y-137041211D01*
X173113363Y-137041212D01*
X173199476Y-137069191D01*
X173285591Y-137097171D01*
X173368429Y-137110291D01*
X173464449Y-137125500D01*
X173464454Y-137125500D01*
X173645551Y-137125500D01*
X173732259Y-137111765D01*
X173824409Y-137097171D01*
X173996639Y-137041211D01*
X174157994Y-136958996D01*
X174304501Y-136852553D01*
X174432553Y-136724501D01*
X174538996Y-136577994D01*
X174621211Y-136416639D01*
X174677171Y-136244409D01*
X174691765Y-136152259D01*
X174705500Y-136065551D01*
X174705500Y-135884448D01*
X174677171Y-135705590D01*
X174639094Y-135588401D01*
X174637099Y-135518560D01*
X174669342Y-135462404D01*
X175051615Y-135080131D01*
X205324500Y-135080131D01*
X205324500Y-136869856D01*
X205324502Y-136869882D01*
X205327413Y-136894987D01*
X205327415Y-136894991D01*
X205372793Y-136997764D01*
X205372794Y-136997765D01*
X205452235Y-137077206D01*
X205555009Y-137122585D01*
X205580135Y-137125500D01*
X207369864Y-137125499D01*
X207369879Y-137125497D01*
X207369882Y-137125497D01*
X207394987Y-137122586D01*
X207394988Y-137122585D01*
X207394991Y-137122585D01*
X207497765Y-137077206D01*
X207577206Y-136997765D01*
X207622585Y-136894991D01*
X207625500Y-136869865D01*
X207625499Y-136132125D01*
X207645183Y-136065089D01*
X207697987Y-136019334D01*
X207767146Y-136009390D01*
X207830702Y-136038415D01*
X207868476Y-136097193D01*
X207871972Y-136112729D01*
X207892829Y-136244410D01*
X207948787Y-136416636D01*
X207948788Y-136416639D01*
X208031006Y-136577997D01*
X208137441Y-136724494D01*
X208137445Y-136724499D01*
X208265500Y-136852554D01*
X208265505Y-136852558D01*
X208393287Y-136945396D01*
X208412006Y-136958996D01*
X208488094Y-136997765D01*
X208573360Y-137041211D01*
X208573363Y-137041212D01*
X208659476Y-137069191D01*
X208745591Y-137097171D01*
X208828429Y-137110291D01*
X208924449Y-137125500D01*
X208924454Y-137125500D01*
X209105551Y-137125500D01*
X209192259Y-137111765D01*
X209284409Y-137097171D01*
X209456639Y-137041211D01*
X209617994Y-136958996D01*
X209764501Y-136852553D01*
X209892553Y-136724501D01*
X209998996Y-136577994D01*
X210081211Y-136416639D01*
X210137171Y-136244409D01*
X210151422Y-136154425D01*
X210162527Y-136084321D01*
X210192456Y-136021186D01*
X210251768Y-135984255D01*
X210321630Y-135985253D01*
X210379863Y-136023863D01*
X210407473Y-136084321D01*
X210432829Y-136244410D01*
X210488787Y-136416636D01*
X210488788Y-136416639D01*
X210571006Y-136577997D01*
X210677441Y-136724494D01*
X210677445Y-136724499D01*
X210805500Y-136852554D01*
X210805505Y-136852558D01*
X210933287Y-136945396D01*
X210952006Y-136958996D01*
X211028094Y-136997765D01*
X211113360Y-137041211D01*
X211113363Y-137041212D01*
X211199476Y-137069191D01*
X211285591Y-137097171D01*
X211368429Y-137110291D01*
X211464449Y-137125500D01*
X211464454Y-137125500D01*
X211645551Y-137125500D01*
X211732259Y-137111765D01*
X211824409Y-137097171D01*
X211996639Y-137041211D01*
X212157994Y-136958996D01*
X212304501Y-136852553D01*
X212432553Y-136724501D01*
X212538996Y-136577994D01*
X212621211Y-136416639D01*
X212677171Y-136244409D01*
X212691765Y-136152259D01*
X212705500Y-136065551D01*
X212705500Y-135884448D01*
X212689019Y-135780397D01*
X212677171Y-135705591D01*
X212621211Y-135533361D01*
X212621211Y-135533360D01*
X212585055Y-135462402D01*
X212538996Y-135372006D01*
X212472449Y-135280411D01*
X212432558Y-135225505D01*
X212432554Y-135225500D01*
X212304499Y-135097445D01*
X212304494Y-135097441D01*
X212157998Y-134991006D01*
X212103202Y-134963086D01*
X211996639Y-134908789D01*
X211996635Y-134908787D01*
X211993205Y-134907040D01*
X211942409Y-134859065D01*
X211925500Y-134796555D01*
X211925500Y-134378711D01*
X234649500Y-134378711D01*
X234649500Y-134621288D01*
X234681161Y-134861785D01*
X234743947Y-135096104D01*
X234797545Y-135225500D01*
X234836776Y-135320212D01*
X234958064Y-135530289D01*
X234958066Y-135530292D01*
X234958067Y-135530293D01*
X235105733Y-135722736D01*
X235105739Y-135722743D01*
X235277256Y-135894260D01*
X235277262Y-135894265D01*
X235469711Y-136041936D01*
X235679788Y-136163224D01*
X235903900Y-136256054D01*
X236138211Y-136318838D01*
X236318586Y-136342584D01*
X236378711Y-136350500D01*
X236378712Y-136350500D01*
X236621289Y-136350500D01*
X236669388Y-136344167D01*
X236861789Y-136318838D01*
X237096100Y-136256054D01*
X237320212Y-136163224D01*
X237530289Y-136041936D01*
X237722738Y-135894265D01*
X237894265Y-135722738D01*
X238041936Y-135530289D01*
X238163224Y-135320212D01*
X238256054Y-135096100D01*
X238318838Y-134861789D01*
X238350500Y-134621288D01*
X238350500Y-134378712D01*
X238318838Y-134138211D01*
X238256054Y-133903900D01*
X238163224Y-133679788D01*
X238041936Y-133469711D01*
X237894265Y-133277262D01*
X237894260Y-133277256D01*
X237722743Y-133105739D01*
X237722736Y-133105733D01*
X237530293Y-132958067D01*
X237530292Y-132958066D01*
X237530289Y-132958064D01*
X237320212Y-132836776D01*
X237320205Y-132836773D01*
X237096104Y-132743947D01*
X236861785Y-132681161D01*
X236621289Y-132649500D01*
X236621288Y-132649500D01*
X236378712Y-132649500D01*
X236378711Y-132649500D01*
X236138214Y-132681161D01*
X235903895Y-132743947D01*
X235679794Y-132836773D01*
X235679785Y-132836777D01*
X235469706Y-132958067D01*
X235277263Y-133105733D01*
X235277256Y-133105739D01*
X235105739Y-133277256D01*
X235105733Y-133277263D01*
X234958067Y-133469706D01*
X234836777Y-133679785D01*
X234836773Y-133679794D01*
X234743947Y-133903895D01*
X234681161Y-134138214D01*
X234649500Y-134378711D01*
X211925500Y-134378711D01*
X211925500Y-130843618D01*
X211945185Y-130776579D01*
X211952778Y-130770000D01*
X235460000Y-130770000D01*
X238000000Y-130770000D01*
X238000000Y-124420000D01*
X235460000Y-124420000D01*
X235460000Y-130770000D01*
X211952778Y-130770000D01*
X211997989Y-130730824D01*
X212034713Y-130720503D01*
X212081564Y-130714877D01*
X212222342Y-130659361D01*
X212342922Y-130567922D01*
X212434361Y-130447342D01*
X212489877Y-130306564D01*
X212500500Y-130218102D01*
X212500500Y-129606898D01*
X212489877Y-129518436D01*
X212434361Y-129377658D01*
X212434360Y-129377657D01*
X212434360Y-129377656D01*
X212342922Y-129257077D01*
X212292047Y-129218498D01*
X212250524Y-129162306D01*
X212245972Y-129092584D01*
X212279837Y-129031470D01*
X212301875Y-129014155D01*
X212418345Y-128942315D01*
X212542315Y-128818345D01*
X212634356Y-128669124D01*
X212634358Y-128669119D01*
X212689505Y-128502697D01*
X212689506Y-128502690D01*
X212699999Y-128399986D01*
X212700000Y-128399973D01*
X212700000Y-128337500D01*
X210300001Y-128337500D01*
X210300001Y-128399986D01*
X210310494Y-128502697D01*
X210365641Y-128669119D01*
X210365643Y-128669124D01*
X210457684Y-128818345D01*
X210581655Y-128942316D01*
X210581659Y-128942319D01*
X210698124Y-129014156D01*
X210744849Y-129066104D01*
X210756070Y-129135066D01*
X210728227Y-129199148D01*
X210707953Y-129218497D01*
X210657078Y-129257077D01*
X210565639Y-129377656D01*
X210510122Y-129518438D01*
X210504188Y-129567853D01*
X210499500Y-129606898D01*
X210499500Y-130218102D01*
X210505126Y-130264954D01*
X210510122Y-130306561D01*
X210565639Y-130447343D01*
X210657077Y-130567922D01*
X210777656Y-130659360D01*
X210777657Y-130659360D01*
X210777658Y-130659361D01*
X210918436Y-130714877D01*
X210965285Y-130720502D01*
X211029497Y-130748039D01*
X211068631Y-130805921D01*
X211074500Y-130843618D01*
X211074500Y-134852602D01*
X211054815Y-134919641D01*
X211006796Y-134963086D01*
X210952004Y-134991004D01*
X210805505Y-135097441D01*
X210805500Y-135097445D01*
X210677445Y-135225500D01*
X210677441Y-135225505D01*
X210571006Y-135372002D01*
X210488788Y-135533360D01*
X210488787Y-135533363D01*
X210432829Y-135705589D01*
X210407473Y-135865678D01*
X210377544Y-135928813D01*
X210318232Y-135965744D01*
X210248369Y-135964746D01*
X210190137Y-135926136D01*
X210162527Y-135865678D01*
X210148740Y-135778639D01*
X210137171Y-135705591D01*
X210081211Y-135533361D01*
X210081211Y-135533360D01*
X210045055Y-135462402D01*
X209998996Y-135372006D01*
X209932449Y-135280411D01*
X209892558Y-135225505D01*
X209892554Y-135225500D01*
X209764499Y-135097445D01*
X209764494Y-135097441D01*
X209617997Y-134991006D01*
X209617996Y-134991005D01*
X209617994Y-134991004D01*
X209541906Y-134952235D01*
X209456639Y-134908788D01*
X209456636Y-134908787D01*
X209284410Y-134852829D01*
X209105551Y-134824500D01*
X209105546Y-134824500D01*
X208924454Y-134824500D01*
X208924449Y-134824500D01*
X208745589Y-134852829D01*
X208573363Y-134908787D01*
X208573360Y-134908788D01*
X208412002Y-134991006D01*
X208265505Y-135097441D01*
X208265500Y-135097445D01*
X208137445Y-135225500D01*
X208137441Y-135225505D01*
X208031006Y-135372002D01*
X207948788Y-135533360D01*
X207948787Y-135533363D01*
X207892829Y-135705589D01*
X207871972Y-135837271D01*
X207842042Y-135900405D01*
X207782731Y-135937336D01*
X207712868Y-135936338D01*
X207654636Y-135897728D01*
X207626522Y-135833764D01*
X207625499Y-135817872D01*
X207625499Y-135080143D01*
X207625499Y-135080136D01*
X207625497Y-135080117D01*
X207622586Y-135055012D01*
X207622585Y-135055010D01*
X207622585Y-135055009D01*
X207577206Y-134952235D01*
X207497765Y-134872794D01*
X207466672Y-134859065D01*
X207394992Y-134827415D01*
X207369865Y-134824500D01*
X205580143Y-134824500D01*
X205580117Y-134824502D01*
X205555012Y-134827413D01*
X205555008Y-134827415D01*
X205452235Y-134872793D01*
X205372794Y-134952234D01*
X205327415Y-135055006D01*
X205327415Y-135055008D01*
X205324500Y-135080131D01*
X175051615Y-135080131D01*
X182356733Y-127775013D01*
X210300000Y-127775013D01*
X210300000Y-127837500D01*
X211250000Y-127837500D01*
X211750000Y-127837500D01*
X212699999Y-127837500D01*
X212699999Y-127775028D01*
X212699998Y-127775013D01*
X212689505Y-127672302D01*
X212634358Y-127505880D01*
X212634356Y-127505875D01*
X212542315Y-127356654D01*
X212418345Y-127232684D01*
X212269124Y-127140643D01*
X212269119Y-127140641D01*
X212102697Y-127085494D01*
X212102690Y-127085493D01*
X211999986Y-127075000D01*
X211750000Y-127075000D01*
X211750000Y-127837500D01*
X211250000Y-127837500D01*
X211250000Y-127075000D01*
X211000029Y-127075000D01*
X211000012Y-127075001D01*
X210897302Y-127085494D01*
X210730880Y-127140641D01*
X210730875Y-127140643D01*
X210581654Y-127232684D01*
X210457684Y-127356654D01*
X210365643Y-127505875D01*
X210365641Y-127505880D01*
X210310494Y-127672302D01*
X210310493Y-127672309D01*
X210300000Y-127775013D01*
X182356733Y-127775013D01*
X207171746Y-102960000D01*
X236647769Y-102960000D01*
X237541988Y-102960000D01*
X237509075Y-103017007D01*
X237475000Y-103144174D01*
X237475000Y-103275826D01*
X237509075Y-103402993D01*
X237541988Y-103460000D01*
X236647769Y-103460000D01*
X236658242Y-103526126D01*
X236658242Y-103526129D01*
X236723904Y-103728217D01*
X236820379Y-103917557D01*
X236945272Y-104089459D01*
X236945276Y-104089464D01*
X237095535Y-104239723D01*
X237095540Y-104239727D01*
X237267442Y-104364620D01*
X237456780Y-104461094D01*
X237485705Y-104470492D01*
X237543381Y-104509929D01*
X237570580Y-104574287D01*
X237558667Y-104643134D01*
X237511424Y-104694610D01*
X237503685Y-104698908D01*
X237372004Y-104766004D01*
X237225505Y-104872441D01*
X237225500Y-104872445D01*
X237097445Y-105000500D01*
X237097441Y-105000505D01*
X236991006Y-105147002D01*
X236908788Y-105308360D01*
X236908787Y-105308363D01*
X236852829Y-105480589D01*
X236824500Y-105659448D01*
X236824500Y-105840551D01*
X236852829Y-106019410D01*
X236908787Y-106191636D01*
X236908788Y-106191639D01*
X236964447Y-106300874D01*
X236982954Y-106337196D01*
X236991006Y-106352997D01*
X237097441Y-106499494D01*
X237097445Y-106499499D01*
X237225500Y-106627554D01*
X237225505Y-106627558D01*
X237353287Y-106720396D01*
X237372006Y-106733996D01*
X237477484Y-106787740D01*
X237533360Y-106816211D01*
X237533363Y-106816212D01*
X237619476Y-106844191D01*
X237705591Y-106872171D01*
X237778639Y-106883740D01*
X237865678Y-106897527D01*
X237928813Y-106927456D01*
X237965744Y-106986768D01*
X237964746Y-107056631D01*
X237926136Y-107114863D01*
X237865678Y-107142473D01*
X237705589Y-107167829D01*
X237533363Y-107223787D01*
X237533360Y-107223788D01*
X237372002Y-107306006D01*
X237225505Y-107412441D01*
X237225500Y-107412445D01*
X237097445Y-107540500D01*
X237097441Y-107540505D01*
X236991006Y-107687002D01*
X236908788Y-107848360D01*
X236908787Y-107848363D01*
X236852829Y-108020589D01*
X236824500Y-108199448D01*
X236824500Y-108380551D01*
X236852829Y-108559410D01*
X236908787Y-108731636D01*
X236908788Y-108731639D01*
X236991006Y-108892997D01*
X237097441Y-109039494D01*
X237097445Y-109039499D01*
X237225500Y-109167554D01*
X237225505Y-109167558D01*
X237353287Y-109260396D01*
X237372006Y-109273996D01*
X237477484Y-109327740D01*
X237533360Y-109356211D01*
X237533363Y-109356212D01*
X237619476Y-109384191D01*
X237705591Y-109412171D01*
X237809716Y-109428662D01*
X237837270Y-109433027D01*
X237900405Y-109462956D01*
X237937336Y-109522268D01*
X237936338Y-109592130D01*
X237897728Y-109650363D01*
X237833765Y-109678477D01*
X237817872Y-109679500D01*
X237080143Y-109679500D01*
X237080117Y-109679502D01*
X237055012Y-109682413D01*
X237055008Y-109682415D01*
X236952235Y-109727793D01*
X236872794Y-109807234D01*
X236827415Y-109910006D01*
X236827415Y-109910008D01*
X236824500Y-109935131D01*
X236824500Y-111724856D01*
X236824502Y-111724882D01*
X236827413Y-111749987D01*
X236827415Y-111749991D01*
X236872793Y-111852764D01*
X236872794Y-111852765D01*
X236952235Y-111932206D01*
X237055009Y-111977585D01*
X237080135Y-111980500D01*
X238869864Y-111980499D01*
X238869879Y-111980497D01*
X238869882Y-111980497D01*
X238894987Y-111977586D01*
X238894988Y-111977585D01*
X238894991Y-111977585D01*
X238997765Y-111932206D01*
X239077206Y-111852765D01*
X239122585Y-111749991D01*
X239125500Y-111724865D01*
X239125499Y-109935136D01*
X239125497Y-109935117D01*
X239122586Y-109910012D01*
X239122585Y-109910010D01*
X239122585Y-109910009D01*
X239077206Y-109807235D01*
X238997765Y-109727794D01*
X238997763Y-109727793D01*
X238894992Y-109682415D01*
X238869868Y-109679500D01*
X238132128Y-109679500D01*
X238065089Y-109659815D01*
X238019334Y-109607011D01*
X238009390Y-109537853D01*
X238038415Y-109474297D01*
X238097193Y-109436523D01*
X238112730Y-109433027D01*
X238136014Y-109429338D01*
X238244409Y-109412171D01*
X238416639Y-109356211D01*
X238577994Y-109273996D01*
X238724501Y-109167553D01*
X238852553Y-109039501D01*
X238958996Y-108892994D01*
X239041211Y-108731639D01*
X239097171Y-108559409D01*
X239119595Y-108417829D01*
X239125500Y-108380551D01*
X239125500Y-108199448D01*
X239109019Y-108095397D01*
X239097171Y-108020591D01*
X239041211Y-107848361D01*
X239041211Y-107848360D01*
X238990835Y-107749494D01*
X238958996Y-107687006D01*
X238945396Y-107668287D01*
X238852558Y-107540505D01*
X238852554Y-107540500D01*
X238724499Y-107412445D01*
X238724494Y-107412441D01*
X238577997Y-107306006D01*
X238577996Y-107306005D01*
X238577994Y-107306004D01*
X238506173Y-107269409D01*
X238416639Y-107223788D01*
X238416636Y-107223787D01*
X238244410Y-107167829D01*
X238084321Y-107142473D01*
X238021186Y-107112544D01*
X237984255Y-107053232D01*
X237985253Y-106983370D01*
X238023863Y-106925137D01*
X238084321Y-106897527D01*
X238154425Y-106886422D01*
X238244409Y-106872171D01*
X238416639Y-106816211D01*
X238577994Y-106733996D01*
X238724501Y-106627553D01*
X238852553Y-106499501D01*
X238958996Y-106352994D01*
X239041211Y-106191639D01*
X239097171Y-106019409D01*
X239113564Y-105915905D01*
X239125500Y-105840551D01*
X239125500Y-105659448D01*
X239097515Y-105482764D01*
X239097171Y-105480591D01*
X239058133Y-105360442D01*
X239041212Y-105308363D01*
X239041211Y-105308360D01*
X239012740Y-105252484D01*
X238958996Y-105147006D01*
X238934495Y-105113283D01*
X238852558Y-105000505D01*
X238852554Y-105000500D01*
X238724499Y-104872445D01*
X238724494Y-104872441D01*
X238577995Y-104766004D01*
X238446314Y-104698908D01*
X238395519Y-104650934D01*
X238378724Y-104583113D01*
X238401262Y-104516978D01*
X238455977Y-104473527D01*
X238464295Y-104470492D01*
X238493217Y-104461095D01*
X238682557Y-104364620D01*
X238854459Y-104239727D01*
X238854464Y-104239723D01*
X239004723Y-104089464D01*
X239004727Y-104089459D01*
X239129620Y-103917557D01*
X239226095Y-103728217D01*
X239291757Y-103526129D01*
X239291757Y-103526126D01*
X239302231Y-103460000D01*
X238408012Y-103460000D01*
X238440925Y-103402993D01*
X238475000Y-103275826D01*
X238475000Y-103144174D01*
X238440925Y-103017007D01*
X238408012Y-102960000D01*
X239302231Y-102960000D01*
X239291757Y-102893873D01*
X239291757Y-102893870D01*
X239226095Y-102691782D01*
X239129620Y-102502442D01*
X239004727Y-102330540D01*
X239004723Y-102330535D01*
X238854464Y-102180276D01*
X238854459Y-102180272D01*
X238682557Y-102055379D01*
X238493215Y-101958903D01*
X238291124Y-101893241D01*
X238225000Y-101882768D01*
X238225000Y-102776988D01*
X238167993Y-102744075D01*
X238040826Y-102710000D01*
X237909174Y-102710000D01*
X237782007Y-102744075D01*
X237725000Y-102776988D01*
X237725000Y-101882768D01*
X237724999Y-101882768D01*
X237658875Y-101893241D01*
X237456784Y-101958903D01*
X237267442Y-102055379D01*
X237095540Y-102180272D01*
X237095535Y-102180276D01*
X236945276Y-102330535D01*
X236945272Y-102330540D01*
X236820379Y-102502442D01*
X236723904Y-102691782D01*
X236658242Y-102893870D01*
X236658242Y-102893873D01*
X236647769Y-102960000D01*
X207171746Y-102960000D01*
X210163820Y-99967926D01*
X210163823Y-99967925D01*
X210207082Y-99924665D01*
X210246692Y-99885055D01*
X210246693Y-99885052D01*
X210252477Y-99879269D01*
X210252574Y-99879157D01*
X210355243Y-99776490D01*
X210629684Y-99459767D01*
X210880831Y-99124274D01*
X211107405Y-98771718D01*
X211308250Y-98403898D01*
X211482345Y-98022686D01*
X211628800Y-97630027D01*
X211746871Y-97227919D01*
X211755574Y-97187916D01*
X211815663Y-96911695D01*
X211835956Y-96818414D01*
X211895599Y-96403596D01*
X211925499Y-95985581D01*
X211925500Y-95776039D01*
X211925501Y-95714861D01*
X211925500Y-95714857D01*
X211925500Y-68815141D01*
X211925501Y-68815138D01*
X211925500Y-68805333D01*
X211925509Y-68805302D01*
X211925509Y-68753960D01*
X211925510Y-68753960D01*
X211925509Y-68544418D01*
X211895609Y-68126402D01*
X211835965Y-67711584D01*
X211835964Y-67711578D01*
X211746883Y-67302084D01*
X211746880Y-67302074D01*
X211701862Y-67148758D01*
X211628810Y-66899969D01*
X211482353Y-66507309D01*
X211308259Y-66126097D01*
X211107413Y-65758276D01*
X210983286Y-65565131D01*
X236849500Y-65565131D01*
X236849500Y-67354856D01*
X236849502Y-67354882D01*
X236852413Y-67379987D01*
X236852415Y-67379991D01*
X236897793Y-67482764D01*
X236897794Y-67482765D01*
X236977235Y-67562206D01*
X237080009Y-67607585D01*
X237105135Y-67610500D01*
X237842873Y-67610499D01*
X237909910Y-67630183D01*
X237955665Y-67682987D01*
X237965609Y-67752146D01*
X237936584Y-67815702D01*
X237877806Y-67853476D01*
X237862270Y-67856972D01*
X237730589Y-67877829D01*
X237558363Y-67933787D01*
X237558360Y-67933788D01*
X237397002Y-68016006D01*
X237250505Y-68122441D01*
X237250500Y-68122445D01*
X237122445Y-68250500D01*
X237122441Y-68250505D01*
X237016006Y-68397002D01*
X236933788Y-68558360D01*
X236933787Y-68558363D01*
X236877829Y-68730589D01*
X236849500Y-68909448D01*
X236849500Y-69090551D01*
X236877829Y-69269410D01*
X236933787Y-69441636D01*
X236933788Y-69441639D01*
X237016006Y-69602997D01*
X237122441Y-69749494D01*
X237122445Y-69749499D01*
X237250500Y-69877554D01*
X237250505Y-69877558D01*
X237378287Y-69970396D01*
X237397006Y-69983996D01*
X237502484Y-70037740D01*
X237558360Y-70066211D01*
X237558363Y-70066212D01*
X237644476Y-70094191D01*
X237730591Y-70122171D01*
X237803639Y-70133740D01*
X237890678Y-70147527D01*
X237953813Y-70177456D01*
X237990744Y-70236768D01*
X237989746Y-70306631D01*
X237951136Y-70364863D01*
X237890678Y-70392473D01*
X237730589Y-70417829D01*
X237558363Y-70473787D01*
X237558360Y-70473788D01*
X237397002Y-70556006D01*
X237250505Y-70662441D01*
X237250500Y-70662445D01*
X237122445Y-70790500D01*
X237122441Y-70790505D01*
X237016006Y-70937002D01*
X236933788Y-71098360D01*
X236933787Y-71098363D01*
X236877829Y-71270589D01*
X236849500Y-71449448D01*
X236849500Y-71630551D01*
X236877829Y-71809410D01*
X236933787Y-71981636D01*
X236933788Y-71981639D01*
X237016006Y-72142997D01*
X237122441Y-72289494D01*
X237122445Y-72289499D01*
X237250500Y-72417554D01*
X237250505Y-72417558D01*
X237378287Y-72510396D01*
X237397006Y-72523996D01*
X237502484Y-72577740D01*
X237558360Y-72606211D01*
X237558363Y-72606212D01*
X237644476Y-72634191D01*
X237730591Y-72662171D01*
X237813429Y-72675291D01*
X237909449Y-72690500D01*
X237909454Y-72690500D01*
X238090551Y-72690500D01*
X238177259Y-72676765D01*
X238269409Y-72662171D01*
X238441639Y-72606211D01*
X238602994Y-72523996D01*
X238749501Y-72417553D01*
X238877553Y-72289501D01*
X238983996Y-72142994D01*
X239066211Y-71981639D01*
X239122171Y-71809409D01*
X239136765Y-71717259D01*
X239150500Y-71630551D01*
X239150500Y-71449448D01*
X239134019Y-71345397D01*
X239122171Y-71270591D01*
X239066211Y-71098361D01*
X239066211Y-71098360D01*
X239037740Y-71042484D01*
X238983996Y-70937006D01*
X238970396Y-70918287D01*
X238877558Y-70790505D01*
X238877554Y-70790500D01*
X238749499Y-70662445D01*
X238749494Y-70662441D01*
X238602997Y-70556006D01*
X238602996Y-70556005D01*
X238602994Y-70556004D01*
X238551300Y-70529664D01*
X238441639Y-70473788D01*
X238441636Y-70473787D01*
X238269410Y-70417829D01*
X238109321Y-70392473D01*
X238046186Y-70362544D01*
X238009255Y-70303232D01*
X238010253Y-70233370D01*
X238048863Y-70175137D01*
X238109321Y-70147527D01*
X238179425Y-70136422D01*
X238269409Y-70122171D01*
X238441639Y-70066211D01*
X238602994Y-69983996D01*
X238749501Y-69877553D01*
X238877553Y-69749501D01*
X238983996Y-69602994D01*
X239066211Y-69441639D01*
X239122171Y-69269409D01*
X239136765Y-69177259D01*
X239150500Y-69090551D01*
X239150500Y-68909448D01*
X239133493Y-68802074D01*
X239122171Y-68730591D01*
X239066211Y-68558361D01*
X239066211Y-68558360D01*
X239037740Y-68502484D01*
X238983996Y-68397006D01*
X238935299Y-68329980D01*
X238877558Y-68250505D01*
X238877554Y-68250500D01*
X238749499Y-68122445D01*
X238749494Y-68122441D01*
X238602997Y-68016006D01*
X238602996Y-68016005D01*
X238602994Y-68016004D01*
X238534572Y-67981141D01*
X238441639Y-67933788D01*
X238441636Y-67933787D01*
X238269410Y-67877829D01*
X238137728Y-67856972D01*
X238074594Y-67827042D01*
X238037663Y-67767731D01*
X238038661Y-67697868D01*
X238077271Y-67639636D01*
X238141235Y-67611522D01*
X238157120Y-67610499D01*
X238894864Y-67610499D01*
X238894879Y-67610497D01*
X238894882Y-67610497D01*
X238919987Y-67607586D01*
X238919988Y-67607585D01*
X238919991Y-67607585D01*
X239022765Y-67562206D01*
X239102206Y-67482765D01*
X239147585Y-67379991D01*
X239150500Y-67354865D01*
X239150499Y-65565136D01*
X239149766Y-65558815D01*
X239147586Y-65540012D01*
X239147585Y-65540010D01*
X239147585Y-65540009D01*
X239102206Y-65437235D01*
X239022765Y-65357794D01*
X238971094Y-65334979D01*
X238919992Y-65312415D01*
X238894865Y-65309500D01*
X237105143Y-65309500D01*
X237105117Y-65309502D01*
X237080012Y-65312413D01*
X237080008Y-65312415D01*
X236977235Y-65357793D01*
X236897794Y-65437234D01*
X236852415Y-65540006D01*
X236852415Y-65540008D01*
X236849500Y-65565131D01*
X210983286Y-65565131D01*
X210923482Y-65472074D01*
X210880842Y-65405724D01*
X210629685Y-65070218D01*
X210462676Y-64877480D01*
X210355249Y-64753503D01*
X210246693Y-64644946D01*
X210246692Y-64644944D01*
X210185452Y-64583704D01*
X210163823Y-64562074D01*
X210163820Y-64562072D01*
X209094998Y-63493250D01*
X209094986Y-63493236D01*
X209044679Y-63442931D01*
X209044665Y-63442917D01*
X209005055Y-63403307D01*
X209005020Y-63403287D01*
X209001943Y-63400211D01*
X208896489Y-63294757D01*
X208695027Y-63120189D01*
X208579765Y-63020314D01*
X208244277Y-62769171D01*
X208244253Y-62769154D01*
X207891728Y-62542601D01*
X207891715Y-62542593D01*
X207523893Y-62341748D01*
X207142693Y-62167658D01*
X207142690Y-62167657D01*
X207142686Y-62167655D01*
X206750026Y-62021200D01*
X206695774Y-62005269D01*
X206347916Y-61903127D01*
X205938416Y-61814044D01*
X205523596Y-61754401D01*
X205105581Y-61724500D01*
X204952054Y-61724500D01*
X204896039Y-61724500D01*
X204834861Y-61724499D01*
X204834858Y-61724500D01*
X199146537Y-61724500D01*
X199079498Y-61704815D01*
X199036052Y-61656795D01*
X198993479Y-61573240D01*
X198966760Y-61520801D01*
X198855690Y-61367927D01*
X198722073Y-61234310D01*
X198569199Y-61123240D01*
X198554448Y-61115724D01*
X198400836Y-61037454D01*
X198326472Y-61013291D01*
X198279195Y-60997930D01*
X198221521Y-60958493D01*
X198194323Y-60894134D01*
X198206238Y-60825288D01*
X198253482Y-60773812D01*
X198279194Y-60762069D01*
X198400832Y-60722547D01*
X198569199Y-60636760D01*
X198722073Y-60525690D01*
X198855690Y-60392073D01*
X198966760Y-60239199D01*
X199052547Y-60070832D01*
X199110940Y-59891118D01*
X199140500Y-59704486D01*
X199140500Y-59515513D01*
X199110940Y-59328881D01*
X199052545Y-59149163D01*
X198966759Y-58980800D01*
X198855690Y-58827927D01*
X198722073Y-58694310D01*
X198569199Y-58583240D01*
X198400836Y-58497454D01*
X198326472Y-58473291D01*
X198279195Y-58457930D01*
X198221521Y-58418493D01*
X198194323Y-58354134D01*
X198206238Y-58285288D01*
X198253482Y-58233812D01*
X198279194Y-58222069D01*
X198400832Y-58182547D01*
X198569199Y-58096760D01*
X198722073Y-57985690D01*
X198855690Y-57852073D01*
X198966760Y-57699199D01*
X199052547Y-57530832D01*
X199110940Y-57351118D01*
X199140500Y-57164486D01*
X199140500Y-56975513D01*
X199110940Y-56788881D01*
X199052545Y-56609163D01*
X198966759Y-56440800D01*
X198855690Y-56287927D01*
X198722073Y-56154310D01*
X198569199Y-56043240D01*
X198400836Y-55957454D01*
X198326472Y-55933291D01*
X198279195Y-55917930D01*
X198221521Y-55878493D01*
X198194323Y-55814134D01*
X198206238Y-55745288D01*
X198253482Y-55693812D01*
X198279194Y-55682069D01*
X198400832Y-55642547D01*
X198569199Y-55556760D01*
X198722073Y-55445690D01*
X198855690Y-55312073D01*
X198966760Y-55159199D01*
X199052547Y-54990832D01*
X199110940Y-54811118D01*
X199140500Y-54624486D01*
X199140500Y-54435513D01*
X199110940Y-54248881D01*
X199052545Y-54069163D01*
X198966759Y-53900800D01*
X198855690Y-53747927D01*
X198722073Y-53614310D01*
X198569199Y-53503240D01*
X198400836Y-53417454D01*
X198326472Y-53393291D01*
X198279195Y-53377930D01*
X198221521Y-53338493D01*
X198194323Y-53274134D01*
X198206238Y-53205288D01*
X198253482Y-53153812D01*
X198279194Y-53142069D01*
X198400832Y-53102547D01*
X198569199Y-53016760D01*
X198722073Y-52905690D01*
X198855690Y-52772073D01*
X198966760Y-52619199D01*
X199052547Y-52450832D01*
X199110940Y-52271118D01*
X199140500Y-52084486D01*
X199140500Y-51895513D01*
X199110940Y-51708881D01*
X199052545Y-51529163D01*
X198966759Y-51360800D01*
X198855690Y-51207927D01*
X198722073Y-51074310D01*
X198569199Y-50963240D01*
X198400836Y-50877454D01*
X198285370Y-50839937D01*
X198279195Y-50837930D01*
X198221521Y-50798493D01*
X198194323Y-50734134D01*
X198206238Y-50665288D01*
X198253482Y-50613812D01*
X198279194Y-50602069D01*
X198400832Y-50562547D01*
X198569199Y-50476760D01*
X198722073Y-50365690D01*
X198855690Y-50232073D01*
X198966760Y-50079199D01*
X199052547Y-49910832D01*
X199110940Y-49731118D01*
X199115869Y-49700000D01*
X199140500Y-49544486D01*
X199140500Y-49355513D01*
X199110940Y-49168881D01*
X199052545Y-48989163D01*
X198972231Y-48831539D01*
X198966760Y-48820801D01*
X198855690Y-48667927D01*
X198722073Y-48534310D01*
X198569199Y-48423240D01*
X198400836Y-48337454D01*
X198326472Y-48313291D01*
X198279195Y-48297930D01*
X198221521Y-48258493D01*
X198194323Y-48194134D01*
X198206238Y-48125288D01*
X198253482Y-48073812D01*
X198279194Y-48062069D01*
X198400832Y-48022547D01*
X198525751Y-47958898D01*
X218593500Y-47958898D01*
X218593500Y-50345102D01*
X218599126Y-50391954D01*
X218604122Y-50433561D01*
X218659639Y-50574343D01*
X218751077Y-50694922D01*
X218871656Y-50786360D01*
X218871657Y-50786360D01*
X218871658Y-50786361D01*
X219012436Y-50841877D01*
X219100898Y-50852500D01*
X219100903Y-50852500D01*
X219687097Y-50852500D01*
X219687102Y-50852500D01*
X219775564Y-50841877D01*
X219916342Y-50786361D01*
X220036922Y-50694922D01*
X220128361Y-50574342D01*
X220183877Y-50433564D01*
X220194500Y-50345102D01*
X220194500Y-47958898D01*
X223543500Y-47958898D01*
X223543500Y-50345102D01*
X223549126Y-50391954D01*
X223554122Y-50433561D01*
X223609639Y-50574343D01*
X223701077Y-50694922D01*
X223821656Y-50786360D01*
X223821657Y-50786360D01*
X223821658Y-50786361D01*
X223962436Y-50841877D01*
X224050898Y-50852500D01*
X224050903Y-50852500D01*
X224637097Y-50852500D01*
X224637102Y-50852500D01*
X224725564Y-50841877D01*
X224866342Y-50786361D01*
X224986922Y-50694922D01*
X225078361Y-50574342D01*
X225133877Y-50433564D01*
X225144500Y-50345102D01*
X225144500Y-47958898D01*
X225133877Y-47870436D01*
X225078361Y-47729658D01*
X225078360Y-47729657D01*
X225078360Y-47729656D01*
X224986922Y-47609077D01*
X224866343Y-47517639D01*
X224725561Y-47462122D01*
X224679926Y-47456642D01*
X224637102Y-47451500D01*
X224050898Y-47451500D01*
X224011853Y-47456188D01*
X223962438Y-47462122D01*
X223821656Y-47517639D01*
X223701077Y-47609077D01*
X223609639Y-47729656D01*
X223554122Y-47870438D01*
X223552317Y-47885474D01*
X223543500Y-47958898D01*
X220194500Y-47958898D01*
X220183877Y-47870436D01*
X220128361Y-47729658D01*
X220128360Y-47729657D01*
X220128360Y-47729656D01*
X220036922Y-47609077D01*
X219916343Y-47517639D01*
X219775561Y-47462122D01*
X219729926Y-47456642D01*
X219687102Y-47451500D01*
X219100898Y-47451500D01*
X219061853Y-47456188D01*
X219012438Y-47462122D01*
X218871656Y-47517639D01*
X218751077Y-47609077D01*
X218659639Y-47729656D01*
X218604122Y-47870438D01*
X218602317Y-47885474D01*
X218593500Y-47958898D01*
X198525751Y-47958898D01*
X198569199Y-47936760D01*
X198722073Y-47825690D01*
X198855690Y-47692073D01*
X198966760Y-47539199D01*
X199052547Y-47370832D01*
X199110940Y-47191118D01*
X199124852Y-47103281D01*
X199140500Y-47004486D01*
X199140500Y-46815513D01*
X199110940Y-46628881D01*
X199052545Y-46449163D01*
X198972231Y-46291539D01*
X198966760Y-46280801D01*
X198855690Y-46127927D01*
X198722073Y-45994310D01*
X198650218Y-45942104D01*
X198607554Y-45886774D01*
X198601575Y-45817161D01*
X198634181Y-45755366D01*
X198688995Y-45722571D01*
X198744214Y-45706771D01*
X198915474Y-45617313D01*
X199065215Y-45495215D01*
X199187313Y-45345474D01*
X199276771Y-45174215D01*
X199329920Y-44988461D01*
X199329921Y-44988458D01*
X199339999Y-44875097D01*
X199340000Y-44875095D01*
X199340000Y-44620000D01*
X198373012Y-44620000D01*
X198405925Y-44562993D01*
X198440000Y-44435826D01*
X198440000Y-44304174D01*
X198405925Y-44177007D01*
X198373012Y-44120000D01*
X199339999Y-44120000D01*
X199339999Y-43864907D01*
X199339998Y-43864901D01*
X199329921Y-43751539D01*
X199276771Y-43565784D01*
X199187313Y-43394525D01*
X199065215Y-43244784D01*
X198915474Y-43122686D01*
X198744216Y-43033229D01*
X198688993Y-43017428D01*
X198629956Y-42980061D01*
X198600492Y-42916707D01*
X198609957Y-42847481D01*
X198650218Y-42797895D01*
X198722073Y-42745690D01*
X198855690Y-42612073D01*
X198966760Y-42459199D01*
X199052547Y-42290832D01*
X199110940Y-42111118D01*
X199117612Y-42068993D01*
X199140500Y-41924486D01*
X199140500Y-39195513D01*
X199124303Y-39093249D01*
X199121754Y-39077155D01*
X205125000Y-39077155D01*
X205125000Y-39725000D01*
X206041988Y-39725000D01*
X206009075Y-39782007D01*
X205975000Y-39909174D01*
X205975000Y-40040826D01*
X206009075Y-40167993D01*
X206041988Y-40225000D01*
X205125000Y-40225000D01*
X205125000Y-40872844D01*
X205131401Y-40932372D01*
X205131403Y-40932379D01*
X205181645Y-41067086D01*
X205181649Y-41067093D01*
X205267809Y-41182187D01*
X205267812Y-41182190D01*
X205382906Y-41268350D01*
X205382913Y-41268354D01*
X205517620Y-41318596D01*
X205517627Y-41318598D01*
X205577155Y-41324999D01*
X205577172Y-41325000D01*
X206225000Y-41325000D01*
X206225000Y-40408012D01*
X206282007Y-40440925D01*
X206409174Y-40475000D01*
X206540826Y-40475000D01*
X206667993Y-40440925D01*
X206725000Y-40408012D01*
X206725000Y-41325000D01*
X207372828Y-41325000D01*
X207372844Y-41324999D01*
X207432372Y-41318598D01*
X207432379Y-41318596D01*
X207567086Y-41268354D01*
X207567093Y-41268350D01*
X207682187Y-41182190D01*
X207682190Y-41182187D01*
X207685387Y-41177916D01*
X217318499Y-41177916D01*
X217333537Y-41272863D01*
X217333538Y-41272866D01*
X217333539Y-41272868D01*
X217391854Y-41387318D01*
X217391855Y-41387319D01*
X217391858Y-41387323D01*
X217482676Y-41478141D01*
X217482680Y-41478144D01*
X217482682Y-41478146D01*
X217597132Y-41536461D01*
X217597134Y-41536461D01*
X217597136Y-41536462D01*
X217692083Y-41551500D01*
X217692084Y-41551500D01*
X218241980Y-41551500D01*
X218309019Y-41571185D01*
X218354774Y-41623989D01*
X218364718Y-41693147D01*
X218356541Y-41722952D01*
X218326421Y-41795667D01*
X218326418Y-41795677D01*
X218299500Y-41931004D01*
X218299500Y-41931007D01*
X218299500Y-42068993D01*
X218299500Y-42068995D01*
X218299499Y-42068995D01*
X218326418Y-42204322D01*
X218326421Y-42204332D01*
X218379221Y-42331804D01*
X218379228Y-42331817D01*
X218455885Y-42446541D01*
X218455888Y-42446545D01*
X218553454Y-42544111D01*
X218553458Y-42544114D01*
X218668182Y-42620771D01*
X218668195Y-42620778D01*
X218784972Y-42669148D01*
X218795672Y-42673580D01*
X218795676Y-42673580D01*
X218795677Y-42673581D01*
X218931004Y-42700500D01*
X218931007Y-42700500D01*
X219068995Y-42700500D01*
X219189658Y-42676498D01*
X219204328Y-42673580D01*
X219215028Y-42669147D01*
X219281881Y-42661234D01*
X219286825Y-42662017D01*
X219378265Y-42676500D01*
X219859734Y-42676499D01*
X219859739Y-42676499D01*
X219859739Y-42676498D01*
X219906149Y-42669148D01*
X219951170Y-42662018D01*
X219951171Y-42662018D01*
X219951172Y-42662017D01*
X219951175Y-42662017D01*
X220061391Y-42605859D01*
X220148859Y-42518391D01*
X220205017Y-42408175D01*
X220205017Y-42408173D01*
X220205018Y-42408172D01*
X220205018Y-42408171D01*
X220208901Y-42383650D01*
X220219500Y-42316735D01*
X220219499Y-41185266D01*
X220219499Y-41185264D01*
X220518500Y-41185264D01*
X220518500Y-42316739D01*
X220532981Y-42408170D01*
X220532981Y-42408171D01*
X220589142Y-42518393D01*
X220594819Y-42526206D01*
X220618298Y-42592012D01*
X220618500Y-42599090D01*
X220618500Y-45514646D01*
X220618498Y-45522734D01*
X220618496Y-45522745D01*
X220618497Y-45537290D01*
X220618494Y-45537300D01*
X220618498Y-45658945D01*
X220634438Y-45739060D01*
X220637682Y-45755366D01*
X220641116Y-45772622D01*
X220643500Y-45796819D01*
X220643500Y-46556269D01*
X220646353Y-46586699D01*
X220646353Y-46586701D01*
X220691206Y-46714880D01*
X220691207Y-46714882D01*
X220771850Y-46824150D01*
X220881118Y-46904793D01*
X220923845Y-46919744D01*
X221009299Y-46949646D01*
X221039730Y-46952500D01*
X221039734Y-46952500D01*
X221448270Y-46952500D01*
X221478699Y-46949646D01*
X221478701Y-46949646D01*
X221542790Y-46927219D01*
X221606882Y-46904793D01*
X221649679Y-46873206D01*
X221715305Y-46849237D01*
X221783476Y-46864552D01*
X221819147Y-46899246D01*
X221821537Y-46897393D01*
X221826321Y-46903561D01*
X221942438Y-47019678D01*
X221942447Y-47019685D01*
X222083801Y-47103281D01*
X222241514Y-47149100D01*
X222241511Y-47149100D01*
X222243998Y-47149295D01*
X222244000Y-47149295D01*
X222744000Y-47149295D01*
X222744001Y-47149295D01*
X222746486Y-47149100D01*
X222904198Y-47103281D01*
X223045552Y-47019685D01*
X223045561Y-47019678D01*
X223161678Y-46903561D01*
X223161685Y-46903552D01*
X223245282Y-46762196D01*
X223245283Y-46762193D01*
X223291099Y-46604495D01*
X223291100Y-46604489D01*
X223293999Y-46567649D01*
X223294000Y-46567634D01*
X223294000Y-46052000D01*
X222744000Y-46052000D01*
X222744000Y-47149295D01*
X222244000Y-47149295D01*
X222244000Y-45552000D01*
X222744000Y-45552000D01*
X223294000Y-45552000D01*
X223294000Y-45036365D01*
X223293999Y-45036350D01*
X223291100Y-44999510D01*
X223291099Y-44999504D01*
X223245283Y-44841806D01*
X223245282Y-44841803D01*
X223161685Y-44700447D01*
X223161678Y-44700438D01*
X223045561Y-44584321D01*
X223045552Y-44584314D01*
X222904196Y-44500717D01*
X222904193Y-44500716D01*
X222746494Y-44454900D01*
X222746497Y-44454900D01*
X222744000Y-44454703D01*
X222744000Y-45552000D01*
X222244000Y-45552000D01*
X222244000Y-44454703D01*
X222241503Y-44454900D01*
X222083806Y-44500716D01*
X222083803Y-44500717D01*
X221942447Y-44584314D01*
X221942438Y-44584321D01*
X221831181Y-44695579D01*
X221769858Y-44729064D01*
X221700166Y-44724080D01*
X221644233Y-44682208D01*
X221619816Y-44616744D01*
X221619500Y-44607898D01*
X221619500Y-42599090D01*
X221639185Y-42532051D01*
X221643181Y-42526206D01*
X221648857Y-42518393D01*
X221648858Y-42518392D01*
X221648859Y-42518391D01*
X221705017Y-42408175D01*
X221705017Y-42408173D01*
X221705018Y-42408172D01*
X221705018Y-42408171D01*
X221708901Y-42383650D01*
X221719500Y-42316735D01*
X221719499Y-41185266D01*
X221719499Y-41185264D01*
X223518500Y-41185264D01*
X223518500Y-42316739D01*
X223532981Y-42408170D01*
X223532981Y-42408171D01*
X223589142Y-42518392D01*
X223589145Y-42518396D01*
X223676603Y-42605854D01*
X223676605Y-42605855D01*
X223676609Y-42605859D01*
X223786825Y-42662017D01*
X223786826Y-42662017D01*
X223786828Y-42662018D01*
X223821947Y-42667579D01*
X223878265Y-42676500D01*
X224359734Y-42676499D01*
X224359739Y-42676499D01*
X224359739Y-42676498D01*
X224406149Y-42669148D01*
X224451170Y-42662018D01*
X224451171Y-42662018D01*
X224451172Y-42662017D01*
X224451175Y-42662017D01*
X224561391Y-42605859D01*
X224648859Y-42518391D01*
X224705017Y-42408175D01*
X224705017Y-42408173D01*
X224705018Y-42408172D01*
X224705018Y-42408171D01*
X224708901Y-42383650D01*
X224719500Y-42316735D01*
X224719499Y-41597347D01*
X224739183Y-41530310D01*
X224791987Y-41484555D01*
X224861146Y-41474611D01*
X224899788Y-41486862D01*
X224997132Y-41536461D01*
X224997134Y-41536461D01*
X224997136Y-41536462D01*
X225092083Y-41551500D01*
X225092084Y-41551500D01*
X226045916Y-41551500D01*
X226140863Y-41536462D01*
X226140863Y-41536461D01*
X226140868Y-41536461D01*
X226255318Y-41478146D01*
X226346146Y-41387318D01*
X226350531Y-41378711D01*
X234649500Y-41378711D01*
X234649500Y-41621288D01*
X234681161Y-41861785D01*
X234743947Y-42096104D01*
X234788773Y-42204322D01*
X234836776Y-42320212D01*
X234958064Y-42530289D01*
X234958066Y-42530292D01*
X234958067Y-42530293D01*
X235105733Y-42722736D01*
X235105739Y-42722743D01*
X235277256Y-42894260D01*
X235277262Y-42894265D01*
X235469711Y-43041936D01*
X235679788Y-43163224D01*
X235903900Y-43256054D01*
X236138211Y-43318838D01*
X236318586Y-43342584D01*
X236378711Y-43350500D01*
X236378712Y-43350500D01*
X236621289Y-43350500D01*
X236676434Y-43343240D01*
X236861789Y-43318838D01*
X237096100Y-43256054D01*
X237320212Y-43163224D01*
X237530289Y-43041936D01*
X237722738Y-42894265D01*
X237894265Y-42722738D01*
X238041936Y-42530289D01*
X238163224Y-42320212D01*
X238256054Y-42096100D01*
X238318838Y-41861789D01*
X238350500Y-41621288D01*
X238350500Y-41378712D01*
X238318838Y-41138211D01*
X238256054Y-40903900D01*
X238163224Y-40679788D01*
X238041936Y-40469711D01*
X237969338Y-40375099D01*
X237894266Y-40277263D01*
X237894260Y-40277256D01*
X237722743Y-40105739D01*
X237722736Y-40105733D01*
X237530293Y-39958067D01*
X237530292Y-39958066D01*
X237530289Y-39958064D01*
X237320212Y-39836776D01*
X237320205Y-39836773D01*
X237096104Y-39743947D01*
X236874131Y-39684469D01*
X236861789Y-39681162D01*
X236861788Y-39681161D01*
X236861785Y-39681161D01*
X236621289Y-39649500D01*
X236621288Y-39649500D01*
X236378712Y-39649500D01*
X236378711Y-39649500D01*
X236138214Y-39681161D01*
X235903895Y-39743947D01*
X235679794Y-39836773D01*
X235679785Y-39836777D01*
X235469706Y-39958067D01*
X235277263Y-40105733D01*
X235277256Y-40105739D01*
X235105739Y-40277256D01*
X235105733Y-40277263D01*
X234958067Y-40469706D01*
X234836777Y-40679785D01*
X234836773Y-40679794D01*
X234743947Y-40903895D01*
X234681161Y-41138214D01*
X234649500Y-41378711D01*
X226350531Y-41378711D01*
X226404461Y-41272868D01*
X226419500Y-41177916D01*
X226419500Y-40624084D01*
X226412894Y-40582374D01*
X226404462Y-40529136D01*
X226404461Y-40529134D01*
X226404461Y-40529132D01*
X226346146Y-40414682D01*
X226346144Y-40414680D01*
X226346141Y-40414676D01*
X226255323Y-40323858D01*
X226255319Y-40323855D01*
X226255318Y-40323854D01*
X226140868Y-40265539D01*
X226140866Y-40265538D01*
X226140863Y-40265537D01*
X226045916Y-40250500D01*
X225092084Y-40250500D01*
X224997136Y-40265537D01*
X224882680Y-40323855D01*
X224882676Y-40323858D01*
X224791858Y-40414676D01*
X224791855Y-40414680D01*
X224733537Y-40529136D01*
X224718500Y-40624083D01*
X224718500Y-40773842D01*
X224698815Y-40840881D01*
X224646011Y-40886636D01*
X224576853Y-40896580D01*
X224538205Y-40884327D01*
X224451171Y-40839981D01*
X224359735Y-40825500D01*
X223878260Y-40825500D01*
X223878260Y-40825501D01*
X223786829Y-40839981D01*
X223786828Y-40839981D01*
X223676607Y-40896142D01*
X223676603Y-40896145D01*
X223589145Y-40983603D01*
X223589142Y-40983608D01*
X223532981Y-41093827D01*
X223532981Y-41093828D01*
X223518500Y-41185264D01*
X221719499Y-41185264D01*
X221719499Y-41185261D01*
X221719498Y-41185259D01*
X221705018Y-41093829D01*
X221705018Y-41093828D01*
X221705017Y-41093826D01*
X221705017Y-41093825D01*
X221648859Y-40983609D01*
X221648857Y-40983607D01*
X221648854Y-40983603D01*
X221561396Y-40896145D01*
X221561393Y-40896143D01*
X221561391Y-40896141D01*
X221451175Y-40839983D01*
X221451174Y-40839982D01*
X221451171Y-40839981D01*
X221359735Y-40825500D01*
X220878260Y-40825500D01*
X220878260Y-40825501D01*
X220786829Y-40839981D01*
X220786828Y-40839981D01*
X220676607Y-40896142D01*
X220676603Y-40896145D01*
X220589145Y-40983603D01*
X220589142Y-40983608D01*
X220532981Y-41093827D01*
X220532981Y-41093828D01*
X220518500Y-41185264D01*
X220219499Y-41185264D01*
X220219499Y-41185261D01*
X220219498Y-41185259D01*
X220205018Y-41093829D01*
X220205018Y-41093828D01*
X220205017Y-41093826D01*
X220205017Y-41093825D01*
X220148859Y-40983609D01*
X220148857Y-40983607D01*
X220148854Y-40983603D01*
X220061396Y-40896145D01*
X220061393Y-40896143D01*
X220061391Y-40896141D01*
X219951175Y-40839983D01*
X219951174Y-40839982D01*
X219951171Y-40839981D01*
X219859735Y-40825500D01*
X219378260Y-40825500D01*
X219378260Y-40825501D01*
X219286829Y-40839981D01*
X219286825Y-40839982D01*
X219199794Y-40884327D01*
X219131125Y-40897223D01*
X219066385Y-40870946D01*
X219026128Y-40813839D01*
X219019500Y-40773842D01*
X219019500Y-40624083D01*
X219004462Y-40529136D01*
X219004461Y-40529134D01*
X219004461Y-40529132D01*
X218946146Y-40414682D01*
X218946144Y-40414680D01*
X218946141Y-40414676D01*
X218855323Y-40323858D01*
X218855319Y-40323855D01*
X218855318Y-40323854D01*
X218740868Y-40265539D01*
X218740866Y-40265538D01*
X218740863Y-40265537D01*
X218645916Y-40250500D01*
X217692084Y-40250500D01*
X217597136Y-40265537D01*
X217482680Y-40323855D01*
X217482676Y-40323858D01*
X217391858Y-40414676D01*
X217391855Y-40414680D01*
X217333537Y-40529136D01*
X217318500Y-40624083D01*
X217318500Y-41177916D01*
X217318499Y-41177916D01*
X207685387Y-41177916D01*
X207768350Y-41067093D01*
X207768354Y-41067086D01*
X207818596Y-40932379D01*
X207818598Y-40932372D01*
X207824999Y-40872844D01*
X207825000Y-40872827D01*
X207825000Y-40676087D01*
X207844685Y-40609048D01*
X207897489Y-40563293D01*
X207966647Y-40553349D01*
X208030203Y-40582374D01*
X208049318Y-40603202D01*
X208137441Y-40724495D01*
X208265500Y-40852554D01*
X208265505Y-40852558D01*
X208350502Y-40914311D01*
X208412006Y-40958996D01*
X208501750Y-41004723D01*
X208573360Y-41041211D01*
X208573363Y-41041212D01*
X208652997Y-41067086D01*
X208745591Y-41097171D01*
X208828429Y-41110291D01*
X208924449Y-41125500D01*
X208924454Y-41125500D01*
X209105551Y-41125500D01*
X209192259Y-41111765D01*
X209284409Y-41097171D01*
X209456639Y-41041211D01*
X209617994Y-40958996D01*
X209764501Y-40852553D01*
X209892553Y-40724501D01*
X209998996Y-40577994D01*
X210081211Y-40416639D01*
X210137171Y-40244409D01*
X210151422Y-40154425D01*
X210162527Y-40084321D01*
X210192456Y-40021186D01*
X210251768Y-39984255D01*
X210321630Y-39985253D01*
X210379863Y-40023863D01*
X210407473Y-40084321D01*
X210432829Y-40244410D01*
X210488787Y-40416636D01*
X210488788Y-40416639D01*
X210544664Y-40526300D01*
X210563513Y-40563293D01*
X210571006Y-40577997D01*
X210677441Y-40724494D01*
X210677445Y-40724499D01*
X210805500Y-40852554D01*
X210805505Y-40852558D01*
X210890502Y-40914311D01*
X210952006Y-40958996D01*
X211041750Y-41004723D01*
X211113360Y-41041211D01*
X211113363Y-41041212D01*
X211192997Y-41067086D01*
X211285591Y-41097171D01*
X211368429Y-41110291D01*
X211464449Y-41125500D01*
X211464454Y-41125500D01*
X211645551Y-41125500D01*
X211732259Y-41111765D01*
X211824409Y-41097171D01*
X211996639Y-41041211D01*
X212157994Y-40958996D01*
X212304501Y-40852553D01*
X212432553Y-40724501D01*
X212538996Y-40577994D01*
X212621211Y-40416639D01*
X212677171Y-40244409D01*
X212691765Y-40152259D01*
X212705500Y-40065551D01*
X212705500Y-39884448D01*
X212694901Y-39817533D01*
X219693499Y-39817533D01*
X219719458Y-39948030D01*
X219719461Y-39948040D01*
X219770376Y-40070961D01*
X219770386Y-40070979D01*
X219844301Y-40181601D01*
X219844307Y-40181609D01*
X219938390Y-40275692D01*
X219938398Y-40275698D01*
X220049020Y-40349613D01*
X220049023Y-40349614D01*
X220049031Y-40349620D01*
X220171964Y-40400540D01*
X220171968Y-40400540D01*
X220171969Y-40400541D01*
X220302466Y-40426500D01*
X220302469Y-40426500D01*
X220435533Y-40426500D01*
X220535481Y-40406618D01*
X220566036Y-40400540D01*
X220688969Y-40349620D01*
X220799606Y-40275695D01*
X220893695Y-40181606D01*
X220967620Y-40070969D01*
X221018540Y-39948036D01*
X221040672Y-39836776D01*
X221044500Y-39817533D01*
X222693499Y-39817533D01*
X222719458Y-39948030D01*
X222719461Y-39948040D01*
X222770376Y-40070961D01*
X222770386Y-40070979D01*
X222844301Y-40181601D01*
X222844307Y-40181609D01*
X222938390Y-40275692D01*
X222938398Y-40275698D01*
X223049020Y-40349613D01*
X223049023Y-40349614D01*
X223049031Y-40349620D01*
X223171964Y-40400540D01*
X223171968Y-40400540D01*
X223171969Y-40400541D01*
X223302466Y-40426500D01*
X223302469Y-40426500D01*
X223435533Y-40426500D01*
X223535481Y-40406618D01*
X223566036Y-40400540D01*
X223688969Y-40349620D01*
X223799606Y-40275695D01*
X223893695Y-40181606D01*
X223967620Y-40070969D01*
X224018540Y-39948036D01*
X224040672Y-39836776D01*
X224044500Y-39817533D01*
X224044500Y-39684466D01*
X224018541Y-39553969D01*
X224018540Y-39553968D01*
X224018540Y-39553964D01*
X223993711Y-39494021D01*
X223967623Y-39431038D01*
X223967622Y-39431037D01*
X223967620Y-39431031D01*
X223943840Y-39395442D01*
X223893698Y-39320398D01*
X223893692Y-39320390D01*
X223799609Y-39226307D01*
X223799601Y-39226301D01*
X223688979Y-39152386D01*
X223688972Y-39152382D01*
X223688969Y-39152380D01*
X223688965Y-39152378D01*
X223688961Y-39152376D01*
X223566040Y-39101461D01*
X223566030Y-39101458D01*
X223435533Y-39075500D01*
X223435531Y-39075500D01*
X223302469Y-39075500D01*
X223302467Y-39075500D01*
X223171969Y-39101458D01*
X223171959Y-39101461D01*
X223049038Y-39152376D01*
X223049020Y-39152386D01*
X222938398Y-39226301D01*
X222938390Y-39226307D01*
X222844307Y-39320390D01*
X222844301Y-39320398D01*
X222770386Y-39431020D01*
X222770376Y-39431038D01*
X222719461Y-39553959D01*
X222719458Y-39553969D01*
X222693500Y-39684466D01*
X222693500Y-39684469D01*
X222693500Y-39817531D01*
X222693500Y-39817533D01*
X222693499Y-39817533D01*
X221044500Y-39817533D01*
X221044500Y-39684466D01*
X221018541Y-39553969D01*
X221018540Y-39553968D01*
X221018540Y-39553964D01*
X220993711Y-39494021D01*
X220967623Y-39431038D01*
X220967622Y-39431037D01*
X220967620Y-39431031D01*
X220943840Y-39395442D01*
X220893698Y-39320398D01*
X220893692Y-39320390D01*
X220799609Y-39226307D01*
X220799601Y-39226301D01*
X220688979Y-39152386D01*
X220688972Y-39152382D01*
X220688969Y-39152380D01*
X220688965Y-39152378D01*
X220688961Y-39152376D01*
X220566040Y-39101461D01*
X220566030Y-39101458D01*
X220435533Y-39075500D01*
X220435531Y-39075500D01*
X220302469Y-39075500D01*
X220302467Y-39075500D01*
X220171969Y-39101458D01*
X220171959Y-39101461D01*
X220049038Y-39152376D01*
X220049020Y-39152386D01*
X219938398Y-39226301D01*
X219938390Y-39226307D01*
X219844307Y-39320390D01*
X219844301Y-39320398D01*
X219770386Y-39431020D01*
X219770376Y-39431038D01*
X219719461Y-39553959D01*
X219719458Y-39553969D01*
X219693500Y-39684466D01*
X219693500Y-39684469D01*
X219693500Y-39817531D01*
X219693500Y-39817533D01*
X219693499Y-39817533D01*
X212694901Y-39817533D01*
X212677171Y-39705590D01*
X212677170Y-39705589D01*
X212669233Y-39681162D01*
X212649191Y-39619476D01*
X212621212Y-39533363D01*
X212621211Y-39533360D01*
X212550937Y-39395442D01*
X212538996Y-39372006D01*
X212501495Y-39320390D01*
X212432558Y-39225505D01*
X212432554Y-39225500D01*
X212304499Y-39097445D01*
X212304494Y-39097441D01*
X212157997Y-38991006D01*
X212157996Y-38991005D01*
X212157994Y-38991004D01*
X212106300Y-38964664D01*
X211996639Y-38908788D01*
X211996636Y-38908787D01*
X211824410Y-38852829D01*
X211645551Y-38824500D01*
X211645546Y-38824500D01*
X211464454Y-38824500D01*
X211464449Y-38824500D01*
X211285589Y-38852829D01*
X211113363Y-38908787D01*
X211113360Y-38908788D01*
X210952002Y-38991006D01*
X210805505Y-39097441D01*
X210805500Y-39097445D01*
X210677445Y-39225500D01*
X210677441Y-39225505D01*
X210571006Y-39372002D01*
X210488788Y-39533360D01*
X210488787Y-39533363D01*
X210432829Y-39705589D01*
X210407473Y-39865678D01*
X210377544Y-39928813D01*
X210318232Y-39965744D01*
X210248369Y-39964746D01*
X210190137Y-39926136D01*
X210162527Y-39865678D01*
X210143246Y-39743947D01*
X210137171Y-39705591D01*
X210109191Y-39619476D01*
X210081212Y-39533363D01*
X210081211Y-39533360D01*
X210010937Y-39395442D01*
X209998996Y-39372006D01*
X209961495Y-39320390D01*
X209892558Y-39225505D01*
X209892554Y-39225500D01*
X209764499Y-39097445D01*
X209764494Y-39097441D01*
X209617997Y-38991006D01*
X209617996Y-38991005D01*
X209617994Y-38991004D01*
X209566300Y-38964664D01*
X209456639Y-38908788D01*
X209456636Y-38908787D01*
X209284410Y-38852829D01*
X209105551Y-38824500D01*
X209105546Y-38824500D01*
X208924454Y-38824500D01*
X208924449Y-38824500D01*
X208745589Y-38852829D01*
X208573363Y-38908787D01*
X208573360Y-38908788D01*
X208412002Y-38991006D01*
X208265505Y-39097441D01*
X208265500Y-39097445D01*
X208137445Y-39225500D01*
X208137441Y-39225505D01*
X208049318Y-39346797D01*
X207993988Y-39389463D01*
X207924375Y-39395442D01*
X207862580Y-39362836D01*
X207828223Y-39301998D01*
X207825000Y-39273912D01*
X207825000Y-39077172D01*
X207824999Y-39077155D01*
X207818598Y-39017627D01*
X207818596Y-39017620D01*
X207768354Y-38882913D01*
X207768350Y-38882906D01*
X207682190Y-38767812D01*
X207682187Y-38767809D01*
X207567093Y-38681649D01*
X207567086Y-38681645D01*
X207432379Y-38631403D01*
X207432372Y-38631401D01*
X207372844Y-38625000D01*
X206725000Y-38625000D01*
X206725000Y-39541988D01*
X206667993Y-39509075D01*
X206540826Y-39475000D01*
X206409174Y-39475000D01*
X206282007Y-39509075D01*
X206225000Y-39541988D01*
X206225000Y-38625000D01*
X205577155Y-38625000D01*
X205517627Y-38631401D01*
X205517620Y-38631403D01*
X205382913Y-38681645D01*
X205382906Y-38681649D01*
X205267812Y-38767809D01*
X205267809Y-38767812D01*
X205181649Y-38882906D01*
X205181645Y-38882913D01*
X205131403Y-39017620D01*
X205131401Y-39017627D01*
X205125000Y-39077155D01*
X199121754Y-39077155D01*
X199110940Y-39008881D01*
X199070010Y-38882913D01*
X199052547Y-38829168D01*
X199052545Y-38829165D01*
X199052545Y-38829163D01*
X198998912Y-38723903D01*
X198966760Y-38660801D01*
X198855690Y-38507927D01*
X198722073Y-38374310D01*
X198569199Y-38263240D01*
X198513744Y-38234984D01*
X198462949Y-38187011D01*
X198446154Y-38119190D01*
X198468691Y-38053055D01*
X198523406Y-38009603D01*
X198570040Y-38000500D01*
X217247684Y-38000500D01*
X217314723Y-38020185D01*
X217360478Y-38072989D01*
X217370422Y-38142147D01*
X217358170Y-38180789D01*
X217346925Y-38202861D01*
X217333537Y-38229136D01*
X217318500Y-38324083D01*
X217318500Y-38877916D01*
X217318499Y-38877916D01*
X217333537Y-38972863D01*
X217333538Y-38972866D01*
X217333539Y-38972868D01*
X217391854Y-39087318D01*
X217391855Y-39087319D01*
X217391858Y-39087323D01*
X217482676Y-39178141D01*
X217482680Y-39178144D01*
X217482682Y-39178146D01*
X217597132Y-39236461D01*
X217597134Y-39236461D01*
X217597136Y-39236462D01*
X217692083Y-39251500D01*
X217692084Y-39251500D01*
X218645916Y-39251500D01*
X218740863Y-39236462D01*
X218740863Y-39236461D01*
X218740868Y-39236461D01*
X218855318Y-39178146D01*
X218946146Y-39087318D01*
X219004461Y-38972868D01*
X219014611Y-38908787D01*
X219019500Y-38877916D01*
X219019500Y-38324083D01*
X219004462Y-38229136D01*
X219004461Y-38229134D01*
X219004461Y-38229132D01*
X218979830Y-38180791D01*
X218966935Y-38112126D01*
X218993211Y-38047386D01*
X219050317Y-38007128D01*
X219090316Y-38000500D01*
X224647684Y-38000500D01*
X224714723Y-38020185D01*
X224760478Y-38072989D01*
X224770422Y-38142147D01*
X224758170Y-38180789D01*
X224746925Y-38202861D01*
X224733537Y-38229136D01*
X224718500Y-38324083D01*
X224718500Y-38877916D01*
X224718499Y-38877916D01*
X224733537Y-38972863D01*
X224733538Y-38972866D01*
X224733539Y-38972868D01*
X224791854Y-39087318D01*
X224791855Y-39087319D01*
X224791858Y-39087323D01*
X224882676Y-39178141D01*
X224882680Y-39178144D01*
X224882682Y-39178146D01*
X224997132Y-39236461D01*
X224997134Y-39236461D01*
X224997136Y-39236462D01*
X225092083Y-39251500D01*
X225092084Y-39251500D01*
X226045916Y-39251500D01*
X226140863Y-39236462D01*
X226140863Y-39236461D01*
X226140868Y-39236461D01*
X226255318Y-39178146D01*
X226346146Y-39087318D01*
X226404461Y-38972868D01*
X226414611Y-38908787D01*
X226419500Y-38877916D01*
X226419500Y-38324083D01*
X226404462Y-38229136D01*
X226404461Y-38229134D01*
X226404461Y-38229132D01*
X226379830Y-38180791D01*
X226366935Y-38112126D01*
X226393211Y-38047386D01*
X226450317Y-38007128D01*
X226490316Y-38000500D01*
X239875500Y-38000500D01*
X239942539Y-38020185D01*
X239988294Y-38072989D01*
X239999500Y-38124500D01*
X239999500Y-137875500D01*
X239979815Y-137942539D01*
X239927011Y-137988294D01*
X239875500Y-137999500D01*
X140124500Y-137999500D01*
X140057461Y-137979815D01*
X140011706Y-137927011D01*
X140000500Y-137875500D01*
X140000500Y-134378711D01*
X141649500Y-134378711D01*
X141649500Y-134621288D01*
X141681161Y-134861785D01*
X141743947Y-135096104D01*
X141797545Y-135225500D01*
X141836776Y-135320212D01*
X141958064Y-135530289D01*
X141958066Y-135530292D01*
X141958067Y-135530293D01*
X142105733Y-135722736D01*
X142105739Y-135722743D01*
X142277256Y-135894260D01*
X142277262Y-135894265D01*
X142469711Y-136041936D01*
X142679788Y-136163224D01*
X142903900Y-136256054D01*
X143138211Y-136318838D01*
X143318586Y-136342584D01*
X143378711Y-136350500D01*
X143378712Y-136350500D01*
X143621289Y-136350500D01*
X143669388Y-136344167D01*
X143861789Y-136318838D01*
X144096100Y-136256054D01*
X144320212Y-136163224D01*
X144530289Y-136041936D01*
X144722738Y-135894265D01*
X144894265Y-135722738D01*
X145041936Y-135530289D01*
X145163224Y-135320212D01*
X145256054Y-135096100D01*
X145318838Y-134861789D01*
X145350500Y-134621288D01*
X145350500Y-134378712D01*
X145318838Y-134138211D01*
X145256054Y-133903900D01*
X145163224Y-133679788D01*
X145041936Y-133469711D01*
X144894265Y-133277262D01*
X144894260Y-133277256D01*
X144722743Y-133105739D01*
X144722736Y-133105733D01*
X144530293Y-132958067D01*
X144530292Y-132958066D01*
X144530289Y-132958064D01*
X144320212Y-132836776D01*
X144320205Y-132836773D01*
X144096104Y-132743947D01*
X143861785Y-132681161D01*
X143621289Y-132649500D01*
X143621288Y-132649500D01*
X143378712Y-132649500D01*
X143378711Y-132649500D01*
X143138214Y-132681161D01*
X142903895Y-132743947D01*
X142679794Y-132836773D01*
X142679785Y-132836777D01*
X142469706Y-132958067D01*
X142277263Y-133105733D01*
X142277256Y-133105739D01*
X142105739Y-133277256D01*
X142105733Y-133277263D01*
X141958067Y-133469706D01*
X141836777Y-133679785D01*
X141836773Y-133679794D01*
X141743947Y-133903895D01*
X141681161Y-134138214D01*
X141649500Y-134378711D01*
X140000500Y-134378711D01*
X140000500Y-65565131D01*
X140849500Y-65565131D01*
X140849500Y-67354856D01*
X140849502Y-67354882D01*
X140852413Y-67379987D01*
X140852415Y-67379991D01*
X140897793Y-67482764D01*
X140897794Y-67482765D01*
X140977235Y-67562206D01*
X141080009Y-67607585D01*
X141105135Y-67610500D01*
X141842873Y-67610499D01*
X141909910Y-67630183D01*
X141955665Y-67682987D01*
X141965609Y-67752146D01*
X141936584Y-67815702D01*
X141877806Y-67853476D01*
X141862270Y-67856972D01*
X141730589Y-67877829D01*
X141558363Y-67933787D01*
X141558360Y-67933788D01*
X141397002Y-68016006D01*
X141250505Y-68122441D01*
X141250500Y-68122445D01*
X141122445Y-68250500D01*
X141122441Y-68250505D01*
X141016006Y-68397002D01*
X140933788Y-68558360D01*
X140933787Y-68558363D01*
X140877829Y-68730589D01*
X140849500Y-68909448D01*
X140849500Y-69090551D01*
X140877829Y-69269410D01*
X140933787Y-69441636D01*
X140933788Y-69441639D01*
X141016006Y-69602997D01*
X141122441Y-69749494D01*
X141122445Y-69749499D01*
X141250500Y-69877554D01*
X141250505Y-69877558D01*
X141378287Y-69970396D01*
X141397006Y-69983996D01*
X141502484Y-70037740D01*
X141558360Y-70066211D01*
X141558363Y-70066212D01*
X141644476Y-70094191D01*
X141730591Y-70122171D01*
X141803639Y-70133740D01*
X141890678Y-70147527D01*
X141953813Y-70177456D01*
X141990744Y-70236768D01*
X141989746Y-70306631D01*
X141951136Y-70364863D01*
X141890678Y-70392473D01*
X141730589Y-70417829D01*
X141558363Y-70473787D01*
X141558360Y-70473788D01*
X141397002Y-70556006D01*
X141250505Y-70662441D01*
X141250500Y-70662445D01*
X141122445Y-70790500D01*
X141122441Y-70790505D01*
X141016006Y-70937002D01*
X140933788Y-71098360D01*
X140933787Y-71098363D01*
X140877829Y-71270589D01*
X140849500Y-71449448D01*
X140849500Y-71630551D01*
X140877829Y-71809410D01*
X140933787Y-71981636D01*
X140933788Y-71981639D01*
X141016006Y-72142997D01*
X141122441Y-72289494D01*
X141122445Y-72289499D01*
X141250500Y-72417554D01*
X141250505Y-72417558D01*
X141378287Y-72510396D01*
X141397006Y-72523996D01*
X141502484Y-72577740D01*
X141558360Y-72606211D01*
X141558363Y-72606212D01*
X141644476Y-72634191D01*
X141730591Y-72662171D01*
X141813429Y-72675291D01*
X141909449Y-72690500D01*
X141909454Y-72690500D01*
X142090551Y-72690500D01*
X142177259Y-72676765D01*
X142269409Y-72662171D01*
X142441639Y-72606211D01*
X142602994Y-72523996D01*
X142749501Y-72417553D01*
X142877553Y-72289501D01*
X142983996Y-72142994D01*
X143066211Y-71981639D01*
X143122171Y-71809409D01*
X143136765Y-71717259D01*
X143150500Y-71630551D01*
X143150500Y-71449448D01*
X143134019Y-71345397D01*
X143122171Y-71270591D01*
X143066211Y-71098361D01*
X143066211Y-71098360D01*
X143037740Y-71042484D01*
X142983996Y-70937006D01*
X142970396Y-70918287D01*
X142877558Y-70790505D01*
X142877554Y-70790500D01*
X142749499Y-70662445D01*
X142749494Y-70662441D01*
X142602997Y-70556006D01*
X142602996Y-70556005D01*
X142602994Y-70556004D01*
X142551300Y-70529664D01*
X142441639Y-70473788D01*
X142441636Y-70473787D01*
X142269410Y-70417829D01*
X142109321Y-70392473D01*
X142046186Y-70362544D01*
X142009255Y-70303232D01*
X142010253Y-70233370D01*
X142048863Y-70175137D01*
X142109321Y-70147527D01*
X142179425Y-70136422D01*
X142269409Y-70122171D01*
X142441639Y-70066211D01*
X142602994Y-69983996D01*
X142749501Y-69877553D01*
X142877553Y-69749501D01*
X142983996Y-69602994D01*
X143066211Y-69441639D01*
X143122171Y-69269409D01*
X143136765Y-69177259D01*
X143150500Y-69090551D01*
X143150500Y-68909448D01*
X143133493Y-68802074D01*
X143122171Y-68730591D01*
X143066211Y-68558361D01*
X143066211Y-68558360D01*
X143037740Y-68502484D01*
X142983996Y-68397006D01*
X142935299Y-68329980D01*
X142877558Y-68250505D01*
X142877554Y-68250500D01*
X142749499Y-68122445D01*
X142749494Y-68122441D01*
X142602997Y-68016006D01*
X142602996Y-68016005D01*
X142602994Y-68016004D01*
X142534572Y-67981141D01*
X142441639Y-67933788D01*
X142441636Y-67933787D01*
X142269410Y-67877829D01*
X142137728Y-67856972D01*
X142074594Y-67827042D01*
X142037663Y-67767731D01*
X142038661Y-67697868D01*
X142077271Y-67639636D01*
X142141235Y-67611522D01*
X142157120Y-67610499D01*
X142894864Y-67610499D01*
X142894879Y-67610497D01*
X142894882Y-67610497D01*
X142919987Y-67607586D01*
X142919988Y-67607585D01*
X142919991Y-67607585D01*
X143022765Y-67562206D01*
X143102206Y-67482765D01*
X143147585Y-67379991D01*
X143150500Y-67354865D01*
X143150499Y-65565136D01*
X143149766Y-65558815D01*
X143147586Y-65540012D01*
X143147585Y-65540010D01*
X143147585Y-65540009D01*
X143102206Y-65437235D01*
X143022765Y-65357794D01*
X142971094Y-65334979D01*
X142919992Y-65312415D01*
X142894865Y-65309500D01*
X141105143Y-65309500D01*
X141105117Y-65309502D01*
X141080012Y-65312413D01*
X141080008Y-65312415D01*
X140977235Y-65357793D01*
X140897794Y-65437234D01*
X140852415Y-65540006D01*
X140852415Y-65540008D01*
X140849500Y-65565131D01*
X140000500Y-65565131D01*
X140000500Y-41378711D01*
X141649500Y-41378711D01*
X141649500Y-41621288D01*
X141681161Y-41861785D01*
X141743947Y-42096104D01*
X141788773Y-42204322D01*
X141836776Y-42320212D01*
X141958064Y-42530289D01*
X141958066Y-42530292D01*
X141958067Y-42530293D01*
X142105733Y-42722736D01*
X142105739Y-42722743D01*
X142277256Y-42894260D01*
X142277262Y-42894265D01*
X142469711Y-43041936D01*
X142679788Y-43163224D01*
X142903900Y-43256054D01*
X143138211Y-43318838D01*
X143318586Y-43342584D01*
X143378711Y-43350500D01*
X143378712Y-43350500D01*
X143621289Y-43350500D01*
X143676434Y-43343240D01*
X143861789Y-43318838D01*
X144096100Y-43256054D01*
X144320212Y-43163224D01*
X144530289Y-43041936D01*
X144722738Y-42894265D01*
X144894265Y-42722738D01*
X145041936Y-42530289D01*
X145163224Y-42320212D01*
X145256054Y-42096100D01*
X145318838Y-41861789D01*
X145350500Y-41621288D01*
X145350500Y-41378712D01*
X145318838Y-41138211D01*
X145256054Y-40903900D01*
X145163224Y-40679788D01*
X145041936Y-40469711D01*
X144969338Y-40375099D01*
X144894266Y-40277263D01*
X144894260Y-40277256D01*
X144722743Y-40105739D01*
X144722736Y-40105733D01*
X144530293Y-39958067D01*
X144530292Y-39958066D01*
X144530289Y-39958064D01*
X144320212Y-39836776D01*
X144320205Y-39836773D01*
X144096104Y-39743947D01*
X143874131Y-39684469D01*
X143861789Y-39681162D01*
X143861788Y-39681161D01*
X143861785Y-39681161D01*
X143621289Y-39649500D01*
X143621288Y-39649500D01*
X143378712Y-39649500D01*
X143378711Y-39649500D01*
X143138214Y-39681161D01*
X142903895Y-39743947D01*
X142679794Y-39836773D01*
X142679785Y-39836777D01*
X142469706Y-39958067D01*
X142277263Y-40105733D01*
X142277256Y-40105739D01*
X142105739Y-40277256D01*
X142105733Y-40277263D01*
X141958067Y-40469706D01*
X141836777Y-40679785D01*
X141836773Y-40679794D01*
X141743947Y-40903895D01*
X141681161Y-41138214D01*
X141649500Y-41378711D01*
X140000500Y-41378711D01*
X140000500Y-39077155D01*
X167125000Y-39077155D01*
X167125000Y-39725000D01*
X168041988Y-39725000D01*
X168009075Y-39782007D01*
X167975000Y-39909174D01*
X167975000Y-40040826D01*
X168009075Y-40167993D01*
X168041988Y-40225000D01*
X167125000Y-40225000D01*
X167125000Y-40872844D01*
X167131401Y-40932372D01*
X167131403Y-40932379D01*
X167181645Y-41067086D01*
X167181649Y-41067093D01*
X167267809Y-41182187D01*
X167267812Y-41182190D01*
X167382906Y-41268350D01*
X167382913Y-41268354D01*
X167517620Y-41318596D01*
X167517627Y-41318598D01*
X167577155Y-41324999D01*
X167577172Y-41325000D01*
X168225000Y-41325000D01*
X168225000Y-40408012D01*
X168282007Y-40440925D01*
X168409174Y-40475000D01*
X168540826Y-40475000D01*
X168667993Y-40440925D01*
X168725000Y-40408012D01*
X168725000Y-41325000D01*
X169372828Y-41325000D01*
X169372844Y-41324999D01*
X169432372Y-41318598D01*
X169432379Y-41318596D01*
X169567086Y-41268354D01*
X169567093Y-41268350D01*
X169682187Y-41182190D01*
X169682190Y-41182187D01*
X169768350Y-41067093D01*
X169768354Y-41067086D01*
X169817614Y-40935013D01*
X169859485Y-40879079D01*
X169924949Y-40854662D01*
X169993222Y-40869513D01*
X170021477Y-40890665D01*
X170135535Y-41004723D01*
X170135540Y-41004727D01*
X170307442Y-41129620D01*
X170496782Y-41226095D01*
X170698871Y-41291757D01*
X170765000Y-41302231D01*
X170765000Y-40408012D01*
X170822007Y-40440925D01*
X170949174Y-40475000D01*
X171080826Y-40475000D01*
X171207993Y-40440925D01*
X171265000Y-40408012D01*
X171265000Y-41302230D01*
X171331126Y-41291757D01*
X171331129Y-41291757D01*
X171533217Y-41226095D01*
X171722557Y-41129620D01*
X171894459Y-41004727D01*
X171894464Y-41004723D01*
X172044723Y-40854464D01*
X172044727Y-40854459D01*
X172169620Y-40682557D01*
X172266095Y-40493217D01*
X172275492Y-40464295D01*
X172314928Y-40406618D01*
X172379286Y-40379419D01*
X172448133Y-40391331D01*
X172499610Y-40438574D01*
X172503908Y-40446314D01*
X172571004Y-40577995D01*
X172677441Y-40724494D01*
X172677445Y-40724499D01*
X172805500Y-40852554D01*
X172805505Y-40852558D01*
X172890502Y-40914311D01*
X172952006Y-40958996D01*
X173041750Y-41004723D01*
X173113360Y-41041211D01*
X173113363Y-41041212D01*
X173192997Y-41067086D01*
X173285591Y-41097171D01*
X173368429Y-41110291D01*
X173464449Y-41125500D01*
X173464454Y-41125500D01*
X173645551Y-41125500D01*
X173732259Y-41111765D01*
X173824409Y-41097171D01*
X173996639Y-41041211D01*
X174157994Y-40958996D01*
X174304501Y-40852553D01*
X174432553Y-40724501D01*
X174538996Y-40577994D01*
X174621211Y-40416639D01*
X174677171Y-40244409D01*
X174691765Y-40152259D01*
X174705500Y-40065551D01*
X174705500Y-39884448D01*
X174683246Y-39743947D01*
X174677171Y-39705591D01*
X174649191Y-39619476D01*
X174621212Y-39533363D01*
X174621211Y-39533360D01*
X174550937Y-39395442D01*
X174538996Y-39372006D01*
X174501495Y-39320390D01*
X174432558Y-39225505D01*
X174432554Y-39225500D01*
X174304499Y-39097445D01*
X174304494Y-39097441D01*
X174157997Y-38991006D01*
X174157996Y-38991005D01*
X174157994Y-38991004D01*
X174106300Y-38964664D01*
X173996639Y-38908788D01*
X173996636Y-38908787D01*
X173824410Y-38852829D01*
X173645551Y-38824500D01*
X173645546Y-38824500D01*
X173464454Y-38824500D01*
X173464449Y-38824500D01*
X173285589Y-38852829D01*
X173113363Y-38908787D01*
X173113360Y-38908788D01*
X172952002Y-38991006D01*
X172805505Y-39097441D01*
X172805500Y-39097445D01*
X172677445Y-39225500D01*
X172677441Y-39225505D01*
X172571004Y-39372004D01*
X172503908Y-39503685D01*
X172455933Y-39554480D01*
X172388112Y-39571275D01*
X172321977Y-39548737D01*
X172278527Y-39494021D01*
X172275492Y-39485705D01*
X172266094Y-39456780D01*
X172169620Y-39267442D01*
X172044727Y-39095540D01*
X172044723Y-39095535D01*
X171894464Y-38945276D01*
X171894459Y-38945272D01*
X171722557Y-38820379D01*
X171533215Y-38723903D01*
X171331124Y-38658241D01*
X171265000Y-38647768D01*
X171265000Y-39541988D01*
X171207993Y-39509075D01*
X171080826Y-39475000D01*
X170949174Y-39475000D01*
X170822007Y-39509075D01*
X170765000Y-39541988D01*
X170765000Y-38647768D01*
X170764999Y-38647768D01*
X170698875Y-38658241D01*
X170496784Y-38723903D01*
X170307442Y-38820379D01*
X170135541Y-38945271D01*
X170021477Y-39059335D01*
X169960154Y-39092819D01*
X169890462Y-39087835D01*
X169834529Y-39045963D01*
X169817614Y-39014986D01*
X169768354Y-38882913D01*
X169768350Y-38882906D01*
X169682190Y-38767812D01*
X169682187Y-38767809D01*
X169567093Y-38681649D01*
X169567086Y-38681645D01*
X169432379Y-38631403D01*
X169432372Y-38631401D01*
X169372844Y-38625000D01*
X168725000Y-38625000D01*
X168725000Y-39541988D01*
X168667993Y-39509075D01*
X168540826Y-39475000D01*
X168409174Y-39475000D01*
X168282007Y-39509075D01*
X168225000Y-39541988D01*
X168225000Y-38625000D01*
X167577155Y-38625000D01*
X167517627Y-38631401D01*
X167517620Y-38631403D01*
X167382913Y-38681645D01*
X167382906Y-38681649D01*
X167267812Y-38767809D01*
X167267809Y-38767812D01*
X167181649Y-38882906D01*
X167181645Y-38882913D01*
X167131403Y-39017620D01*
X167131401Y-39017627D01*
X167125000Y-39077155D01*
X140000500Y-39077155D01*
X140000500Y-38124500D01*
X140020185Y-38057461D01*
X140072989Y-38011706D01*
X140124500Y-38000500D01*
X181447635Y-38000500D01*
X181514674Y-38020185D01*
G37*
G04 #@! TD.AperFunction*
G04 #@! TA.AperFunction,Conductor*
G36*
X181560811Y-61350275D02*
G01*
X181563482Y-61349614D01*
X181594141Y-61360061D01*
X181625211Y-61369185D01*
X181627011Y-61371263D01*
X181629617Y-61372151D01*
X181649767Y-61397525D01*
X181670966Y-61421989D01*
X181671357Y-61424710D01*
X181673069Y-61426866D01*
X181676302Y-61459100D01*
X181680910Y-61491147D01*
X181679851Y-61494486D01*
X181680042Y-61496387D01*
X181668657Y-61529795D01*
X181587454Y-61689163D01*
X181529059Y-61868881D01*
X181499500Y-62055513D01*
X181499500Y-62244486D01*
X181529059Y-62431118D01*
X181587454Y-62610836D01*
X181640744Y-62715422D01*
X181673240Y-62779199D01*
X181784310Y-62932073D01*
X181917927Y-63065690D01*
X182070801Y-63176760D01*
X182150347Y-63217290D01*
X182239163Y-63262545D01*
X182239165Y-63262545D01*
X182239168Y-63262547D01*
X182328734Y-63291649D01*
X182360803Y-63302069D01*
X182418478Y-63341507D01*
X182445676Y-63405866D01*
X182433761Y-63474712D01*
X182386516Y-63526188D01*
X182360803Y-63537931D01*
X182239163Y-63577454D01*
X182070800Y-63663240D01*
X182020088Y-63700085D01*
X181917927Y-63774310D01*
X181917924Y-63774312D01*
X181784312Y-63907924D01*
X181784312Y-63907925D01*
X181784310Y-63907927D01*
X181736610Y-63973579D01*
X181673240Y-64060800D01*
X181587454Y-64229163D01*
X181529059Y-64408881D01*
X181499500Y-64595513D01*
X181499500Y-64784486D01*
X181529059Y-64971118D01*
X181587454Y-65150836D01*
X181640744Y-65255422D01*
X181673240Y-65319199D01*
X181718588Y-65381615D01*
X181742068Y-65447420D01*
X181726243Y-65515474D01*
X181676138Y-65564169D01*
X181618270Y-65578500D01*
X166321132Y-65578500D01*
X166311139Y-65578499D01*
X166311138Y-65578499D01*
X166303744Y-65578499D01*
X166301355Y-65578499D01*
X166301222Y-65578460D01*
X166040416Y-65578460D01*
X165622398Y-65608361D01*
X165207573Y-65668007D01*
X164798074Y-65757092D01*
X164589446Y-65818353D01*
X164456551Y-65857376D01*
X164395952Y-65875170D01*
X164003311Y-66021621D01*
X163622086Y-66195725D01*
X163254263Y-66396576D01*
X162901718Y-66623147D01*
X162901702Y-66623158D01*
X162566227Y-66874297D01*
X162249503Y-67148746D01*
X162249490Y-67148758D01*
X162180992Y-67217257D01*
X162140943Y-67257307D01*
X162123503Y-67274748D01*
X162123502Y-67274748D01*
X145247862Y-84150388D01*
X145247450Y-84150856D01*
X145144781Y-84253523D01*
X145144768Y-84253537D01*
X144870328Y-84570252D01*
X144619191Y-84905725D01*
X144619188Y-84905729D01*
X144392606Y-85258290D01*
X144191761Y-85626103D01*
X144017656Y-86007331D01*
X143871209Y-86399961D01*
X143753131Y-86802084D01*
X143664046Y-87211580D01*
X143604401Y-87626402D01*
X143574500Y-88044418D01*
X143574500Y-88251517D01*
X143574500Y-88253960D01*
X143574499Y-88315138D01*
X143574500Y-88315141D01*
X143574500Y-103516999D01*
X143574499Y-103517017D01*
X143574499Y-103582738D01*
X143574350Y-103588822D01*
X143560408Y-103872651D01*
X143559215Y-103884761D01*
X143517968Y-104162831D01*
X143515594Y-104174766D01*
X143447291Y-104447452D01*
X143443759Y-104459097D01*
X143391251Y-104605848D01*
X143350132Y-104662337D01*
X143285000Y-104687629D01*
X143216535Y-104673692D01*
X143166472Y-104624953D01*
X143150499Y-104564074D01*
X143150499Y-103565143D01*
X143150499Y-103565136D01*
X143150497Y-103565117D01*
X143147586Y-103540012D01*
X143147585Y-103540010D01*
X143147585Y-103540009D01*
X143102206Y-103437235D01*
X143022765Y-103357794D01*
X142971719Y-103335255D01*
X142919992Y-103312415D01*
X142894868Y-103309500D01*
X142894865Y-103309500D01*
X142549500Y-103309500D01*
X142482461Y-103289815D01*
X142436706Y-103237011D01*
X142425500Y-103185500D01*
X142425500Y-87756386D01*
X142425596Y-87751517D01*
X142440774Y-87365263D01*
X142441535Y-87355593D01*
X142486688Y-86974120D01*
X142488211Y-86964510D01*
X142539115Y-86708613D01*
X142563151Y-86587775D01*
X142565424Y-86578311D01*
X142643331Y-86302084D01*
X142669694Y-86208608D01*
X142672702Y-86199354D01*
X142756398Y-85972493D01*
X142805650Y-85838990D01*
X142809375Y-85829998D01*
X142970197Y-85481157D01*
X142974605Y-85472504D01*
X143162304Y-85137351D01*
X143167380Y-85129068D01*
X143380807Y-84809659D01*
X143386501Y-84801821D01*
X143624339Y-84500131D01*
X143630640Y-84492755D01*
X143893776Y-84208103D01*
X143897093Y-84204653D01*
X143937923Y-84163826D01*
X143937925Y-84163821D01*
X165230915Y-62870830D01*
X165230927Y-62870821D01*
X165239823Y-62861924D01*
X165239826Y-62861923D01*
X165281387Y-62820359D01*
X165284847Y-62817034D01*
X165417416Y-62694486D01*
X165568731Y-62554608D01*
X165576118Y-62548299D01*
X165877779Y-62310483D01*
X165885638Y-62304772D01*
X166205048Y-62091345D01*
X166213331Y-62086269D01*
X166548486Y-61898569D01*
X166557139Y-61894161D01*
X166905985Y-61733336D01*
X166914978Y-61729612D01*
X166928832Y-61724501D01*
X167275346Y-61596662D01*
X167284596Y-61593656D01*
X167654305Y-61489383D01*
X167663764Y-61487112D01*
X168040509Y-61412171D01*
X168050114Y-61410649D01*
X168431590Y-61365496D01*
X168441260Y-61364735D01*
X168826505Y-61349595D01*
X168831374Y-61349500D01*
X168891144Y-61349500D01*
X181558172Y-61349500D01*
X181560811Y-61350275D01*
G37*
G04 #@! TD.AperFunction*
G04 #@! TA.AperFunction,Conductor*
G36*
X197376999Y-38020185D02*
G01*
X197422754Y-38072989D01*
X197432698Y-38142147D01*
X197403673Y-38205703D01*
X197366255Y-38234985D01*
X197310800Y-38263240D01*
X197227058Y-38324083D01*
X197157927Y-38374310D01*
X197157925Y-38374312D01*
X197157924Y-38374312D01*
X197024312Y-38507924D01*
X197024312Y-38507925D01*
X197024310Y-38507927D01*
X196976610Y-38573579D01*
X196913240Y-38660800D01*
X196827454Y-38829163D01*
X196769059Y-39008881D01*
X196739500Y-39195513D01*
X196739500Y-41924486D01*
X196769059Y-42111118D01*
X196827454Y-42290836D01*
X196887242Y-42408175D01*
X196913240Y-42459199D01*
X197024310Y-42612073D01*
X197157927Y-42745690D01*
X197229780Y-42797895D01*
X197272445Y-42853224D01*
X197278424Y-42922838D01*
X197245818Y-42984633D01*
X197191006Y-43017428D01*
X197135783Y-43033229D01*
X196964525Y-43122686D01*
X196814784Y-43244784D01*
X196692686Y-43394525D01*
X196603228Y-43565784D01*
X196550079Y-43751538D01*
X196550078Y-43751541D01*
X196540000Y-43864902D01*
X196540000Y-44120000D01*
X197506988Y-44120000D01*
X197474075Y-44177007D01*
X197440000Y-44304174D01*
X197440000Y-44435826D01*
X197474075Y-44562993D01*
X197506988Y-44620000D01*
X196540001Y-44620000D01*
X196540001Y-44875098D01*
X196550078Y-44988460D01*
X196603228Y-45174215D01*
X196692686Y-45345474D01*
X196814784Y-45495215D01*
X196964525Y-45617313D01*
X197135785Y-45706771D01*
X197191004Y-45722571D01*
X197250043Y-45759937D01*
X197279507Y-45823291D01*
X197270042Y-45892516D01*
X197229781Y-45942104D01*
X197157927Y-45994309D01*
X197024312Y-46127924D01*
X197024312Y-46127925D01*
X197024310Y-46127927D01*
X196976610Y-46193579D01*
X196913240Y-46280800D01*
X196827454Y-46449163D01*
X196769059Y-46628881D01*
X196739500Y-46815513D01*
X196739500Y-47004486D01*
X196769059Y-47191118D01*
X196827454Y-47370836D01*
X196902255Y-47517639D01*
X196913240Y-47539199D01*
X197024310Y-47692073D01*
X197157927Y-47825690D01*
X197310801Y-47936760D01*
X197390347Y-47977290D01*
X197479163Y-48022545D01*
X197479165Y-48022545D01*
X197479168Y-48022547D01*
X197568734Y-48051649D01*
X197600803Y-48062069D01*
X197658478Y-48101507D01*
X197685676Y-48165866D01*
X197673761Y-48234712D01*
X197626516Y-48286188D01*
X197600803Y-48297931D01*
X197479163Y-48337454D01*
X197310800Y-48423240D01*
X197223579Y-48486610D01*
X197157927Y-48534310D01*
X197157925Y-48534312D01*
X197157924Y-48534312D01*
X197024312Y-48667924D01*
X197024312Y-48667925D01*
X197024310Y-48667927D01*
X196976610Y-48733579D01*
X196913240Y-48820800D01*
X196827454Y-48989163D01*
X196769059Y-49168881D01*
X196739500Y-49355513D01*
X196739500Y-49544486D01*
X196769059Y-49731118D01*
X196827454Y-49910836D01*
X196907767Y-50068458D01*
X196913240Y-50079199D01*
X197024310Y-50232073D01*
X197157927Y-50365690D01*
X197310801Y-50476760D01*
X197390347Y-50517290D01*
X197479163Y-50562545D01*
X197479165Y-50562545D01*
X197479168Y-50562547D01*
X197518156Y-50575215D01*
X197600803Y-50602069D01*
X197658478Y-50641507D01*
X197685676Y-50705866D01*
X197673761Y-50774712D01*
X197626516Y-50826188D01*
X197600803Y-50837931D01*
X197479163Y-50877454D01*
X197310800Y-50963240D01*
X197229782Y-51022104D01*
X197157927Y-51074310D01*
X197157925Y-51074312D01*
X197157924Y-51074312D01*
X197024312Y-51207924D01*
X197024312Y-51207925D01*
X197024310Y-51207927D01*
X196976610Y-51273579D01*
X196913240Y-51360800D01*
X196827454Y-51529163D01*
X196769059Y-51708881D01*
X196739500Y-51895513D01*
X196739500Y-52084486D01*
X196769059Y-52271118D01*
X196827454Y-52450836D01*
X196913240Y-52619199D01*
X197024310Y-52772073D01*
X197157927Y-52905690D01*
X197310801Y-53016760D01*
X197390347Y-53057290D01*
X197479163Y-53102545D01*
X197479165Y-53102545D01*
X197479168Y-53102547D01*
X197568734Y-53131649D01*
X197600803Y-53142069D01*
X197658478Y-53181507D01*
X197685676Y-53245866D01*
X197673761Y-53314712D01*
X197626516Y-53366188D01*
X197600803Y-53377931D01*
X197479163Y-53417454D01*
X197310800Y-53503240D01*
X197223579Y-53566610D01*
X197157927Y-53614310D01*
X197157925Y-53614312D01*
X197157924Y-53614312D01*
X197024312Y-53747924D01*
X197024312Y-53747925D01*
X197024310Y-53747927D01*
X196976610Y-53813579D01*
X196913240Y-53900800D01*
X196827454Y-54069163D01*
X196769059Y-54248881D01*
X196739500Y-54435513D01*
X196739500Y-54624486D01*
X196769059Y-54811118D01*
X196827454Y-54990836D01*
X196913240Y-55159199D01*
X197024310Y-55312073D01*
X197157927Y-55445690D01*
X197310801Y-55556760D01*
X197390347Y-55597290D01*
X197479163Y-55642545D01*
X197479165Y-55642545D01*
X197479168Y-55642547D01*
X197568734Y-55671649D01*
X197600803Y-55682069D01*
X197658478Y-55721507D01*
X197685676Y-55785866D01*
X197673761Y-55854712D01*
X197626516Y-55906188D01*
X197600803Y-55917931D01*
X197479163Y-55957454D01*
X197310800Y-56043240D01*
X197223579Y-56106610D01*
X197157927Y-56154310D01*
X197157925Y-56154312D01*
X197157924Y-56154312D01*
X197024312Y-56287924D01*
X197024312Y-56287925D01*
X197024310Y-56287927D01*
X196976610Y-56353579D01*
X196913240Y-56440800D01*
X196827454Y-56609163D01*
X196769059Y-56788881D01*
X196739500Y-56975513D01*
X196739500Y-57164486D01*
X196769059Y-57351118D01*
X196827454Y-57530836D01*
X196913240Y-57699199D01*
X197024310Y-57852073D01*
X197157927Y-57985690D01*
X197310801Y-58096760D01*
X197390347Y-58137290D01*
X197479163Y-58182545D01*
X197479165Y-58182545D01*
X197479168Y-58182547D01*
X197568734Y-58211649D01*
X197600803Y-58222069D01*
X197658478Y-58261507D01*
X197685676Y-58325866D01*
X197673761Y-58394712D01*
X197626516Y-58446188D01*
X197600803Y-58457931D01*
X197479163Y-58497454D01*
X197310800Y-58583240D01*
X197223579Y-58646610D01*
X197157927Y-58694310D01*
X197157925Y-58694312D01*
X197157924Y-58694312D01*
X197024312Y-58827924D01*
X197024312Y-58827925D01*
X197024310Y-58827927D01*
X196976610Y-58893579D01*
X196913240Y-58980800D01*
X196827454Y-59149163D01*
X196769059Y-59328881D01*
X196739500Y-59515513D01*
X196739500Y-59704486D01*
X196769059Y-59891118D01*
X196827454Y-60070836D01*
X196913240Y-60239199D01*
X197024310Y-60392073D01*
X197157927Y-60525690D01*
X197310801Y-60636760D01*
X197389957Y-60677092D01*
X197479163Y-60722545D01*
X197479165Y-60722545D01*
X197479168Y-60722547D01*
X197568734Y-60751649D01*
X197600803Y-60762069D01*
X197658478Y-60801507D01*
X197685676Y-60865866D01*
X197673761Y-60934712D01*
X197626516Y-60986188D01*
X197600803Y-60997931D01*
X197479163Y-61037454D01*
X197310800Y-61123240D01*
X197223579Y-61186610D01*
X197157927Y-61234310D01*
X197157925Y-61234312D01*
X197157924Y-61234312D01*
X197024312Y-61367924D01*
X197024312Y-61367925D01*
X197024310Y-61367927D01*
X196983055Y-61424710D01*
X196913240Y-61520800D01*
X196827454Y-61689163D01*
X196769059Y-61868881D01*
X196739500Y-62055513D01*
X196739500Y-62244486D01*
X196769059Y-62431118D01*
X196827454Y-62610836D01*
X196880744Y-62715422D01*
X196913240Y-62779199D01*
X197024310Y-62932073D01*
X197157927Y-63065690D01*
X197310801Y-63176760D01*
X197390347Y-63217290D01*
X197479163Y-63262545D01*
X197479165Y-63262545D01*
X197479168Y-63262547D01*
X197568734Y-63291649D01*
X197600803Y-63302069D01*
X197658478Y-63341507D01*
X197685676Y-63405866D01*
X197673761Y-63474712D01*
X197626516Y-63526188D01*
X197600803Y-63537931D01*
X197479163Y-63577454D01*
X197310800Y-63663240D01*
X197260088Y-63700085D01*
X197157927Y-63774310D01*
X197157924Y-63774312D01*
X197024312Y-63907924D01*
X197024312Y-63907925D01*
X197024310Y-63907927D01*
X196976610Y-63973579D01*
X196913240Y-64060800D01*
X196827454Y-64229163D01*
X196769059Y-64408881D01*
X196739500Y-64595513D01*
X196739500Y-64784486D01*
X196769059Y-64971118D01*
X196827454Y-65150836D01*
X196880744Y-65255422D01*
X196913240Y-65319199D01*
X197024310Y-65472073D01*
X197157927Y-65605690D01*
X197310801Y-65716760D01*
X197327984Y-65725515D01*
X197378780Y-65773489D01*
X197395575Y-65841310D01*
X197373038Y-65907445D01*
X197318323Y-65950897D01*
X197271689Y-65960000D01*
X190988311Y-65960000D01*
X190921272Y-65940315D01*
X190875517Y-65887511D01*
X190865573Y-65818353D01*
X190894598Y-65754797D01*
X190932016Y-65725515D01*
X190949199Y-65716760D01*
X191102073Y-65605690D01*
X191235690Y-65472073D01*
X191346760Y-65319199D01*
X191432547Y-65150832D01*
X191490940Y-64971118D01*
X191495184Y-64944323D01*
X191520500Y-64784486D01*
X191520500Y-64595513D01*
X191490940Y-64408881D01*
X191432545Y-64229163D01*
X191346759Y-64060800D01*
X191335043Y-64044674D01*
X191235690Y-63907927D01*
X191102073Y-63774310D01*
X190949199Y-63663240D01*
X190890001Y-63633077D01*
X190780836Y-63577454D01*
X190601118Y-63519059D01*
X190414486Y-63489500D01*
X190414481Y-63489500D01*
X190225519Y-63489500D01*
X190225514Y-63489500D01*
X190038881Y-63519059D01*
X189859163Y-63577454D01*
X189690800Y-63663240D01*
X189640088Y-63700085D01*
X189537927Y-63774310D01*
X189537924Y-63774312D01*
X189404312Y-63907924D01*
X189404312Y-63907925D01*
X189404310Y-63907927D01*
X189356610Y-63973579D01*
X189293240Y-64060800D01*
X189207454Y-64229163D01*
X189167931Y-64350803D01*
X189128493Y-64408478D01*
X189064134Y-64435676D01*
X188995288Y-64423761D01*
X188943812Y-64376516D01*
X188932069Y-64350803D01*
X188892545Y-64229163D01*
X188806759Y-64060800D01*
X188795043Y-64044674D01*
X188695690Y-63907927D01*
X188562073Y-63774310D01*
X188522168Y-63745317D01*
X188479503Y-63689988D01*
X188473524Y-63620375D01*
X188506130Y-63558580D01*
X188522169Y-63544682D01*
X188531461Y-63537931D01*
X188562073Y-63515690D01*
X188695690Y-63382073D01*
X188806760Y-63229199D01*
X188892547Y-63060832D01*
X188950940Y-62881118D01*
X188961090Y-62817034D01*
X188980500Y-62694486D01*
X188980500Y-62505513D01*
X188950940Y-62318881D01*
X188904248Y-62175181D01*
X188892547Y-62139168D01*
X188892545Y-62139165D01*
X188892545Y-62139163D01*
X188806759Y-61970800D01*
X188695690Y-61817927D01*
X188562073Y-61684310D01*
X188409199Y-61573240D01*
X188372818Y-61554703D01*
X188240836Y-61487454D01*
X188061118Y-61429059D01*
X187874486Y-61399500D01*
X187874481Y-61399500D01*
X187685519Y-61399500D01*
X187685514Y-61399500D01*
X187498881Y-61429059D01*
X187319163Y-61487454D01*
X187150797Y-61573241D01*
X187122384Y-61593885D01*
X187056577Y-61617364D01*
X186988524Y-61601538D01*
X186939829Y-61551431D01*
X186925500Y-61493566D01*
X186925500Y-60997725D01*
X186925500Y-60997722D01*
X186925428Y-60997454D01*
X186923587Y-60989558D01*
X186904179Y-60891862D01*
X186862328Y-60790781D01*
X186862328Y-60790780D01*
X186817970Y-60724383D01*
X186812949Y-60716867D01*
X186806133Y-60704385D01*
X186793065Y-60691317D01*
X186792977Y-60691200D01*
X186727348Y-60625579D01*
X186727345Y-60625577D01*
X186724202Y-60622434D01*
X186724141Y-60622393D01*
X186719615Y-60617867D01*
X186707300Y-60611142D01*
X186701300Y-60607134D01*
X186701285Y-60607123D01*
X186633229Y-60561658D01*
X186633223Y-60561655D01*
X186532141Y-60519804D01*
X186532139Y-60519803D01*
X186436819Y-60500866D01*
X186436805Y-60500863D01*
X186430212Y-60499554D01*
X186426277Y-60498500D01*
X186424905Y-60498500D01*
X186424829Y-60498485D01*
X186421413Y-60498485D01*
X186421407Y-60498485D01*
X186370139Y-60498499D01*
X186370124Y-60498500D01*
X183781730Y-60498500D01*
X183714691Y-60478815D01*
X183668936Y-60426011D01*
X183658992Y-60356853D01*
X183681411Y-60301615D01*
X183726760Y-60239199D01*
X183812547Y-60070832D01*
X183870940Y-59891118D01*
X183900500Y-59704486D01*
X183900500Y-59515513D01*
X183870940Y-59328881D01*
X183812545Y-59149163D01*
X183726759Y-58980800D01*
X183615690Y-58827927D01*
X183482073Y-58694310D01*
X183329199Y-58583240D01*
X183160836Y-58497454D01*
X183086472Y-58473291D01*
X183039195Y-58457930D01*
X182981521Y-58418493D01*
X182954323Y-58354134D01*
X182966238Y-58285288D01*
X183013482Y-58233812D01*
X183039194Y-58222069D01*
X183160832Y-58182547D01*
X183329199Y-58096760D01*
X183482073Y-57985690D01*
X183615690Y-57852073D01*
X183726760Y-57699199D01*
X183812547Y-57530832D01*
X183870940Y-57351118D01*
X183900500Y-57164486D01*
X183900500Y-56975513D01*
X183870940Y-56788881D01*
X183812545Y-56609163D01*
X183726759Y-56440800D01*
X183615690Y-56287927D01*
X183482073Y-56154310D01*
X183329199Y-56043240D01*
X183160836Y-55957454D01*
X183086472Y-55933291D01*
X183039195Y-55917930D01*
X182981521Y-55878493D01*
X182954323Y-55814134D01*
X182966238Y-55745288D01*
X183013482Y-55693812D01*
X183039194Y-55682069D01*
X183160832Y-55642547D01*
X183329199Y-55556760D01*
X183482073Y-55445690D01*
X183615690Y-55312073D01*
X183726760Y-55159199D01*
X183812547Y-54990832D01*
X183870940Y-54811118D01*
X183900500Y-54624486D01*
X183900500Y-54435513D01*
X183870940Y-54248881D01*
X183812545Y-54069163D01*
X183726759Y-53900800D01*
X183615690Y-53747927D01*
X183482073Y-53614310D01*
X183329199Y-53503240D01*
X183160836Y-53417454D01*
X183086472Y-53393291D01*
X183039195Y-53377930D01*
X182981521Y-53338493D01*
X182954323Y-53274134D01*
X182966238Y-53205288D01*
X183013482Y-53153812D01*
X183039194Y-53142069D01*
X183160832Y-53102547D01*
X183329199Y-53016760D01*
X183482073Y-52905690D01*
X183615690Y-52772073D01*
X183726760Y-52619199D01*
X183812547Y-52450832D01*
X183870940Y-52271118D01*
X183900500Y-52084486D01*
X183900500Y-51895513D01*
X183870940Y-51708881D01*
X183812545Y-51529163D01*
X183726759Y-51360800D01*
X183615690Y-51207927D01*
X183482073Y-51074310D01*
X183410218Y-51022104D01*
X183367554Y-50966774D01*
X183361575Y-50897161D01*
X183394181Y-50835366D01*
X183448995Y-50802571D01*
X183504214Y-50786771D01*
X183675474Y-50697313D01*
X183825215Y-50575215D01*
X183947313Y-50425474D01*
X184036771Y-50254215D01*
X184089920Y-50068461D01*
X184089921Y-50068458D01*
X184099999Y-49955097D01*
X184100000Y-49955095D01*
X184100000Y-49700000D01*
X183133012Y-49700000D01*
X183165925Y-49642993D01*
X183200000Y-49515826D01*
X183200000Y-49384174D01*
X183165925Y-49257007D01*
X183133012Y-49200000D01*
X184099999Y-49200000D01*
X184099999Y-48944907D01*
X184099998Y-48944901D01*
X184089921Y-48831539D01*
X184036771Y-48645784D01*
X183947313Y-48474525D01*
X183825213Y-48324781D01*
X183765512Y-48276102D01*
X183725994Y-48218482D01*
X183723902Y-48148643D01*
X183759900Y-48088760D01*
X183765512Y-48083898D01*
X183825213Y-48035218D01*
X183947313Y-47885474D01*
X184036771Y-47714215D01*
X184089920Y-47528461D01*
X184089921Y-47528458D01*
X184099999Y-47415097D01*
X184100000Y-47415095D01*
X184100000Y-47160000D01*
X183133012Y-47160000D01*
X183165925Y-47102993D01*
X183200000Y-46975826D01*
X183200000Y-46844174D01*
X183165925Y-46717007D01*
X183133012Y-46660000D01*
X184099999Y-46660000D01*
X184099999Y-46404907D01*
X184099998Y-46404901D01*
X184089921Y-46291539D01*
X184036771Y-46105784D01*
X183947313Y-45934525D01*
X183825215Y-45784784D01*
X183675474Y-45662686D01*
X183504216Y-45573229D01*
X183448993Y-45557428D01*
X183389956Y-45520061D01*
X183360492Y-45456707D01*
X183369957Y-45387481D01*
X183410218Y-45337895D01*
X183482073Y-45285690D01*
X183615690Y-45152073D01*
X183726760Y-44999199D01*
X183812547Y-44830832D01*
X183870940Y-44651118D01*
X183877785Y-44607898D01*
X183900500Y-44464486D01*
X183900500Y-44275513D01*
X183870940Y-44088881D01*
X183812545Y-43909163D01*
X183732231Y-43751539D01*
X183726760Y-43740801D01*
X183615690Y-43587927D01*
X183482073Y-43454310D01*
X183329199Y-43343240D01*
X183160836Y-43257454D01*
X183086472Y-43233291D01*
X183039195Y-43217930D01*
X182981521Y-43178493D01*
X182954323Y-43114134D01*
X182966238Y-43045288D01*
X183013482Y-42993812D01*
X183039194Y-42982069D01*
X183160832Y-42942547D01*
X183329199Y-42856760D01*
X183482073Y-42745690D01*
X183615690Y-42612073D01*
X183726760Y-42459199D01*
X183812547Y-42290832D01*
X183870940Y-42111118D01*
X183877612Y-42068993D01*
X183900500Y-41924486D01*
X183900500Y-41735513D01*
X183870940Y-41548881D01*
X183818446Y-41387323D01*
X183812547Y-41369168D01*
X183812545Y-41369165D01*
X183812545Y-41369163D01*
X183726759Y-41200800D01*
X183715472Y-41185265D01*
X183615690Y-41047927D01*
X183482073Y-40914310D01*
X183410218Y-40862104D01*
X183367554Y-40806774D01*
X183361575Y-40737161D01*
X183394181Y-40675366D01*
X183448995Y-40642571D01*
X183504214Y-40626771D01*
X183675474Y-40537313D01*
X183825215Y-40415215D01*
X183947313Y-40265474D01*
X184036771Y-40094215D01*
X184089920Y-39908461D01*
X184089921Y-39908458D01*
X184099999Y-39795097D01*
X184100000Y-39795095D01*
X184100000Y-39540000D01*
X183133012Y-39540000D01*
X183165925Y-39482993D01*
X183200000Y-39355826D01*
X183200000Y-39224174D01*
X183165925Y-39097007D01*
X183133012Y-39040000D01*
X184099999Y-39040000D01*
X184099999Y-38784907D01*
X184099998Y-38784901D01*
X184089921Y-38671539D01*
X184036771Y-38485784D01*
X183947313Y-38314525D01*
X183856263Y-38202861D01*
X183829154Y-38138465D01*
X183841163Y-38069635D01*
X183888479Y-38018224D01*
X183952365Y-38000500D01*
X197309960Y-38000500D01*
X197376999Y-38020185D01*
G37*
G04 #@! TD.AperFunction*
G04 #@! TA.AperFunction,Conductor*
G36*
X182950000Y-49016988D02*
G01*
X182892993Y-48984075D01*
X182765826Y-48950000D01*
X182634174Y-48950000D01*
X182507007Y-48984075D01*
X182450000Y-49016988D01*
X182450000Y-47343012D01*
X182507007Y-47375925D01*
X182634174Y-47410000D01*
X182765826Y-47410000D01*
X182892993Y-47375925D01*
X182950000Y-47343012D01*
X182950000Y-49016988D01*
G37*
G04 #@! TD.AperFunction*
D25*
X140000000Y-38000000D02*
X240000000Y-38000000D01*
X240000000Y-38000000D02*
X240000000Y-138000000D01*
X240000000Y-138000000D02*
X140000000Y-138000000D01*
X140000000Y-138000000D02*
X140000000Y-38000000D01*
M02*
