G04 #@! TF.GenerationSoftware,KiCad,Pcbnew,9.0.5*
G04 #@! TF.CreationDate,2025-10-12T17:24:45+02:00*
G04 #@! TF.ProjectId,b2,62322e6b-6963-4616-945f-706362585858,rev?*
G04 #@! TF.SameCoordinates,Original*
G04 #@! TF.FileFunction,Copper,L2,Inr*
G04 #@! TF.FilePolarity,Positive*
%FSLAX46Y46*%
G04 Gerber Fmt 4.6, Leading zero omitted, Abs format (unit mm)*
G04 Created by KiCad (PCBNEW 9.0.5) date 2025-10-12 17:24:45*
%MOMM*%
%LPD*%
G01*
G04 APERTURE LIST*
%ADD10C,0.200000*%
G04 #@! TA.AperFunction,NonConductor*
%ADD11C,0.200000*%
G04 #@! TD*
G04 #@! TA.AperFunction,ComponentPad*
%ADD12O,1.800000X4.340000*%
G04 #@! TD*
G04 #@! TA.AperFunction,ComponentPad*
%ADD13C,1.800000*%
G04 #@! TD*
G04 #@! TA.AperFunction,ViaPad*
%ADD14C,0.800000*%
G04 #@! TD*
G04 #@! TA.AperFunction,Profile*
%ADD15C,0.100000*%
G04 #@! TD*
G04 APERTURE END LIST*
D10*
D11*
X236277457Y-128515713D02*
X236229838Y-128468094D01*
X236229838Y-128468094D02*
X236182219Y-128372856D01*
X236182219Y-128372856D02*
X236182219Y-128134761D01*
X236182219Y-128134761D02*
X236229838Y-128039523D01*
X236229838Y-128039523D02*
X236277457Y-127991904D01*
X236277457Y-127991904D02*
X236372695Y-127944285D01*
X236372695Y-127944285D02*
X236467933Y-127944285D01*
X236467933Y-127944285D02*
X236610790Y-127991904D01*
X236610790Y-127991904D02*
X237182219Y-128563332D01*
X237182219Y-128563332D02*
X237182219Y-127944285D01*
D12*
X197940000Y-40560000D03*
D13*
X197940000Y-39290000D03*
D14*
X190940000Y-120270000D03*
X201100000Y-97410000D03*
X150300000Y-92330000D03*
X208720000Y-125350000D03*
X163000000Y-59310000D03*
X165540000Y-92330000D03*
X206180000Y-46610000D03*
X175700000Y-112650000D03*
X142680000Y-46610000D03*
X193480000Y-82170000D03*
X142680000Y-61850000D03*
X185860000Y-46610000D03*
X211260000Y-44070000D03*
X150300000Y-107570000D03*
X218880000Y-117730000D03*
X229040000Y-49150000D03*
X221420000Y-110110000D03*
X168080000Y-41530000D03*
X229040000Y-38990000D03*
X170620000Y-127890000D03*
X206180000Y-105030000D03*
X201100000Y-125350000D03*
X170620000Y-120270000D03*
X178240000Y-54230000D03*
X150300000Y-135510000D03*
X163000000Y-87250000D03*
X229040000Y-110110000D03*
X226500000Y-79630000D03*
X211260000Y-61850000D03*
X180780000Y-107570000D03*
X208720000Y-110110000D03*
X155380000Y-59310000D03*
X193480000Y-61850000D03*
X236660000Y-87250000D03*
X157920000Y-115190000D03*
X152840000Y-87250000D03*
X234120000Y-41530000D03*
X175700000Y-38990000D03*
X198560000Y-79630000D03*
X152840000Y-38990000D03*
X216340000Y-69470000D03*
X190940000Y-105030000D03*
X223960000Y-87250000D03*
X226500000Y-92330000D03*
X142680000Y-120270000D03*
X155380000Y-132970000D03*
X201100000Y-110110000D03*
X170620000Y-61850000D03*
X206180000Y-82170000D03*
X147760000Y-56770000D03*
X147760000Y-72010000D03*
X175700000Y-97410000D03*
X163000000Y-79630000D03*
X221420000Y-74550000D03*
X165540000Y-51690000D03*
X222500000Y-43500000D03*
X185860000Y-38990000D03*
X226500000Y-120270000D03*
X231580000Y-130430000D03*
X206180000Y-120270000D03*
X163000000Y-120270000D03*
X168080000Y-97410000D03*
X147760000Y-84710000D03*
X236660000Y-56770000D03*
X142680000Y-127890000D03*
X196020000Y-115190000D03*
X231580000Y-54230000D03*
X218880000Y-130430000D03*
X178240000Y-117730000D03*
X236660000Y-46610000D03*
X165540000Y-125350000D03*
X229040000Y-61850000D03*
X213800000Y-49150000D03*
X203640000Y-89790000D03*
X190940000Y-49150000D03*
X218880000Y-44070000D03*
X168080000Y-115190000D03*
X196020000Y-87250000D03*
X175700000Y-82170000D03*
X178240000Y-102490000D03*
X178240000Y-64390000D03*
X183320000Y-112650000D03*
X157920000Y-49150000D03*
X142680000Y-82170000D03*
X183320000Y-79630000D03*
X178240000Y-44070000D03*
X185860000Y-102490000D03*
X229040000Y-69470000D03*
X160460000Y-135510000D03*
X157920000Y-122810000D03*
X157920000Y-64390000D03*
X142680000Y-38990000D03*
X234120000Y-74550000D03*
X203640000Y-130430000D03*
X157920000Y-82170000D03*
X196020000Y-46610000D03*
X155380000Y-102490000D03*
X142680000Y-74550000D03*
X221420000Y-49150000D03*
X152840000Y-127890000D03*
X163000000Y-38990000D03*
X190940000Y-135510000D03*
X221420000Y-122810000D03*
X223960000Y-127890000D03*
X193480000Y-125350000D03*
X147760000Y-130430000D03*
X226500000Y-44070000D03*
X155380000Y-94870000D03*
X152840000Y-46610000D03*
X216340000Y-112650000D03*
X163000000Y-72010000D03*
X152840000Y-112650000D03*
X185860000Y-54230000D03*
X165540000Y-64390000D03*
X147760000Y-49150000D03*
X165540000Y-107570000D03*
X160460000Y-127890000D03*
X173160000Y-107570000D03*
X163000000Y-46610000D03*
X157920000Y-41530000D03*
X185860000Y-84710000D03*
X175700000Y-49150000D03*
X190940000Y-41530000D03*
X218880000Y-105030000D03*
X147760000Y-41530000D03*
X147760000Y-115190000D03*
X173160000Y-77090000D03*
X175700000Y-122810000D03*
X170620000Y-54230000D03*
X147760000Y-122810000D03*
X145220000Y-89790000D03*
X213800000Y-94870000D03*
X173160000Y-92330000D03*
X223960000Y-64390000D03*
X221420000Y-82170000D03*
X213800000Y-38990000D03*
X150300000Y-61850000D03*
X165540000Y-132970000D03*
X213800000Y-132970000D03*
X221420000Y-135510000D03*
X152840000Y-54230000D03*
X168080000Y-82170000D03*
X180780000Y-130430000D03*
X216340000Y-77090000D03*
X188400000Y-89790000D03*
X178240000Y-87250000D03*
X223960000Y-99950000D03*
X145220000Y-97410000D03*
X213800000Y-107570000D03*
X221420000Y-94870000D03*
X196020000Y-38990000D03*
X157920000Y-89790000D03*
X142680000Y-112650000D03*
X163000000Y-102490000D03*
X229040000Y-125350000D03*
X160460000Y-54230000D03*
X145220000Y-105030000D03*
X142680000Y-54230000D03*
X211260000Y-115190000D03*
X198560000Y-135510000D03*
X216340000Y-99950000D03*
X168080000Y-74550000D03*
X226500000Y-105030000D03*
X157920000Y-74550000D03*
X203640000Y-77090000D03*
X175700000Y-59310000D03*
X175700000Y-135510000D03*
X170620000Y-87250000D03*
X223960000Y-115190000D03*
X175700000Y-72010000D03*
X190940000Y-94870000D03*
X163000000Y-112650000D03*
X203640000Y-38990000D03*
X211260000Y-102490000D03*
X193480000Y-99950000D03*
X198560000Y-92330000D03*
X188400000Y-130430000D03*
X234120000Y-107570000D03*
X236660000Y-112650000D03*
X201100000Y-84710000D03*
X180780000Y-92330000D03*
X183320000Y-97410000D03*
X226500000Y-132970000D03*
X190940000Y-77090000D03*
X150300000Y-99950000D03*
X234120000Y-120270000D03*
X216340000Y-84710000D03*
X183320000Y-135510000D03*
X234120000Y-66930000D03*
X173160000Y-66930000D03*
X170620000Y-102490000D03*
X152840000Y-79630000D03*
X185860000Y-125350000D03*
X236660000Y-94870000D03*
X213800000Y-120270000D03*
X152840000Y-66930000D03*
X170620000Y-46610000D03*
X218880000Y-89790000D03*
X203640000Y-115190000D03*
X234120000Y-135510000D03*
X160460000Y-97410000D03*
X236660000Y-79630000D03*
X231580000Y-115190000D03*
X152840000Y-120270000D03*
X196020000Y-130430000D03*
X157920000Y-107570000D03*
X188400000Y-59310000D03*
X198560000Y-120270000D03*
X193480000Y-54230000D03*
X221420000Y-59310000D03*
X219000000Y-42000000D03*
D15*
X140000000Y-38000000D02*
X240000000Y-38000000D01*
X240000000Y-38000000D02*
X240000000Y-138000000D01*
X240000000Y-138000000D02*
X140000000Y-138000000D01*
X140000000Y-138000000D02*
X140000000Y-38000000D01*
M02*
