M48
INCH,TZ
T1C0.0157
T2C0.0236
T3C0.0394
%
G90
G05
T1
X56173Y-15350
X56173Y-18350
X56173Y-21350
X56173Y-24350
X56173Y-29350
X56173Y-32350
X56173Y-44350
X56173Y-47350
X56173Y-50350
X57173Y-35350
X57173Y-38350
X57173Y-41350
X58173Y-16350
X58173Y-19350
X58173Y-22350
X58173Y-28350
X58173Y-33350
X58173Y-45350
X58173Y-48350
X58173Y-51350
X59173Y-24350
X59173Y-36350
X59173Y-39350
X59173Y-42350
X59173Y-53350
X60173Y-15350
X60173Y-18350
X60173Y-21350
X60173Y-26350
X60173Y-31350
X60173Y-34350
X60173Y-44350
X60173Y-47350
X60173Y-50350
X61173Y-23350
X61173Y-37350
X61173Y-40350
X61173Y-52350
X62173Y-16350
X62173Y-19350
X62173Y-25350
X62173Y-29350
X62173Y-32350
X62173Y-35350
X62173Y-42350
X62173Y-45350
X62173Y-48350
X63173Y-21350
X63173Y-38350
X63173Y-50350
X63173Y-53350
X64173Y-15350
X64173Y-18350
X64173Y-23350
X64173Y-28350
X64173Y-31350
X64173Y-34350
X64173Y-40350
X64173Y-44350
X64173Y-47350
X65173Y-20350
X65173Y-25350
X65173Y-36350
X65173Y-42350
X65173Y-49350
X65173Y-52350
X66173Y-16350
X66173Y-29350
X66173Y-32350
X66173Y-38350
X66173Y-45350
X67173Y-18350
X67173Y-21350
X67173Y-24350
X67173Y-34350
X67173Y-40350
X67173Y-47350
X67173Y-50350
X68173Y-26350
X68173Y-30350
X68173Y-36350
X68173Y-42350
X69173Y-15350
X69173Y-19350
X69173Y-23350
X69173Y-28350
X69173Y-32350
X69173Y-38350
X69173Y-44350
X69173Y-48350
X69173Y-53350
X70173Y-17350
X70173Y-21350
X70173Y-25350
X70173Y-34350
X70173Y-40350
X70173Y-46350
X71173Y-36350
X71173Y-42350
X71173Y-51350
X72173Y-31350
X72173Y-38350
X72173Y-44350
X72173Y-53350
X73173Y-15350
X73173Y-18350
X73173Y-21350
X73173Y-33350
X73173Y-40350
X73173Y-49350
X74173Y-23350
X74173Y-35350
X74173Y-51350
X75173Y-16350
X75173Y-19350
X75173Y-30350
X75173Y-37350
X75173Y-41350
X75173Y-47350
X75173Y-53350
X76173Y-21350
X76173Y-24350
X76173Y-32350
X76173Y-39350
X76173Y-49350
X77173Y-15350
X77173Y-18350
X77173Y-34350
X77173Y-45350
X77173Y-51350
X78173Y-31350
X78173Y-36350
X78173Y-47350
X78173Y-53350
X79173Y-33350
X79173Y-38350
X79173Y-43350
X79173Y-49350
X80173Y-15350
X80173Y-30350
X80173Y-35350
X80173Y-45350
X80173Y-51350
X81173Y-18350
X81173Y-32350
X81173Y-41350
X81173Y-47350
X82173Y-43350
X82173Y-49350
X83173Y-17350
X83173Y-24350
X83173Y-40350
X83173Y-45350
X84173Y-15350
X84173Y-19350
X84173Y-37350
X84173Y-42350
X84173Y-47350
X84173Y-52350
X85173Y-27350
X85173Y-30350
X85173Y-33350
X85173Y-39350
X85173Y-44350
X86173Y-17350
X86173Y-35350
X86173Y-41350
X86173Y-46350
X86173Y-51350
X87173Y-19350
X87173Y-23350
X87173Y-29350
X87173Y-32350
X87173Y-37350
X87173Y-43350
X87173Y-48350
X87173Y-53350
X88173Y-25350
X88173Y-34350
X88173Y-39350
X88173Y-45350
X88173Y-50350
X89173Y-17350
X89173Y-31350
X89173Y-36350
X89173Y-41350
X89173Y-47350
X89173Y-52350
X90173Y-15350
X90173Y-19350
X90173Y-24350
X90173Y-27350
X90173Y-43350
X90173Y-49350
X91173Y-21350
X91173Y-45350
X91173Y-51350
X92173Y-16350
X92173Y-26350
X92173Y-29350
X92173Y-42350
X92173Y-47350
X92173Y-53350
X93173Y-18350
X93173Y-22350
X93173Y-31350
X93173Y-34350
X93173Y-37350
X93173Y-44350
T2
X86220Y-16535
X87598Y-17126
T3
X55906Y-26165
X55906Y-27165
X55906Y-28165
X55906Y-41126
X55906Y-42126
X55906Y-43126
X66329Y-15738
X66329Y-53533
X67329Y-15738
X67329Y-53533
X68329Y-15738
X68329Y-53533
X71929Y-15469
X71929Y-16469
X71929Y-17469
X71929Y-18469
X71929Y-19469
X71929Y-20469
X71929Y-21469
X71929Y-22469
X71929Y-23469
X71929Y-24469
X71929Y-25469
X71929Y-26469
X71929Y-27469
X72929Y-24646
X72929Y-25469
X73929Y-24646
X73929Y-25469
X74929Y-25469
X77929Y-15469
X77929Y-16469
X77929Y-17469
X77929Y-18469
X77929Y-19469
X77929Y-20469
X77929Y-21469
X77929Y-22469
X77929Y-23469
X77929Y-24469
X77929Y-25469
X77929Y-26469
X77929Y-27469
X81289Y-15738
X81289Y-53533
X82289Y-15738
X82289Y-53533
X83289Y-15738
X83289Y-53533
X93691Y-40634
X93691Y-41634
X93691Y-42634
X93691Y-43634
X93701Y-26165
X93701Y-27165
X93701Y-28165
M30
